<svg width="25" height="24" viewBox="0 0 25 24" fill="none" xmlns="http://www.w3.org/2000/svg">
<path d="M12.5798 2C7.05983 2 2.57983 6.48 2.57983 12C2.57983 17.52 7.05983 22 12.5798 22C18.0998 22 22.5798 17.52 22.5798 12C22.5798 6.48 18.0998 2 12.5798 2ZM12.5798 5C14.2398 5 15.5798 6.34 15.5798 8C15.5798 9.66 14.2398 11 12.5798 11C10.9198 11 9.57983 9.66 9.57983 8C9.57983 6.34 10.9198 5 12.5798 5ZM12.5798 19.2C10.0798 19.2 7.86983 17.92 6.57983 15.98C6.60983 13.99 10.5798 12.9 12.5798 12.9C14.5698 12.9 18.5498 13.99 18.5798 15.98C17.2898 17.92 15.0798 19.2 12.5798 19.2Z" fill="#27AE60"/>
</svg>
