<svg width="18" height="19" viewBox="0 0 18 19" fill="inherit" xmlns="http://www.w3.org/2000/svg">
<path d="M5.25 14.2139C4.425 14.2139 3.7575 14.8889 3.7575 15.7139C3.7575 16.5389 4.425 17.2139 5.25 17.2139C6.075 17.2139 6.75 16.5389 6.75 15.7139C6.75 14.8889 6.075 14.2139 5.25 14.2139ZM0.75 2.96387C0.75 3.37637 1.0875 3.71387 1.5 3.71387H2.25L4.95 9.40637L3.9375 11.2364C3.39 12.2414 4.11 13.4639 5.25 13.4639H13.5C13.9125 13.4639 14.25 13.1264 14.25 12.7139C14.25 12.3014 13.9125 11.9639 13.5 11.9639H5.25L6.075 10.4639H11.6625C12.225 10.4639 12.72 10.1564 12.975 9.69137L15.66 4.82387C15.9375 4.32887 15.5775 3.71387 15.0075 3.71387H3.9075L3.405 2.64137C3.285 2.37887 3.015 2.21387 2.73 2.21387H1.5C1.0875 2.21387 0.75 2.55137 0.75 2.96387ZM12.75 14.2139C11.925 14.2139 11.2575 14.8889 11.2575 15.7139C11.2575 16.5389 11.925 17.2139 12.75 17.2139C13.575 17.2139 14.25 16.5389 14.25 15.7139C14.25 14.8889 13.575 14.2139 12.75 14.2139Z" fill="inherit"/>
</svg>
