<svg width="16" height="17" viewBox="0 0 16 17" fill="none" xmlns="http://www.w3.org/2000/svg">
<path d="M5.86 6.8737V4.38037C5.86 3.46037 6.60667 2.7137 7.52667 2.7137C8.44667 2.7137 9.19333 3.46037 9.19333 4.38037V6.8737C10 6.3337 10.5267 5.42037 10.5267 4.38037C10.5267 2.72037 9.18667 1.38037 7.52667 1.38037C5.86667 1.38037 4.52666 2.72037 4.52666 4.38037C4.52666 5.42037 5.05333 6.3337 5.86 6.8737ZM9.52666 8.52037C9.34 8.42704 9.14 8.38037 8.93333 8.38037H8.52667V4.38037C8.52667 3.82704 8.08 3.38037 7.52667 3.38037C6.97333 3.38037 6.52667 3.82704 6.52667 4.38037V11.5404L4.23333 11.0604C3.98666 11.007 3.72667 11.087 3.54667 11.267C3.26 11.5604 3.26 12.027 3.54667 12.3204L6.22 14.9937C6.47333 15.2404 6.81333 15.3804 7.16667 15.3804H11.2333C11.9 15.3804 12.46 14.8937 12.5533 14.2337L12.9733 11.2537C13.0533 10.687 12.76 10.127 12.2467 9.8737L9.52666 8.52037Z" fill="white"/>
</svg>
