<svg width="48" height="49" viewBox="0 0 48 49" fill="none" xmlns="http://www.w3.org/2000/svg">
<g clip-path="url(#clip0)">
<path d="M14 48.5C16.2091 48.5 18 46.7091 18 44.5C18 42.2909 16.2091 40.5 14 40.5C11.7909 40.5 10 42.2909 10 44.5C10 46.7091 11.7909 48.5 14 48.5Z" fill="#BB8E34"/>
<path d="M34 48.5C36.2091 48.5 38 46.7091 38 44.5C38 42.2909 36.2091 40.5 34 40.5C31.7909 40.5 30 42.2909 30 44.5C30 46.7091 31.7909 48.5 34 48.5Z" fill="#BB8E34"/>
<path d="M47.3699 3.172C46.9948 2.79706 46.4862 2.58643 45.9559 2.58643C45.4256 2.58643 44.917 2.79706 44.5419 3.172L34.2239 13.5L31.1219 10.262C30.9399 10.0726 30.7224 9.92097 30.4817 9.81567C30.2411 9.71037 29.9821 9.6535 29.7195 9.6483C29.4569 9.6431 29.1958 9.68968 28.9512 9.78537C28.7066 9.88106 28.4833 10.024 28.2939 10.206C28.1045 10.388 27.9529 10.6055 27.8476 10.8462C27.7423 11.0868 27.6854 11.3458 27.6802 11.6084C27.6697 12.1388 27.8703 12.6516 28.2379 13.034L31.4659 16.392C31.8099 16.7635 32.2256 17.0614 32.6879 17.2676C33.1503 17.4739 33.6497 17.5842 34.1559 17.592H34.2219C34.718 17.5936 35.2095 17.4967 35.6679 17.3068C36.1262 17.117 36.5423 16.838 36.8919 16.486L47.3699 6C47.7448 5.62494 47.9555 5.11633 47.9555 4.586C47.9555 4.05567 47.7448 3.54705 47.3699 3.172V3.172Z" fill="#27AE60"/>
<path d="M43.8 18.532C43.5414 18.4853 43.2762 18.49 43.0194 18.5458C42.7626 18.6016 42.5194 18.7075 42.3036 18.8574C42.0877 19.0073 41.9036 19.1983 41.7616 19.4194C41.6196 19.6405 41.5225 19.8874 41.476 20.146L41.22 21.564C40.9705 22.9486 40.2423 24.2016 39.1628 25.1038C38.0832 26.0061 36.7209 26.5003 35.314 26.5H10.836L8.956 10.5H22C22.5304 10.5 23.0391 10.2893 23.4142 9.91421C23.7893 9.53914 24 9.03043 24 8.5C24 7.96957 23.7893 7.46086 23.4142 7.08579C23.0391 6.71071 22.5304 6.5 22 6.5H8.484L8.4 5.796C8.22764 4.3372 7.52612 2.99231 6.42838 2.01621C5.33063 1.04011 3.91295 0.500626 2.444 0.5L2 0.5C1.46957 0.5 0.960859 0.710714 0.585786 1.08579C0.210714 1.46086 0 1.96957 0 2.5C0 3.03043 0.210714 3.53914 0.585786 3.91421C0.960859 4.28929 1.46957 4.5 2 4.5H2.444C2.93387 4.50006 3.40667 4.67991 3.77274 5.00543C4.13881 5.33095 4.37269 5.7795 4.43 6.266L7.182 29.666C7.4677 32.0996 8.63696 34.3436 10.4678 35.972C12.2987 37.6005 14.6637 38.5001 17.114 38.5H38C38.5304 38.5 39.0391 38.2893 39.4142 37.9142C39.7893 37.5391 40 37.0304 40 36.5C40 35.9696 39.7893 35.4609 39.4142 35.0858C39.0391 34.7107 38.5304 34.5 38 34.5H17.114C15.873 34.5002 14.6625 34.1157 13.6492 33.3993C12.6359 32.6829 11.8697 31.67 11.456 30.5H35.314C37.6586 30.5001 39.9287 29.6765 41.7276 28.1729C43.5266 26.6693 44.7401 24.5814 45.156 22.274L45.412 20.854C45.5058 20.3324 45.3887 19.7948 45.0865 19.3594C44.7842 18.9241 44.3215 18.6265 43.8 18.532Z" fill="#BB8E34"/>
</g>
<defs>
<clipPath id="clip0">
<rect width="48" height="48" fill="white" transform="translate(0 0.5)"/>
</clipPath>
</defs>
</svg>
