<svg width="32" height="32" viewBox="0 0 32 32" fill="none" xmlns="http://www.w3.org/2000/svg">
<path d="M25.3333 8.00001H22.6667C22.6667 4.32001 19.68 1.33334 16 1.33334C12.32 1.33334 9.33333 4.32001 9.33333 8.00001H6.66667C5.2 8.00001 4 9.20001 4 10.6667V26.6667C4 28.1333 5.2 29.3333 6.66667 29.3333H25.3333C26.8 29.3333 28 28.1333 28 26.6667V10.6667C28 9.20001 26.8 8.00001 25.3333 8.00001ZM16 4.00001C18.2133 4.00001 20 5.78668 20 8.00001H12C12 5.78668 13.7867 4.00001 16 4.00001ZM16 17.3333C12.8933 17.3333 10.28 15.2133 9.54667 12.3333C9.32 11.4933 9.97333 10.6667 10.84 10.6667C11.4667 10.6667 11.9733 11.12 12.1467 11.7333C12.6133 13.4267 14.16 14.6667 16 14.6667C17.84 14.6667 19.3867 13.4267 19.8533 11.7333C20.0267 11.12 20.5333 10.6667 21.16 10.6667C22.0267 10.6667 22.6667 11.4933 22.4533 12.3333C21.72 15.2133 19.1067 17.3333 16 17.3333Z" fill="#27AE60"/>
</svg>
