<svg width="18" height="18" viewBox="0 0 18 18" fill="none" xmlns="http://www.w3.org/2000/svg">
<path d="M13.4194 4.28303C13.1269 3.99053 12.6544 3.99053 12.3619 4.28303L8.69438 7.94303L5.02688 4.27553C4.73438 3.98303 4.26188 3.98303 3.96938 4.27553C3.67687 4.56803 3.67687 5.04053 3.96938 5.33303L7.63688 9.00052L3.96938 12.668C3.67687 12.9605 3.67687 13.433 3.96938 13.7255C4.26188 14.018 4.73438 14.018 5.02688 13.7255L8.69438 10.058L12.3619 13.7255C12.6544 14.018 13.1269 14.018 13.4194 13.7255C13.7119 13.433 13.7119 12.9605 13.4194 12.668L9.75188 9.00052L13.4194 5.33303C13.7044 5.04803 13.7044 4.56803 13.4194 4.28303Z" fill="#323232" fill-opacity="0.2"/>
</svg>
