<svg width="37" height="36" viewBox="0 0 37 36" fill="none" xmlns="http://www.w3.org/2000/svg">
<path d="M29.65 12H25.9V9C25.9 7.35 24.55 6 22.9 6H4.89999C3.24999 6 1.89999 7.35 1.89999 9V22.5C1.89999 24.15 3.24999 25.5 4.89999 25.5C4.89999 27.99 6.90999 30 9.39999 30C11.89 30 13.9 27.99 13.9 25.5H22.9C22.9 27.99 24.91 30 27.4 30C29.89 30 31.9 27.99 31.9 25.5H33.4C34.225 25.5 34.9 24.825 34.9 24V19.005C34.9 18.36 34.69 17.73 34.3 17.205L30.85 12.6C30.565 12.225 30.115 12 29.65 12ZM9.39999 27C8.57499 27 7.89999 26.325 7.89999 25.5C7.89999 24.675 8.57499 24 9.39999 24C10.225 24 10.9 24.675 10.9 25.5C10.9 26.325 10.225 27 9.39999 27ZM29.65 14.25L32.59 18H25.9V14.25H29.65ZM27.4 27C26.575 27 25.9 26.325 25.9 25.5C25.9 24.675 26.575 24 27.4 24C28.225 24 28.9 24.675 28.9 25.5C28.9 26.325 28.225 27 27.4 27Z" fill="#27AE60"/>
</svg>
