<svg width="37" height="36" viewBox="0 0 37 36" fill="none" xmlns="http://www.w3.org/2000/svg">
<path d="M32.715 17.37L19.215 3.87C18.675 3.33 17.925 3 17.1 3H6.59998C4.94998 3 3.59998 4.35 3.59998 6V16.5C3.59998 17.325 3.92998 18.075 4.48498 18.63L17.985 32.13C18.525 32.67 19.275 33 20.1 33C20.925 33 21.675 32.67 22.215 32.115L32.715 21.615C33.27 21.075 33.6 20.325 33.6 19.5C33.6 18.675 33.255 17.91 32.715 17.37ZM8.84998 10.5C7.60498 10.5 6.59998 9.495 6.59998 8.25C6.59998 7.005 7.60498 6 8.84998 6C10.095 6 11.1 7.005 11.1 8.25C11.1 9.495 10.095 10.5 8.84998 10.5Z" fill="#27AE60"/>
</svg>
