<svg width="37" height="36" viewBox="0 0 37 36" fill="none" xmlns="http://www.w3.org/2000/svg">
<path d="M28.8 7.5H25.8V6C25.8 5.175 25.125 4.5 24.3 4.5H12.3C11.475 4.5 10.8 5.175 10.8 6V7.5H7.79999C6.14999 7.5 4.79999 8.85 4.79999 10.5V12C4.79999 15.825 7.67999 18.945 11.385 19.41C12.33 21.66 14.355 23.355 16.8 23.85V28.5H12.3C11.475 28.5 10.8 29.175 10.8 30C10.8 30.825 11.475 31.5 12.3 31.5H24.3C25.125 31.5 25.8 30.825 25.8 30C25.8 29.175 25.125 28.5 24.3 28.5H19.8V23.85C22.245 23.355 24.27 21.66 25.215 19.41C28.92 18.945 31.8 15.825 31.8 12V10.5C31.8 8.85 30.45 7.5 28.8 7.5ZM7.79999 12V10.5H10.8V16.23C9.05999 15.6 7.79999 13.95 7.79999 12ZM28.8 12C28.8 13.95 27.54 15.6 25.8 16.23V10.5H28.8V12Z" fill="#27AE60"/>
</svg>
