<svg width="25" height="24" viewBox="0 0 25 24" fill="none" xmlns="http://www.w3.org/2000/svg">
<path d="M20.5798 12C20.5798 11.24 21.0098 10.58 21.6398 10.24C22.2398 9.91 22.5798 9.23 22.5798 8.54V6C22.5798 4.9 21.6798 4 20.5798 4H4.57983C3.47983 4 2.58983 4.89 2.58983 5.99V8.54C2.58983 9.23 2.91983 9.91 3.52983 10.23C4.15983 10.58 4.57983 11.24 4.57983 12C4.57983 12.76 4.14983 13.43 3.51983 13.76C2.91983 14.09 2.57983 14.77 2.57983 15.46V18C2.57983 19.1 3.47983 20 4.57983 20H20.5798C21.6798 20 22.5798 19.1 22.5798 18V15.46C22.5798 14.77 22.2398 14.09 21.6398 13.76C21.0098 13.42 20.5798 12.76 20.5798 12ZM15.0798 16.1L12.5798 14.5L10.0798 16.11C9.69983 16.35 9.20983 16 9.32983 15.56L10.0798 12.68L7.77983 10.8C7.42983 10.51 7.60983 9.94 8.06983 9.91L11.0298 9.74L12.1098 6.99C12.2798 6.57 12.8798 6.57 13.0398 6.99L14.1198 9.75L17.0798 9.92C17.5298 9.95 17.7198 10.52 17.3698 10.81L15.0698 12.69L15.8298 15.55C15.9498 16 15.4598 16.35 15.0798 16.1Z" fill="#27AE60"/>
</svg>
