<svg width="19" height="18" viewBox="0 0 19 18" fill="none" xmlns="http://www.w3.org/2000/svg">
<path d="M9.57983 9C10.4048 9 11.0798 8.325 11.0798 7.5C11.0798 6.675 10.4048 6 9.57983 6C8.75483 6 8.07983 6.675 8.07983 7.5C8.07983 8.325 8.75483 9 9.57983 9ZM9.57983 1.5C12.7298 1.5 15.5798 3.915 15.5798 7.65C15.5798 10.035 13.7423 12.84 10.0748 16.0725C9.78983 16.32 9.36233 16.32 9.07733 16.0725C5.41733 12.84 3.57983 10.035 3.57983 7.65C3.57983 3.915 6.42983 1.5 9.57983 1.5Z" fill="#27AE60"/>
</svg>
