<svg width="70" height="20" viewBox="0 0 70 20" fill="none" xmlns="http://www.w3.org/2000/svg">
<path d="M62.9032 0H49.6129C50.3871 4.3871 54.6452 8.51614 59.2903 8.51614H69.871C70 8.12904 70 7.48387 70 7.09677C70 3.22581 66.7742 0 62.9032 0Z" fill="white"/>
<path d="M50.7742 9.29004V19.9997H57.2258V14.3223H62.9032C66 14.3223 68.7097 12.1287 69.6129 9.29004H50.7742Z" fill="#798797"/>
<path d="M28.0646 0V19.871H33.742C33.742 19.871 35.1614 19.871 35.9355 18.4516C39.8065 10.8387 40.9678 8.51614 40.9678 8.51614H41.742V19.871H48.1936V0H42.5162C42.5162 0 41.0968 0.12904 40.3226 1.41936C37.0968 8.00001 35.2904 11.3548 35.2904 11.3548H34.5162V0H28.0646Z" fill="#798797"/>
<path d="M0.967773 19.9999V0.128906H7.41939C7.41939 0.128906 9.22585 0.128902 10.2581 2.96761C12.8388 10.4515 13.0968 11.4837 13.0968 11.4837C13.0968 11.4837 13.6129 9.67729 15.9355 2.96761C16.9678 0.128902 18.7742 0.128906 18.7742 0.128906H25.2259V19.9999H18.7742V9.29021H18L14.3872 19.9999H11.5484L7.93555 9.29021H7.16135V19.9999H0.967773Z" fill="#798797"/>
</svg>
