<svg width="37" height="36" viewBox="0 0 37 36" fill="none" xmlns="http://www.w3.org/2000/svg">
<path d="M28.7 13.95V7.49999C28.7 6.67499 28.025 5.99999 27.2 5.99999H25.7C24.875 5.99999 24.2 6.67499 24.2 7.49999V9.89999L19.205 5.39999C18.635 4.88999 17.765 4.88999 17.195 5.39999L4.65498 16.695C4.14498 17.145 4.45998 18 5.14998 18H7.69998V28.5C7.69998 29.325 8.37498 30 9.19998 30H13.7C14.525 30 15.2 29.325 15.2 28.5V21H21.2V28.5C21.2 29.325 21.875 30 22.7 30H27.2C28.025 30 28.7 29.325 28.7 28.5V18H31.25C31.94 18 32.27 17.145 31.745 16.695L28.7 13.95ZM15.2 15C15.2 13.35 16.55 12 18.2 12C19.85 12 21.2 13.35 21.2 15H15.2Z" fill="#27AE60"/>
</svg>
