<svg width="66" height="20" viewBox="0 0 66 20" fill="none" xmlns="http://www.w3.org/2000/svg">
<path d="M61.5868 0.286133H57.4916C56.2535 0.286133 55.3011 0.667085 54.7297 1.90518L46.9202 19.7147H52.444C52.444 19.7147 53.3964 17.3338 53.5868 16.7623C54.1583 16.7623 59.5868 16.7623 60.3487 16.7623C60.5392 17.429 61.0154 19.6195 61.0154 19.6195H65.9678L61.5868 0.286133ZM55.1106 12.7623C55.5868 11.6195 57.2059 7.33375 57.2059 7.33375C57.2059 7.42899 57.6821 6.19089 57.8725 5.52423L58.2535 7.23851C58.2535 7.23851 59.3011 11.9052 59.4916 12.8576H55.1106V12.7623Z" fill="#798797"/>
<path d="M47.3012 13.3333C47.3012 17.3333 43.6821 20 38.0631 20C35.6821 20 33.3964 19.5238 32.1583 18.9524L32.9202 14.5714L33.5869 14.8571C35.3012 15.619 36.444 15.9048 38.5393 15.9048C40.0631 15.9048 41.6821 15.3333 41.6821 14C41.6821 13.1429 41.0155 12.5714 38.9202 11.619C36.9202 10.6667 34.2536 9.14286 34.2536 6.38095C34.2536 2.57143 37.9678 0 43.2059 0C45.2059 0 46.9202 0.380952 47.9678 0.857143L47.2059 5.04762L46.825 4.66667C45.8726 4.28571 44.6345 3.90476 42.825 3.90476C40.825 4 39.8726 4.85714 39.8726 5.61905C39.8726 6.47619 41.0155 7.14286 42.825 8C45.8726 9.42857 47.3012 11.0476 47.3012 13.3333Z" fill="#798797"/>
<path d="M0.824951 0.476656L0.920189 0.0957031H9.11067C10.2535 0.0957031 11.1107 0.476656 11.3964 1.71475L13.2059 10.2862C11.3964 5.71475 7.2059 2.00047 0.824951 0.476656Z" fill="white"/>
<path d="M24.7297 0.285668L16.4439 19.619H10.8249L6.06299 3.42852C9.49156 5.619 12.3487 9.04757 13.3963 11.4285L13.9678 13.4285L19.1106 0.19043H24.7297V0.285668Z" fill="#798797"/>
<path d="M26.9202 0.19043H32.1583L28.825 19.619H23.5869L26.9202 0.19043Z" fill="#798797"/>
</svg>
