<svg width="15" height="14" viewBox="0 0 15 14" fill="inherit" xmlns="http://www.w3.org/2000/svg">
<path d="M14.7712 5.40336C14.7712 5.01548 14.7202 4.56296 14.7202 4.04579C14.6691 3.52862 14.618 3.01144 14.5669 2.55892C14.4647 2.04175 14.3114 1.65387 14.0048 1.33064C13.7493 1.00741 13.3917 0.813463 13.034 0.748816C11.8588 0.554877 10.1216 0.490234 7.77125 0.490234C5.42088 0.490234 3.63255 0.554877 2.50846 0.748816C2.1508 0.813463 1.79314 1.00741 1.53766 1.33064C1.28219 1.65387 1.07781 2.04175 0.975617 2.55892C0.873427 3.01144 0.822338 3.46397 0.822338 4.04579C0.771243 4.56296 0.77124 5.01548 0.77124 5.40336C0.77124 5.79124 0.77124 6.24377 0.77124 6.89023C0.77124 7.5367 0.77124 8.05387 0.77124 8.3771C0.77124 8.76498 0.822338 9.21751 0.822338 9.73468C0.873433 10.2519 0.924522 10.769 0.975617 11.2215C1.07781 11.7387 1.23109 12.1266 1.53766 12.4498C1.79314 12.7731 2.1508 12.967 2.50846 13.0316C3.68365 13.2256 5.42088 13.2902 7.77125 13.2902C10.1216 13.2902 11.9099 13.2256 13.034 13.0316C13.3917 12.967 13.7493 12.7731 14.0048 12.4498C14.2603 12.1266 14.4647 11.7387 14.5669 11.2215C14.6691 10.769 14.7202 10.3165 14.7202 9.73468C14.7713 9.21751 14.7712 8.76498 14.7712 8.3771C14.7712 7.98922 14.7712 7.5367 14.7712 6.89023C14.7712 6.24377 14.7712 5.72659 14.7712 5.40336ZM10.4793 7.4074L6.44278 10.5751C6.39168 10.6397 6.28949 10.7044 6.1873 10.7044C6.08511 10.7044 6.03402 10.7044 5.93183 10.6397C5.77854 10.5104 5.67635 10.3165 5.67635 10.0579V3.65791C5.67635 3.39932 5.77854 3.20539 5.93183 3.07609C6.08511 2.9468 6.28949 2.9468 6.44278 3.07609L10.4793 6.24377C10.6326 6.37306 10.7347 6.567 10.7347 6.76094C10.7347 6.95488 10.6326 7.27811 10.4793 7.4074Z" fill="inherit"/>
</svg>
