<?xml version="1.0" encoding="utf-8"?><svg width="50" height="50" fill="none" xmlns="http://www.w3.org/2000/svg" viewBox="0 0 50 50"><g clip-path="url(#aeclip0)"><path d="M22.5 16.833h4.9a.817.817 0 000-1.633h-4.9a.817.817 0 000 1.633zM25.766 45.416a.817.817 0 11-1.633 0 .817.817 0 011.633 0zM30.667 28.267a.817.817 0 11-1.634 0 .817.817 0 011.634 0z" fill="#F7F896"/><path fill-rule="evenodd" clip-rule="evenodd" d="M35.567 25v22.05a2.453 2.453 0 01-2.45 2.45H16.783a2.453 2.453 0 01-2.45-2.45V14.383a2.453 2.453 0 012.45-2.45h16.334a2.453 2.453 0 012.45 2.45V25zM16.783 13.567h16.334c.45 0 .816.365.816.816v4.084H15.967v-4.084c0-.45.366-.816.816-.816zm-.816 6.533h17.966v21.233H15.967V20.1zm17.15 27.767H16.783a.818.818 0 01-.816-.817v-4.083h17.966v4.083c0 .45-.366.816-.816.817z" fill="#27AE60"/><path d="M20.05 21.733h-1.633a.817.817 0 100 1.634h1.633a.817.817 0 000-1.634zM29.85 21.733h-6.533a.817.817 0 100 1.634h6.533a.817.817 0 100-1.634zM25.669 27.23c-.446.142-.737.57-.702 1.037 0 .076-.004.152-.01.228a2.42 2.42 0 01-.82 1.566 6.63 6.63 0 01-.93.67c-.454.27-.877.587-1.262.946a3.774 3.774 0 00-1.057 3.1 4.122 4.122 0 001.8 3.04c.263.166.568.253.879.25h2.673c.465.003.909-.193 1.22-.539 2.683-3.028 1.383-7.026.191-8.911-.704-1.116-1.356-1.568-1.982-1.386zm.571 9.203h-2.673l.008.013c-.61-.422-1-1.095-1.061-1.835a2.15 2.15 0 01.578-1.77c.306-.279.64-.524.995-.734.41-.246.798-.53 1.158-.845.494-.445.877-1.001 1.115-1.622.506.857.842 1.803.987 2.787a4.757 4.757 0 01-1.107 4.006z" fill="#F7F896"/><g clip-path="url(#aeclip1)"><path d="M48.338 17.46L27.689 1.496a4.977 4.977 0 00-5.733.014L1.345 17.447a2.3 2.3 0 00-.895 2.624 2.611 2.611 0 002.333 1.734v17.518a3.27 3.27 0 003.266 3.266h37.568a3.27 3.27 0 003.267-3.266V21.805a2.611 2.611 0 002.333-1.734 2.291 2.291 0 00-.878-2.61zm-4.722 23.496H6.048a1.635 1.635 0 01-1.633-1.633V21.36L24.85 5.498l20.4 15.863v17.962a1.635 1.635 0 01-1.634 1.633zm4.047-21.392a.997.997 0 01-1.009.625h-.25L25.766 4.14c-.01-.007-.022-.009-.032-.016-.01-.008-.015-.018-.026-.025a1.665 1.665 0 00-1.81.04L3.261 20.19h-.25A.997.997 0 012 19.564a.693.693 0 01.325-.812l20.61-15.936a3.291 3.291 0 013.773-.014l20.648 15.963a.68.68 0 01.306.8z" fill="#27AE60"/></g></g><defs><clipPath id="aeclip0"><path fill="#fff" transform="translate(.333 .5)" d="M0 0h49v49H0z"/></clipPath><clipPath id="aeclip1"><path fill="#fff" transform="translate(.333 .5)" d="M0 0h49v49H0z"/></clipPath></defs></svg>