<?xml version="1.0" encoding="utf-8"?><svg width="50" height="50" fill="none" xmlns="http://www.w3.org/2000/svg" viewBox="0 0 50 50"><g clip-path="url(#adclip0)"><path d="M38.712 1.775a72.392 72.392 0 00-27.056 0A2.45 2.45 0 009.67 4.188v34.285a2.451 2.451 0 001.986 2.412c.97.184 1.941.338 2.913.482v1.687a2.44 2.44 0 001.999 2.413c.15.026.3.045.45.07v2.33a1.635 1.635 0 001.634 1.633h3.266a1.635 1.635 0 001.633-1.633V46.2c.544.018 1.089.036 1.633.036s1.089-.018 1.633-.036v1.667A1.635 1.635 0 0028.45 49.5h3.266a1.635 1.635 0 001.633-1.633v-2.33c.15-.025.301-.044.452-.07a2.44 2.44 0 001.998-2.413v-1.687a73.52 73.52 0 002.913-.481 2.45 2.45 0 001.986-2.413V4.188a2.45 2.45 0 00-1.986-2.413zM11.303 6.548a85.484 85.484 0 0127.762 0v29.564a85.465 85.465 0 01-27.762 0V6.548zm.657-3.168a70.78 70.78 0 0126.449 0c.384.077.66.416.656.808v.722a87.12 87.12 0 00-27.762 0v-.722a.817.817 0 01.657-.808zm9.958 44.487h-3.266v-2.074c1.087.147 2.176.247 3.266.32v1.754zm9.798 0H28.45v-1.753a48.55 48.55 0 003.266-.32v2.073zm2.45-4.813a.808.808 0 01-.654.805 46.98 46.98 0 01-16.656 0 .808.808 0 01-.654-.805v-1.473c2.98.38 5.979.573 8.982.58a72.31 72.31 0 008.982-.58v1.473zm4.243-3.773h-.001c-1.14.216-2.28.402-3.423.56h-.003l-.01.001a70.635 70.635 0 01-19.576 0l-.01-.001h-.003a74.736 74.736 0 01-3.423-.56.816.816 0 01-.657-.808v-.723a86.46 86.46 0 0013.88 1.129c4.65-.002 9.293-.38 13.882-1.129v.722a.816.816 0 01-.656.809z" fill="#27AE60"/><path d="M25.184 31.537c6.764 0 12.248-5.484 12.248-12.248 0-6.764-5.484-12.248-12.248-12.248-6.764 0-12.248 5.484-12.248 12.248.008 6.76 5.487 12.24 12.248 12.247zm0-22.863c5.863 0 10.615 4.753 10.615 10.615s-4.752 10.614-10.615 10.614c-5.862 0-10.615-4.752-10.615-10.614.007-5.86 4.755-10.608 10.615-10.615z" fill="#F7F896"/><path d="M20.285 20.105h2.784l-.67 7.651v.003c-.052.559.287 1.08.818 1.259.133.046.273.07.414.07.401.002.776-.199.998-.534l6.124-8.799a.817.817 0 00-.67-1.283h-2.784l.67-7.654a1.224 1.224 0 00-2.23-.794l-6.124 8.798a.817.817 0 00.67 1.283zm5.923-7.898l-.613 7.011a.816.816 0 00.814.887h2.111l-4.36 6.266.612-7.011a.817.817 0 00-.813-.888h-2.111l4.36-6.265z" fill="#F7F896"/><path d="M16.202 29.904a2.45 2.45 0 10.001 4.899 2.45 2.45 0 000-4.9zm0 3.266a.817.817 0 11.001-1.634.817.817 0 010 1.634zM34.166 29.904a2.45 2.45 0 100 4.899 2.45 2.45 0 000-4.9zm0 3.266a.817.817 0 110-1.634.817.817 0 010 1.634zM23.551 33.17h-1.633a.816.816 0 000 1.633h1.633a.817.817 0 100-1.633zM28.45 33.17h-1.633a.816.816 0 000 1.633h1.633a.817.817 0 100-1.633z" fill="#27AE60"/></g><defs><clipPath id="adclip0"><path fill="#fff" transform="translate(.667 .5)" d="M0 0h49v49H0z"/></clipPath></defs></svg>