<?xml version="1.0" encoding="utf-8"?><svg width="50" height="50" fill="none" xmlns="http://www.w3.org/2000/svg" viewBox="0 0 50 50"><g clip-path="url(#acclip0)"><path d="M48.338 17.46L27.69 1.496a4.977 4.977 0 00-5.733.014L1.344 17.447a2.3 2.3 0 00-.895 2.624 2.611 2.611 0 002.333 1.734v24.517a3.27 3.27 0 003.267 3.267h37.567a3.27 3.27 0 003.267-3.267V21.805a2.611 2.611 0 002.333-1.734 2.291 2.291 0 00-.878-2.61zm-4.722 30.496H6.05a1.635 1.635 0 01-1.634-1.634V21.361L24.85 5.498l20.4 15.863v24.961a1.635 1.635 0 01-1.634 1.634zm4.047-28.392a.996.996 0 01-1.009.625h-.25L25.767 4.14c-.01-.007-.023-.009-.033-.016-.01-.008-.015-.018-.025-.025a1.665 1.665 0 00-1.81.04L3.26 20.19h-.25A.996.996 0 012 19.564a.693.693 0 01.325-.812l20.61-15.936a3.291 3.291 0 013.773-.014l20.648 15.963a.68.68 0 01.306.8z" fill="#27AE60"/><path d="M32.354 24.299a.817.817 0 00-.378 1.01 3.08 3.08 0 01-.613 2.603 2.823 2.823 0 01-2.382 1.249c-1.302-.071-1.599-.614-1.697-.792-.504-.921-.04-2.694.681-3.972 1.65-2.944-.796-5.502-1.584-6.215a3.23 3.23 0 00-.095-.077 54.752 54.752 0 00-7.474-4.791l-.002-.002-.003-.001a.817.817 0 00-.79 1.43c.314.546.53 1.143.635 1.764.042.165.078.306.106.398.244.847.36 1.725.344 2.606a9.143 9.143 0 01-1.59 4.735 29.385 29.385 0 01-2.56 3.33 34.854 34.854 0 00-2.45 3.135 8.54 8.54 0 00-.005 9.85c2.571 3.63 7.546 5.76 12.54 5.76 1.898.01 3.783-.315 5.57-.957a13.075 13.075 0 006.859-5.54c2.567-4.498 1.2-9.676-4.065-15.39a.903.903 0 00-1.047-.133zm-10.13 11.337c-.15-.105-.61-.426-.08-1.259.46-.588.943-1.153 1.45-1.693.076.337.191.665.342.976.705 1.449 2.454 2.45 4.146 3.42 1.626.93 3.307 1.894 3.578 3.005a2.06 2.06 0 01-.416 1.595 6.505 6.505 0 01-3.166 2.31c-2.284.845-5.686.965-7.769-.44a3.105 3.105 0 01-.782-.733A3.245 3.245 0 0119 40.521c.02-.201.122-.742.244-1.26.05.04.103.08.156.118a3.21 3.21 0 002.909.473c1.142-.398 1.462-1.07 1.53-1.564.183-1.33-1.314-2.443-1.615-2.652zm13.824 3.376a10.553 10.553 0 01-3.408 3.51c.587-.816.807-1.84.607-2.824-.437-1.793-2.428-2.933-4.354-4.036-1.477-.846-3.004-1.721-3.488-2.716a2.87 2.87 0 01-.274-.967 4.498 4.498 0 00-.025-.212 3.854 3.854 0 01-.045-.549.816.816 0 00-1.225-1.061l-.006.005a25.839 25.839 0 00-2.974 3.21c-.016.02-.045.061-.059.083-.852 1.335-.659 2.716.494 3.521.423.246.752.625.933 1.08 0 0-.073.12-.454.254a1.58 1.58 0 01-1.345-.21 1.058 1.058 0 01-.48-.524.817.817 0 00-.72-.815 1.245 1.245 0 00-.155-.01c-1.25.032-1.614 2.773-1.695 3.611a5.133 5.133 0 00.362 2.58 11.15 11.15 0 01-3.908-3.329 6.938 6.938 0 01.035-8 33.357 33.357 0 012.336-2.984 31.029 31.029 0 002.698-3.522 10.832 10.832 0 001.837-5.567 10.476 10.476 0 00-.409-3.091c-.025-.087-.056-.207-.092-.348a11.34 11.34 0 00-.035-.136 54.61 54.61 0 015.085 3.429c.563.508 2.315 2.314 1.257 4.203-.874 1.549-1.579 3.934-.69 5.557a3.385 3.385 0 003.04 1.638 4.393 4.393 0 003.789-1.914 5.45 5.45 0 00.866-1.78c3.61 4.493 4.453 8.495 2.502 11.914z" fill="#F7F896"/></g><defs><clipPath id="acclip0"><path fill="#fff" transform="translate(.333 .5)" d="M0 0h49v49H0z"/></clipPath></defs></svg>