<?xml version="1.0" encoding="utf-8"?><svg width="16" height="17" fill="none" xmlns="http://www.w3.org/2000/svg" viewBox="0 0 16 17"><path d="M5.86 6.874V4.38a1.667 1.667 0 013.333 0v2.494a2.99 2.99 0 001.334-2.494c0-1.66-1.34-3-3-3s-3 1.34-3 3A2.99 2.99 0 005.86 6.874zM9.527 8.52a1.316 1.316 0 00-.594-.14h-.406v-4c0-.553-.447-1-1-1-.554 0-1 .447-1 1v7.16l-2.294-.48a.752.752 0 00-.686.207.753.753 0 000 1.053l2.673 2.674c.253.246.593.386.947.386h4.066a1.33 1.33 0 001.32-1.146l.42-2.98a1.334 1.334 0 00-.726-1.38L9.527 8.52z" fill="#fff"/></svg>