<?xml version="1.0" encoding="utf-8"?><svg width="22" height="24" fill="none" xmlns="http://www.w3.org/2000/svg" viewBox="0 0 22 24"><path d="M17 24H5a5.006 5.006 0 01-5-5V5a5.006 5.006 0 015-5h12a5.006 5.006 0 015 5v14a5.006 5.006 0 01-5 5zM5 2a3 3 0 00-3 3v14a3 3 0 003 3h12a3 3 0 003-3V5a3 3 0 00-3-3H5zm10 8H7a3 3 0 110-6h8a3 3 0 010 6zM7 6a1 1 0 000 2h8a1 1 0 100-2H7zm-2 7a1 1 0 100 2 1 1 0 000-2zm4 0a1 1 0 100 2 1 1 0 000-2zm4 0a1 1 0 100 2 1 1 0 000-2zm-8 4a1 1 0 100 2 1 1 0 000-2zm4 0a1 1 0 100 2 1 1 0 000-2zm8-4a1 1 0 100 2 1 1 0 000-2zm1 5a1 1 0 00-1-1h-4a1 1 0 000 2h4a1 1 0 001-1z" fill="#D1A54D"/></svg>