<?xml version="1.0" encoding="utf-8"?><svg width="32" height="32" fill="none" xmlns="http://www.w3.org/2000/svg" viewBox="0 0 32 32"><path d="M25.333 8h-2.666A6.67 6.67 0 0016 1.333 6.67 6.67 0 009.333 8H6.667A2.675 2.675 0 004 10.667v16c0 1.466 1.2 2.666 2.667 2.666h18.666c1.467 0 2.667-1.2 2.667-2.666v-16C28 9.2 26.8 8 25.333 8zM16 4c2.213 0 4 1.787 4 4h-8c0-2.213 1.787-4 4-4zm0 13.333a6.654 6.654 0 01-6.453-5c-.227-.84.426-1.666 1.293-1.666.627 0 1.133.453 1.307 1.066A3.996 3.996 0 0016 14.667c1.84 0 3.387-1.24 3.853-2.934.174-.613.68-1.066 1.307-1.066a1.34 1.34 0 011.293 1.666 6.654 6.654 0 01-6.453 5z" fill="#27AE60"/></svg>