<?xml version="1.0" encoding="utf-8"?><svg width="48" height="49" fill="none" xmlns="http://www.w3.org/2000/svg" viewBox="0 0 48 49"><g clip-path="url(#apclip0)"><path d="M14 48.5a4 4 0 100-8 4 4 0 000 8zM34 48.5a4 4 0 100-8 4 4 0 000 8z" fill="#BB8E34"/><path d="M47.37 3.172a2 2 0 00-2.828 0L34.224 13.5l-3.102-3.238a1.999 1.999 0 00-3.442 1.346 2 2 0 00.558 1.426l3.228 3.358a3.744 3.744 0 002.69 1.2h.066a3.747 3.747 0 002.67-1.106L47.37 6a2 2 0 000-2.828z" fill="#27AE60"/><path d="M43.8 18.532a2.001 2.001 0 00-2.324 1.614l-.256 1.418a6 6 0 01-5.906 4.936H10.836l-1.88-16H22a2 2 0 000-4H8.484L8.4 5.796A6 6 0 002.444.5H2a2 2 0 000 4h.444A2 2 0 014.43 6.266l2.752 23.4a10 10 0 009.932 8.834H38a2 2 0 000-4H17.114a6 6 0 01-5.658-4h23.858a10 10 0 009.842-8.226l.256-1.42a2 2 0 00-1.612-2.322z" fill="#BB8E34"/></g><defs><clipPath id="apclip0"><path fill="#fff" transform="translate(0 .5)" d="M0 0h48v48H0z"/></clipPath></defs></svg>