<?xml version="1.0" encoding="utf-8"?><svg width="37" height="36" fill="none" xmlns="http://www.w3.org/2000/svg" viewBox="0 0 37 36"><path d="M29.65 12H25.9V9c0-1.65-1.35-3-3-3h-18c-1.65 0-3 1.35-3 3v13.5c0 1.65 1.35 3 3 3 0 2.49 2.01 4.5 4.5 4.5s4.5-2.01 4.5-4.5h9c0 2.49 2.01 4.5 4.5 4.5s4.5-2.01 4.5-4.5h1.5c.825 0 1.5-.675 1.5-1.5v-4.995c0-.645-.21-1.275-.6-1.8L30.85 12.6a1.52 1.52 0 00-1.2-.6zM9.4 27c-.825 0-1.5-.675-1.5-1.5S8.575 24 9.4 24s1.5.675 1.5 1.5-.675 1.5-1.5 1.5zm20.25-12.75L32.59 18H25.9v-3.75h3.75zM27.4 27c-.825 0-1.5-.675-1.5-1.5s.675-1.5 1.5-1.5 1.5.675 1.5 1.5-.675 1.5-1.5 1.5z" fill="#27AE60"/></svg>