<?xml version="1.0" encoding="utf-8"?><svg width="37" height="36" fill="none" xmlns="http://www.w3.org/2000/svg" viewBox="0 0 37 36"><path d="M32.715 17.37l-13.5-13.5c-.54-.54-1.29-.87-2.115-.87H6.6c-1.65 0-3 1.35-3 3v10.5c0 .825.33 1.575.885 2.13l13.5 13.5c.54.54 1.29.87 2.115.87.825 0 1.575-.33 2.115-.885l10.5-10.5c.555-.54.885-1.29.885-2.115a3.03 3.03 0 00-.885-2.13zM8.85 10.5A2.247 2.247 0 016.6 8.25 2.247 2.247 0 018.85 6a2.247 2.247 0 012.25 2.25 2.247 2.247 0 01-2.25 2.25z" fill="#27AE60"/></svg>