<?xml version="1.0" encoding="utf-8"?><svg width="15" height="15" fill="inherit" xmlns="http://www.w3.org/2000/svg" viewBox="0 0 15 15"><g clip-path="url(#bcclip0)"><path d="M11.77.625H3.02A3.129 3.129 0 00-.105 3.75v7.5a3.129 3.129 0 003.125 3.125h8.75a3.129 3.129 0 003.125-3.125v-7.5A3.129 3.129 0 0011.77.625zm-8.75 1.25h8.75a1.875 1.875 0 011.737 1.18L8.721 7.84a1.88 1.88 0 01-2.652 0L1.282 3.054A1.875 1.875 0 013.02 1.875zm8.75 11.25H3.02a1.875 1.875 0 01-1.875-1.875V4.687l4.04 4.038a3.13 3.13 0 004.42 0l4.04-4.037v6.562a1.875 1.875 0 01-1.875 1.875z" stroke="inherit"/></g><defs><clipPath id="bcclip0"><path fill="#fff" transform="translate(-.105)" d="M0 0h15v15H0z"/></clipPath></defs></svg>