<?xml version="1.0" encoding="utf-8"?><svg width="37" height="36" fill="none" xmlns="http://www.w3.org/2000/svg" viewBox="0 0 37 36"><path d="M28.8 7.5h-3V6c0-.825-.675-1.5-1.5-1.5h-12c-.825 0-1.5.675-1.5 1.5v1.5h-3c-1.65 0-3 1.35-3 3V12c0 3.825 2.88 6.945 6.585 7.41a7.514 7.514 0 005.415 4.44v4.65h-4.5c-.825 0-1.5.675-1.5 1.5s.675 1.5 1.5 1.5h12c.825 0 1.5-.675 1.5-1.5s-.675-1.5-1.5-1.5h-4.5v-4.65a7.514 7.514 0 005.415-4.44C28.92 18.945 31.8 15.825 31.8 12v-1.5c0-1.65-1.35-3-3-3zM7.8 12v-1.5h3v5.73c-1.74-.63-3-2.28-3-4.23zm21 0c0 1.95-1.26 3.6-3 4.23V10.5h3V12z" fill="#27AE60"/></svg>