<?xml version="1.0" encoding="utf-8"?><svg width="40" height="41" fill="none" xmlns="http://www.w3.org/2000/svg" viewBox="0 0 40 41"><path d="M15 7.481v2.3a11.803 11.803 0 00-4.35-.833 11.622 11.622 0 00-8.25 3.416l5.55 5.55H9.8v1.85a7.791 7.791 0 005.183 2.267v3.783H10v5c0 1.834 1.5 3.334 3.333 3.334H30c2.767 0 5-2.234 5-5V7.48H15zm-1.85 10.683v-3.583h-3.8l-1.733-1.733a8.451 8.451 0 013.033-.567c2.233 0 4.317.867 5.9 2.433l2.35 2.35-.333.334a4.501 4.501 0 01-3.2 1.333c-.784 0-1.55-.2-2.217-.567zm18.517 10.984c0 .916-.75 1.666-1.667 1.666s-1.667-.75-1.667-1.666v-3.334h-10v-4.316a7.763 7.763 0 002.6-1.717l.334-.333 4.716 4.7h2.35v-2.35l-10-9.95v-1.034h13.334v18.334z" fill="#BB8E34"/></svg>