<?xml version="1.0" encoding="utf-8"?><svg width="13" height="13" fill="inherit" xmlns="http://www.w3.org/2000/svg" viewBox="0 0 13 13"><path d="M10.984.375H2.558C1.607.375.882 1.099.882 2.05v8.426c0 .951.725 1.676 1.676 1.676h8.426c.952 0 1.677-.725 1.677-1.676V2.05c0-.952-.725-1.676-1.677-1.676zM6.771 9.797c1.948 0 3.534-1.54 3.534-3.397 0-.317-.046-.68-.136-.952h.997v4.802a.454.454 0 01-.454.453H2.83a.454.454 0 01-.453-.453V5.403h1.042c-.09.317-.136.634-.136.951-.045 1.903 1.54 3.443 3.488 3.443zm0-1.359c-1.268 0-2.265-.996-2.265-2.22 0-1.223.997-2.22 2.265-2.22 1.269 0 2.265.997 2.265 2.22 0 1.269-.996 2.22-2.265 2.22zm4.35-4.847a.503.503 0 01-.5.498H9.354a.503.503 0 01-.498-.498V2.368c0-.272.227-.499.498-.499h1.269c.272 0 .498.227.498.499V3.59z"/></svg>