<?xml version="1.0" encoding="utf-8"?><svg width="16" height="14" fill="none" xmlns="http://www.w3.org/2000/svg" viewBox="0 0 16 14"><g clip-path="url(#bpclip0)"><path d="M13.667.833h-12c-.825 0-1.5.675-1.5 1.5v9c0 .825.675 1.5 1.5 1.5h12c.825 0 1.5-.675 1.5-1.5v-9c0-.825-.675-1.5-1.5-1.5zm-.3 3.188L8.462 7.088a1.486 1.486 0 01-1.59 0L1.967 4.021a.637.637 0 11.675-1.08l5.025 3.142 5.025-3.142a.637.637 0 11.675 1.08z" fill="#BB8E34"/></g><defs><clipPath id="bpclip0"><path fill="#fff" transform="translate(0 .5)" d="M0 0h16v13H0z"/></clipPath></defs></svg>