<?xml version="1.0" encoding="utf-8"?><svg width="34" height="20" fill="none" xmlns="http://www.w3.org/2000/svg" viewBox="0 0 34 20"><path d="M33.825 10c0 5.487-4.462 10-10 10-5.487 0-10-4.513-10-10s4.462-10 9.949-10c5.59 0 10.051 4.513 10.051 10z" fill="#798797"/><path d="M20.44 10.051c0-.718-.102-1.436-.205-2.102h-6.154c.052-.36.154-.667.257-1.077h5.487c-.103-.36-.256-.718-.41-1.077h-4.667c.154-.36.359-.667.564-1.077h3.539a7.008 7.008 0 00-.77-1.077h-1.948a9.675 9.675 0 011.025-1.026C15.415.975 13.056 0 10.44 0 5.004.154.492 4.513.492 10s4.461 10 10 10c2.615 0 4.923-1.026 6.717-2.615.36-.308.667-.667 1.026-1.077h-2.051a7.34 7.34 0 01-.718-1.026h3.487c.205-.308.41-.667.564-1.077h-4.666a5.243 5.243 0 01-.41-1.077h5.486a9.668 9.668 0 00.513-3.077z" fill="#798797"/><path d="M14.03 12.564l.154-.923c-.051 0-.154.051-.256.051-.36 0-.41-.205-.36-.307l.308-1.847h.564l.154-1.025h-.513l.103-.616h-1.077s-.615 3.488-.615 3.898c0 .615.359.923.871.923.308 0 .565-.103.667-.154zM14.389 10.871c0 1.487 1.026 1.846 1.846 1.846.77 0 1.128-.153 1.128-.153l.205-1.026s-.564.256-1.128.256c-1.18 0-.974-.871-.974-.871h2.154s.153-.667.153-.975c0-.666-.358-1.538-1.538-1.538-1.026-.051-1.846 1.128-1.846 2.461zm1.846-1.538c.564 0 .462.667.462.718h-1.18c.051-.051.154-.718.718-.718zM22.953 12.564l.205-1.18s-.513.257-.923.257c-.718 0-1.077-.564-1.077-1.23 0-1.283.616-1.95 1.385-1.95.513 0 .974.308.974.308l.154-1.128s-.615-.256-1.23-.256c-1.232 0-2.411 1.077-2.411 3.077 0 1.333.615 2.205 1.897 2.205.462.051 1.026-.103 1.026-.103zM8.235 8.36c-.718 0-1.282.205-1.282.205l-.154.923s.462-.206 1.18-.206c.359 0 .666.052.666.36 0 .205-.05.256-.05.256h-.462c-.923 0-1.898.359-1.898 1.59 0 .974.616 1.18 1.026 1.18.718 0 1.077-.462 1.128-.462l-.051.41h.872l.41-2.923c0-1.282-1.026-1.334-1.385-1.334zm.205 2.358c0 .154-.102 1.026-.718 1.026-.307 0-.41-.256-.41-.41 0-.257.154-.616.975-.616h.153zM10.646 12.667c.256 0 1.59.05 1.59-1.385 0-1.333-1.283-1.077-1.283-1.59 0-.256.205-.359.564-.359.154 0 .718.052.718.052l.154-.975s-.359-.102-1.026-.102c-.769 0-1.59.307-1.59 1.384 0 1.231 1.334 1.128 1.334 1.59 0 .308-.359.359-.615.359-.462 0-.975-.154-.975-.154l-.154.974c.103.103.41.206 1.283.206zM31.774 7.538l-.206 1.436s-.41-.513-1.025-.513c-.975 0-1.795 1.18-1.795 2.564 0 .872.41 1.744 1.333 1.744.616 0 1.026-.41 1.026-.41l-.051.359h1.076l.77-5.077-1.128-.103zm-.513 2.77c0 .563-.257 1.333-.872 1.333-.359 0-.564-.308-.564-.872 0-.872.359-1.385.872-1.385.359.052.564.308.564.923zM2.44 12.615l.616-3.795.102 3.795h.718L5.261 8.82l-.564 3.795h1.128l.872-5.077H4.953l-1.077 3.128-.051-3.128H2.286l-.871 5.077H2.44z" fill="#fff"/><path d="M18.85 12.616c.308-1.744.36-3.18 1.129-2.923.102-.667.256-.975.359-1.231h-.205c-.462 0-.872.615-.872.615l.102-.564h-1.025l-.667 4.103h1.18zM25.415 8.36c-.718 0-1.282.205-1.282.205l-.154.923s.461-.206 1.18-.206c.358 0 .666.052.666.36 0 .205-.051.256-.051.256h-.462c-.923 0-1.897.359-1.897 1.59 0 .974.615 1.18 1.025 1.18.718 0 1.077-.462 1.128-.462l-.05.41h.974l.41-2.923c0-1.282-1.128-1.334-1.487-1.334zm.256 2.358c0 .154-.102 1.026-.718 1.026-.308 0-.41-.256-.41-.41 0-.257.154-.616.974-.616h.154zM27.722 12.616c.308-1.744.36-3.18 1.128-2.923.103-.667.257-.975.36-1.231h-.206c-.461 0-.871.615-.871.615l.102-.564H27.21l-.666 4.103h1.18z" fill="#fff"/></svg>