<?xml version="1.0" encoding="utf-8"?><svg width="70" height="20" fill="none" xmlns="http://www.w3.org/2000/svg" viewBox="0 0 70 20"><path d="M62.903 0h-13.29c.774 4.387 5.032 8.516 9.677 8.516h10.581C70 8.13 70 7.484 70 7.096 70 3.227 66.774 0 62.903 0z" fill="#fff"/><path d="M50.774 9.29V20h6.452v-5.678h5.677c3.097 0 5.807-2.193 6.71-5.032H50.774zM28.065 0v19.871h5.677s1.42 0 2.194-1.42c3.87-7.612 5.032-9.935 5.032-9.935h.774v11.355h6.452V0h-5.678s-1.42.129-2.193 1.42C37.097 8 35.29 11.354 35.29 11.354h-.774V0h-6.451zM.968 20V.129h6.451s1.807 0 2.84 2.839c2.58 7.483 2.838 8.516 2.838 8.516s.516-1.807 2.838-8.516c1.033-2.84 2.84-2.84 2.84-2.84h6.45V20h-6.45V9.29H18L14.387 20h-2.839L7.936 9.29H7.16V20H.968z" fill="#798797"/></svg>