<?xml version="1.0" encoding="utf-8"?><svg width="37" height="36" fill="none" xmlns="http://www.w3.org/2000/svg" viewBox="0 0 37 36"><path d="M28.7 13.95V7.5c0-.825-.675-1.5-1.5-1.5h-1.5c-.825 0-1.5.675-1.5 1.5v2.4l-4.995-4.5c-.57-.51-1.44-.51-2.01 0L4.655 16.695c-.51.45-.195 1.305.495 1.305H7.7v10.5c0 .825.675 1.5 1.5 1.5h4.5c.825 0 1.5-.675 1.5-1.5V21h6v7.5c0 .825.675 1.5 1.5 1.5h4.5c.825 0 1.5-.675 1.5-1.5V18h2.55c.69 0 1.02-.855.495-1.305L28.7 13.95zM15.2 15c0-1.65 1.35-3 3-3s3 1.35 3 3h-6z" fill="#27AE60"/></svg>