<?xml version="1.0" encoding="utf-8"?><svg width="10" height="16" fill="inherit" xmlns="http://www.w3.org/2000/svg" viewBox="0 0 10 16"><path d="M9.203 9.727c.363-.363.415-.883.104-1.402-.26-.415-.727-.623-1.247-.52a1.755 1.755 0 00-.623.312c-1.61 1.091-3.791 1.039-5.401-.052l-.312-.155C1.153 7.65.581 7.754.27 8.273c-.364.52-.312 1.09.156 1.558.103.104.207.156.26.26l.051.052c.727.571 1.61.935 2.753 1.09l-.675.676-1.766 1.766c-.156.155-.364.415-.364.779 0 .467.26.934.727 1.142.156.104.312.104.468.104.26 0 .571-.104.779-.363l2.025-2.026.052-.052s.052 0 .052.052c.416.467.883.883 1.299 1.35l.623.624c.26.26.467.363.779.363.467.052.987-.26 1.195-.727a1.04 1.04 0 00-.26-1.246c-.52-.52-1.039-1.091-1.61-1.61l-.883-.883c.467-.052.987-.156 1.454-.364.78-.26 1.35-.623 1.818-1.09z"/><path d="M4.736 8.273c2.234 0 4.051-1.766 4.051-4 0-1.09-.415-2.128-1.194-2.908C6.813.586 5.827.171 4.788.171 2.555.17.79 1.989.738 4.17c0 1.09.415 2.077 1.194 2.856.727.83 1.714 1.246 2.804 1.246zM3.594 3.08a1.611 1.611 0 011.142-.467c.935 0 1.61.727 1.61 1.61 0 .935-.727 1.61-1.61 1.61-.935 0-1.61-.727-1.61-1.61 0-.415.156-.831.468-1.143z"/><path d="M9.203 9.727c.363-.363.415-.883.104-1.402-.26-.415-.727-.623-1.247-.52a1.755 1.755 0 00-.623.312c-1.61 1.091-3.791 1.039-5.401-.052l-.312-.155C1.153 7.65.581 7.754.27 8.273c-.364.52-.312 1.09.156 1.558.103.104.207.156.26.26l.051.052c.727.571 1.61.935 2.753 1.09l-.675.676-1.766 1.766c-.156.155-.364.415-.364.779 0 .467.26.934.727 1.142.156.104.312.104.468.104.26 0 .571-.104.779-.363l2.025-2.026.052-.052s.052 0 .052.052c.416.467.883.883 1.299 1.35l.623.624c.26.26.467.363.779.363.467.052.987-.26 1.195-.727a1.04 1.04 0 00-.26-1.246c-.52-.52-1.039-1.091-1.61-1.61l-.883-.883c.467-.052.987-.156 1.454-.364.78-.26 1.35-.623 1.818-1.09z"/></svg>