<?xml version="1.0" encoding="utf-8"?><svg width="91" height="19" fill="none" xmlns="http://www.w3.org/2000/svg" viewBox="0 0 91 19"><path d="M16.203 6.707l-4.463-.649-1.995-4.044a.565.565 0 00-1.009 0L6.74 6.058l-4.463.649a.562.562 0 00-.31.96l3.228 3.148-.763 4.446a.562.562 0 00.816.592l3.992-2.099 3.992 2.099a.562.562 0 00.816-.592l-.763-4.446 3.229-3.148a.562.562 0 00-.311-.96zM34.203 6.707l-4.463-.649-1.995-4.044a.565.565 0 00-1.009 0L24.74 6.058l-4.464.649a.562.562 0 00-.31.96l3.228 3.148-.762 4.446a.561.561 0 00.815.592l3.992-2.099 3.992 2.099a.562.562 0 00.816-.592l-.763-4.446 3.229-3.148a.562.562 0 00-.311-.96zM52.203 6.707l-4.463-.649-1.995-4.044a.565.565 0 00-1.009 0L42.74 6.058l-4.463.649a.562.562 0 00-.31.96l3.228 3.148-.763 4.446a.561.561 0 00.816.592l3.992-2.099 3.992 2.099a.562.562 0 00.816-.592l-.763-4.446 3.229-3.148a.562.562 0 00-.311-.96z" fill="#FFC416"/><path d="M65.291 6.28l.117.235.26.038 4.461.649s0 0 0 0a.06.06 0 01.054.067h0v.005a.062.062 0 01-.019.036l-3.228 3.147-.188.183.044.26.763 4.445h0a.062.062 0 01-.051.071h0a.06.06 0 01-.037-.005h-.002l-3.992-2.1-.233-.122-.233.122-3.992 2.1h0a.062.062 0 01-.09-.065v-.001l.763-4.446.045-.259-.189-.183-3.229-3.148h0a.064.064 0 01-.002-.089.061.061 0 01.035-.018h.001l4.463-.649.26-.038.117-.236 1.994-4.042s0 0 0 0a.065.065 0 01.085-.03h.001a.06.06 0 01.027.027h0l1.995 4.045zM83.291 6.28l.117.235.26.038 4.461.649s0 0 0 0a.06.06 0 01.054.067h0v.005a.062.062 0 01-.019.036l-3.228 3.147-.188.183.044.26.763 4.445h0a.062.062 0 01-.051.071h0a.06.06 0 01-.037-.005h-.002l-3.992-2.1-.233-.122-.233.122-3.992 2.1h0a.062.062 0 01-.09-.065v-.001l.763-4.446.045-.259-.189-.183-3.229-3.148h0a.064.064 0 01-.002-.089.061.061 0 01.035-.018h.001l4.463-.649.26-.038.117-.236 1.994-4.042s0 0 0 0a.065.065 0 01.085-.03h.001a.06.06 0 01.027.027h0l1.995 4.045z" stroke="#C4C4C4"/></svg>