<?xml version="1.0" encoding="utf-8"?><svg width="22" height="22" fill="none" xmlns="http://www.w3.org/2000/svg" viewBox="0 0 22 22"><g clip-path="url(#cbclip0)"><path d="M22 9.167a.906.906 0 00-.022-.2L20.786 3.59A4.554 4.554 0 0016.31 0H5.691a4.554 4.554 0 00-4.474 3.589L.022 8.968A.906.906 0 000 9.167v.916c0 .893.325 1.755.917 2.423v4.91A4.589 4.589 0 005.5 22h11a4.59 4.59 0 004.583-4.583v-4.911c.592-.668.918-1.53.917-2.423v-.916zm-20.167.1l1.174-5.28A2.733 2.733 0 015.69 1.833h.726v2.75a.917.917 0 101.833 0v-2.75h5.5v2.75a.917.917 0 001.833 0v-2.75h.726a2.734 2.734 0 012.684 2.154l1.174 5.28v.816a1.834 1.834 0 01-1.834 1.834h-.916a1.833 1.833 0 01-1.834-1.834.916.916 0 10-1.833 0 1.834 1.834 0 01-1.833 1.834h-1.834a1.833 1.833 0 01-1.833-1.834.917.917 0 10-1.833 0 1.834 1.834 0 01-1.834 1.834h-.916a1.833 1.833 0 01-1.834-1.834v-.816zm14.667 10.9h-11a2.75 2.75 0 01-2.75-2.75v-3.784c.3.078.607.117.917.117h.916a3.659 3.659 0 002.75-1.244 3.657 3.657 0 002.75 1.244h1.834a3.66 3.66 0 002.75-1.244 3.656 3.656 0 002.75 1.244h.916c.31 0 .618-.039.917-.117v3.784a2.75 2.75 0 01-2.75 2.75z" fill="#fff"/></g><defs><clipPath id="cbclip0"><path fill="#fff" d="M0 0h22v22H0z"/></clipPath></defs></svg>