<?xml version="1.0" encoding="utf-8"?><svg width="42" height="42" fill="none" xmlns="http://www.w3.org/2000/svg" viewBox="0 0 42 42"><path d="M27.025 23.717l-2.117-.242a1.66 1.66 0 00-1.366.475l-1.534 1.533a12.538 12.538 0 01-5.491-5.491l1.541-1.542c.359-.358.534-.858.475-1.367l-.241-2.1a1.668 1.668 0 00-1.659-1.475h-1.441c-.942 0-1.725.784-1.667 1.725.442 7.117 6.133 12.8 13.242 13.242.941.058 1.725-.725 1.725-1.667v-1.441a1.652 1.652 0 00-1.467-1.65z" fill="#F7F896"/><rect x=".5" y=".5" width="41" height="41" rx="5.5" stroke="#27AE60" stroke-linecap="round" stroke-linejoin="round"/></svg>