<?xml version="1.0" encoding="utf-8"?><svg width="15" height="11" fill="inherit" xmlns="http://www.w3.org/2000/svg" viewBox="0 0 15 11"><path d="M14.561 1.342a5.992 5.992 0 01-1.593.416c.554-.347 1.039-.901 1.247-1.525-.554.347-1.109.555-1.802.693a2.726 2.726 0 00-2.009-.9 2.78 2.78 0 00-2.771 2.77c0 .209 0 .417.069.624A8.167 8.167 0 011.952.51c-.209.416-.347.901-.347 1.386 0 .97.485 1.802 1.247 2.287-.485 0-.9-.139-1.247-.347 0 1.317.97 2.494 2.217 2.702-.208.07-.485.07-.762.07-.208 0-.347 0-.555-.07a2.766 2.766 0 002.633 1.94c-.97.762-2.148 1.178-3.464 1.178-.208 0-.416 0-.693-.07 1.247.763 2.702 1.248 4.296 1.248 5.127 0 7.898-4.226 7.898-7.899V2.59c.555-.208 1.04-.693 1.386-1.247z"/></svg>