<?xml version="1.0" encoding="utf-8"?><svg width="66" height="20" fill="none" xmlns="http://www.w3.org/2000/svg" viewBox="0 0 66 20"><path d="M61.587.286h-4.095c-1.238 0-2.19.381-2.762 1.62l-7.81 17.809h5.524s.952-2.381 1.143-2.953h6.762c.19.667.666 2.857.666 2.857h4.953L61.587.287zM55.11 12.762c.476-1.143 2.095-5.428 2.095-5.428 0 .095.476-1.143.666-1.81l.382 1.715s1.047 4.666 1.238 5.619H55.11v-.096zM47.301 13.333c0 4-3.619 6.667-9.238 6.667-2.38 0-4.667-.476-5.905-1.048l.762-4.38.667.285c1.714.762 2.857 1.048 4.952 1.048 1.524 0 3.143-.572 3.143-1.905 0-.857-.666-1.429-2.762-2.381-2-.952-4.666-2.476-4.666-5.238 0-3.81 3.714-6.381 8.952-6.381 2 0 3.714.381 4.762.857l-.762 4.19-.381-.38c-.952-.381-2.19-.762-4-.762-2 .095-2.952.952-2.952 1.714 0 .857 1.143 1.524 2.952 2.381 3.048 1.429 4.476 3.048 4.476 5.333z" fill="#798797"/><path d="M.825.477L.92.096h8.19c1.144 0 2 .38 2.286 1.619l1.81 8.571C11.396 5.715 7.206 2 .825.476z" fill="#fff"/><path d="M24.73.286l-8.286 19.333h-5.62L6.064 3.429c3.429 2.19 6.286 5.619 7.333 8l.572 2L19.11.19h5.619v.096zM26.92.19h5.238L28.825 19.62h-5.238L26.92.19z" fill="#798797"/></svg>