<?xml version="1.0" encoding="utf-8"?><svg width="15" height="9" fill="inherit" xmlns="http://www.w3.org/2000/svg" viewBox="0 0 15 9"><path d="M14.866 7.826c0-.058-.058-.058-.058-.115-.23-.46-.748-1.036-1.438-1.669-.345-.287-.518-.517-.633-.632-.172-.23-.172-.403-.115-.633.058-.173.288-.46.69-.978.23-.288.346-.46.518-.633.863-1.15 1.266-1.898 1.15-2.243l-.057-.058c-.057-.057-.115-.115-.23-.115-.115-.057-.287-.057-.46 0h-2.589l-.057.058c-.058.057-.058.057-.058.115-.23.633-.517 1.15-.805 1.725-.172.288-.345.576-.518.806-.172.23-.287.402-.402.518-.115.115-.23.172-.288.287-.057.058-.172.115-.172.058-.058 0-.116 0-.116-.058l-.172-.172c-.058-.058-.058-.173-.115-.288V3.51v-.345-.345-.633-.517-.403-.345c0-.058-.058-.173-.058-.23L8.711.52C8.653.463 8.538.463 8.48.405A5.16 5.16 0 007.445.29c-.92 0-1.553.058-1.783.173-.115.057-.23.115-.288.23-.115.115-.115.172-.057.172.288.058.518.173.633.345l.057.115c.058.058.058.173.115.346.058.172.058.345.058.575v.92c0 .288-.058.46-.058.633s-.057.288-.115.345c-.057.115-.057.173-.115.173 0 0 0 .057-.057.057-.058 0-.115.058-.23.058a.436.436 0 01-.23-.115.693.693 0 01-.288-.288 2.008 2.008 0 01-.345-.518c-.115-.23-.288-.46-.403-.805l-.115-.23c-.058-.115-.173-.345-.288-.633-.115-.287-.23-.518-.345-.805a.794.794 0 00-.172-.23H3.36S3.304.75 3.246.75c-.057 0-.115-.057-.172-.057H1.002C.773.693.658.75.6.808L.542.865V.98c0 .058 0 .115.058.23.288.69.633 1.381.978 2.071.345.633.69 1.208.92 1.61.288.404.518.806.806 1.151.287.345.46.576.517.69l.23.23.173.173c.115.115.288.288.518.46.23.173.517.346.805.518.288.173.633.288.978.403.403.115.748.172 1.093.115h.863a.522.522 0 00.402-.173l.058-.057c0-.058.057-.058.057-.115v-.23c0-.23 0-.403.058-.576.057-.172.057-.287.115-.402a.794.794 0 01.173-.23l.115-.115h.057c.115-.058.288 0 .403.115.172.115.345.287.46.46.115.172.287.345.518.575.23.23.402.403.517.46l.173.115c.115.058.23.115.403.173.172.057.287.057.402.057l1.956-.057c.173 0 .345-.058.46-.115.115-.058.173-.115.173-.23v-.23c-.115-.115-.115-.173-.115-.23z"/></svg>