<?xml version="1.0" encoding="utf-8"?><svg width="15" height="14" fill="inherit" xmlns="http://www.w3.org/2000/svg" viewBox="0 0 15 14"><path d="M14.771 5.403c0-.388-.05-.84-.05-1.357-.052-.517-.103-1.035-.154-1.487-.102-.517-.256-.905-.562-1.228a1.607 1.607 0 00-.971-.582C11.859.555 10.122.49 7.771.49c-2.35 0-4.138.065-5.263.259a1.607 1.607 0 00-.97.582c-.256.323-.46.71-.562 1.228a6.48 6.48 0 00-.154 1.487c-.05.517-.05.97-.05 1.357v2.974c0 .388.05.84.05 1.358.051.517.103 1.034.154 1.487.102.517.255.905.562 1.228.255.323.613.517.97.582 1.176.194 2.913.258 5.263.258s4.139-.064 5.263-.258c.358-.065.715-.259.97-.582.256-.323.46-.711.563-1.228.102-.453.153-.905.153-1.487.051-.517.051-.97.051-1.358V6.89 5.403zM10.48 7.407l-4.036 3.168a.353.353 0 01-.256.13c-.102 0-.153 0-.255-.065a.733.733 0 01-.256-.582v-6.4c0-.259.103-.453.256-.582a.385.385 0 01.51 0l4.037 3.168c.154.13.256.323.256.517s-.102.517-.256.646z"/></svg>