<?xml version="1.0" encoding="utf-8"?><svg width="26" height="27" fill="none" xmlns="http://www.w3.org/2000/svg" viewBox="0 0 26 27"><path d="M16.792 15.88h-.856l-.303-.292a7.042 7.042 0 001.603-5.785c-.51-3.011-3.023-5.416-6.056-5.785-4.583-.563-8.428 3.294-7.876 7.876.368 3.033 2.773 5.547 5.785 6.056a7.042 7.042 0 005.785-1.603l.293.303v.856l4.615 4.604c.444.444 1.159.444 1.603 0l.01-.01a1.131 1.131 0 000-1.604l-4.603-4.615zm-6.5 0a4.868 4.868 0 01-4.875-4.874 4.868 4.868 0 014.875-4.875 4.868 4.868 0 014.875 4.875 4.868 4.868 0 01-4.875 4.875zm0-7.583a.536.536 0 00-.542.542v1.625H8.125a.536.536 0 00-.542.542c0 .303.239.541.542.541H9.75v1.625c0 .304.238.542.542.542a.536.536 0 00.541-.542v-1.625h1.625a.536.536 0 00.542-.541.536.536 0 00-.542-.542h-1.625V8.84a.536.536 0 00-.541-.542z" fill="#C9CCCF"/></svg>