<?xml version="1.0" encoding="utf-8"?><svg viewBox="0 0 91 50" xmlns="http://www.w3.org/2000/svg" xmlns:xlink="http://www.w3.org/1999/xlink"><style>:root>svg{display:none}:root>svg:target{display:block}</style><svg fill="none" viewBox="0 0 25 24" id="account" xmlns="http://www.w3.org/2000/svg"><path d="M12.58 2c-5.52 0-10 4.48-10 10s4.48 10 10 10 10-4.48 10-10-4.48-10-10-10zm0 3c1.66 0 3 1.34 3 3s-1.34 3-3 3-3-1.34-3-3 1.34-3 3-3zm0 14.2a7.2 7.2 0 01-6-3.22c.03-1.99 4-3.08 6-3.08 1.99 0 5.97 1.09 6 3.08a7.2 7.2 0 01-6 3.22z" fill="#27AE60"/></svg><svg fill="none" viewBox="0 0 49 50" id="adv-1" xmlns="http://www.w3.org/2000/svg"><g clip-path="url(#abclip0)"><g clip-path="url(#abclip1)"><path fill-rule="evenodd" clip-rule="evenodd" d="M9.293 14.793a1 1 0 011.414 0l4.364 4.364a1 1 0 01-1.414 1.414L11 17.914V21.5c0 .944-.312 1.723-.553 2.324l-.019.047C10.171 24.515 10 24.97 10 25.5c0 .15.047.33.199.647.037.077.093.186.159.313.135.263.31.602.436.896.458 1.069.736 2.43.167 4.419a1 1 0 01-1.923-.55c.432-1.51.21-2.4-.082-3.081-.109-.254-.203-.433-.307-.632-.076-.145-.158-.3-.254-.502C8.203 26.608 8 26.1 8 25.5c0-.944.312-1.723.552-2.324l.02-.047C8.828 22.485 9 22.03 9 21.5v-3.586l-2.657 2.657a1 1 0 01-1.414-1.414l4.364-4.364zM38.293 14.793a1 1 0 011.414 0l4.364 4.364a1 1 0 01-1.414 1.414L40 17.914V21.5c0 .944-.312 1.723-.553 2.324l-.019.047C39.171 24.515 39 24.97 39 25.5c0 .15.047.33.199.647.037.077.093.186.159.313.135.263.31.602.436.896.458 1.069.736 2.43.168 4.419a1 1 0 01-1.924-.55c.432-1.51.21-2.4-.082-3.081a8.196 8.196 0 00-.307-.632c-.076-.145-.157-.3-.254-.502-.193-.402-.395-.91-.395-1.51 0-.944.312-1.723.552-2.324l.02-.047c.257-.644.428-1.098.428-1.629v-3.586l-2.657 2.657a1 1 0 01-1.414-1.414l4.364-4.364z" fill="#F7F896"/><path d="M13.925 14.384c.18 0 .355-.059.497-.169l8.232-6.329a.817.817 0 00-.995-1.295l-8.232 6.33a.817.817 0 00.498 1.463zM25.358 5.401a.817.817 0 11-1.634 0 .817.817 0 011.634 0z" fill="#27AE60"/><path fill-rule="evenodd" clip-rule="evenodd" d="M40.057 12.482a2.494 2.494 0 00-1.014-2.017L25.983.981a2.403 2.403 0 00-2.877-.005L10.03 10.473a2.487 2.487 0 00-1.005 2.009v1.271c.502-.28 1.1-.328 1.633-.142v-1.13a.863.863 0 01.341-.695l13.074-9.494a.774.774 0 01.943.005l13.057 9.482a.868.868 0 01.351.703v1.102a2.004 2.004 0 011.633.218v-1.32zm-.268 3.807l-.79-.789-.508.509a.817.817 0 001.298.28zM9.842 16.5a.814.814 0 01-.59-.252L10 15.5l.564.564a.817.817 0 01-.722.436zM8.93 33.19L4.415 47.867h40.253l-4.53-14.722c.367-.254.653-.632.785-1.096.045-.156.085-.31.12-.46.229.088.41.277.486.522l4.7 15.275a1.635 1.635 0 01-1.561 2.114H4.415a1.634 1.634 0 01-1.562-2.114l4.7-15.276a.817.817 0 01.45-.506c.033.645.379 1.24.927 1.587zm2.634-6.556h10.973c.095.317.215.59.32.807.104.219.193.388.269.532l.001.003c.055.105.103.197.15.291h-8.78c0 .902.73 1.634 1.633 1.634h7.507c-.02.296-.08.64-.196 1.05a2 2 0 00-.077.583H16.13a3.267 3.267 0 01-3.266-3.267H9.475l.478-1.633h1.61zm25.657 5.78a2.859 2.859 0 00-2.838-2.513H27.64a8.397 8.397 0 01-.22 1.633h6.963a1.225 1.225 0 110 2.45h-20.27a3.266 3.266 0 100 6.533h21.64a2.042 2.042 0 010 4.083H12.535a.817.817 0 100 1.633h23.216a3.675 3.675 0 000-7.35h-21.64a1.633 1.633 0 110-3.266h20.27a2.858 2.858 0 002.839-3.204zm-.308-4.147h-9.416a7.034 7.034 0 00-.42-1.305 8.943 8.943 0 00-.15-.328h9.246c.095.317.215.59.32.807.104.219.193.388.269.532l.001.003c.055.105.103.197.15.291zM19.64 21.331a1.97 1.97 0 01-.055-.053l.055-.055v.108zm6.17 5.303h-2.217c.052.134.11.26.165.376.096.202.178.357.254.502a8.159 8.159 0 01.358.755h2.1a6.162 6.162 0 00-.313-.91c-.1-.234-.23-.494-.347-.723zm.829 3.267h-2.002c-.02.382-.09.818-.236 1.324a.998.998 0 00-.038.309h2.027c.155-.6.231-1.141.249-1.633z" fill="#27AE60"/><path fill-rule="evenodd" clip-rule="evenodd" d="M24.657 14.793a1 1 0 011.414 0l4.364 4.364a1 1 0 11-1.414 1.414l-2.657-2.657V21.5c0 .944-.312 1.723-.553 2.324l-.019.047c-.257.644-.428 1.098-.428 1.629 0 .15.047.33.199.647.037.077.093.186.159.313.135.263.31.602.436.896.458 1.069.736 2.43.168 4.419a1 1 0 11-1.924-.55c.432-1.51.21-2.4-.082-3.081a8.194 8.194 0 00-.307-.632c-.076-.145-.158-.3-.254-.502-.192-.402-.395-.91-.395-1.51 0-.944.312-1.723.552-2.324l.02-.047c.257-.644.428-1.098.428-1.629v-3.586l-2.657 2.657a1 1 0 01-1.414-1.414l4.364-4.364z" fill="#222F3C"/><path fill-rule="evenodd" clip-rule="evenodd" d="M9.293 14.793a1 1 0 011.414 0l4.364 4.364a1 1 0 01-1.414 1.414L11 17.914V21.5c0 .944-.312 1.723-.553 2.324l-.019.047C10.171 24.515 10 24.97 10 25.5c0 .15.047.33.199.647.037.077.093.186.159.313.135.263.31.602.436.896.458 1.069.736 2.43.167 4.419a1 1 0 01-1.923-.55c.432-1.51.21-2.4-.082-3.081-.109-.254-.203-.433-.307-.632-.076-.145-.158-.3-.254-.502C8.203 26.608 8 26.1 8 25.5c0-.944.312-1.723.552-2.324l.02-.047C8.828 22.485 9 22.03 9 21.5v-3.586l-2.657 2.657a1 1 0 01-1.414-1.414l4.364-4.364zM38.293 14.793a1 1 0 011.414 0l4.364 4.364a1 1 0 01-1.414 1.414L40 17.914V21.5c0 .944-.312 1.723-.553 2.324l-.019.047C39.171 24.515 39 24.97 39 25.5c0 .15.047.33.199.647.037.077.093.186.159.313.135.263.31.602.436.896.458 1.069.736 2.43.168 4.419a1 1 0 01-1.924-.55c.432-1.51.21-2.4-.082-3.081a8.196 8.196 0 00-.307-.632c-.076-.145-.157-.3-.254-.502-.193-.402-.395-.91-.395-1.51 0-.944.312-1.723.552-2.324l.02-.047c.257-.644.428-1.098.428-1.629v-3.586l-2.657 2.657a1 1 0 01-1.414-1.414l4.364-4.364zM24.657 14.793a1 1 0 011.414 0l4.364 4.364a1 1 0 11-1.414 1.414l-2.657-2.657V21.5c0 .944-.312 1.723-.553 2.324l-.019.047c-.257.644-.428 1.098-.428 1.629 0 .15.047.33.199.647.037.077.093.186.159.313.135.263.31.602.436.896.458 1.069.736 2.43.168 4.419a1 1 0 11-1.924-.55c.432-1.51.21-2.4-.082-3.081a8.194 8.194 0 00-.307-.632c-.076-.145-.158-.3-.254-.502-.192-.402-.395-.91-.395-1.51 0-.944.312-1.723.552-2.324l.02-.047c.257-.644.428-1.098.428-1.629v-3.586l-2.657 2.657a1 1 0 01-1.414-1.414l4.364-4.364z" fill="#F7F896"/></g></g><defs><clipPath id="abclip0"><path fill="#fff" transform="translate(0 .5)" d="M0 0h49v49H0z"/></clipPath><clipPath id="abclip1"><path fill="#fff" transform="translate(0 .5)" d="M0 0h49v49H0z"/></clipPath></defs></svg><svg fill="none" viewBox="0 0 50 50" id="adv-2" xmlns="http://www.w3.org/2000/svg"><g clip-path="url(#acclip0)"><path d="M48.338 17.46L27.69 1.496a4.977 4.977 0 00-5.733.014L1.344 17.447a2.3 2.3 0 00-.895 2.624 2.611 2.611 0 002.333 1.734v24.517a3.27 3.27 0 003.267 3.267h37.567a3.27 3.27 0 003.267-3.267V21.805a2.611 2.611 0 002.333-1.734 2.291 2.291 0 00-.878-2.61zm-4.722 30.496H6.05a1.635 1.635 0 01-1.634-1.634V21.361L24.85 5.498l20.4 15.863v24.961a1.635 1.635 0 01-1.634 1.634zm4.047-28.392a.996.996 0 01-1.009.625h-.25L25.767 4.14c-.01-.007-.023-.009-.033-.016-.01-.008-.015-.018-.025-.025a1.665 1.665 0 00-1.81.04L3.26 20.19h-.25A.996.996 0 012 19.564a.693.693 0 01.325-.812l20.61-15.936a3.291 3.291 0 013.773-.014l20.648 15.963a.68.68 0 01.306.8z" fill="#27AE60"/><path d="M32.354 24.299a.817.817 0 00-.378 1.01 3.08 3.08 0 01-.613 2.603 2.823 2.823 0 01-2.382 1.249c-1.302-.071-1.599-.614-1.697-.792-.504-.921-.04-2.694.681-3.972 1.65-2.944-.796-5.502-1.584-6.215a3.23 3.23 0 00-.095-.077 54.752 54.752 0 00-7.474-4.791l-.002-.002-.003-.001a.817.817 0 00-.79 1.43c.314.546.53 1.143.635 1.764.042.165.078.306.106.398.244.847.36 1.725.344 2.606a9.143 9.143 0 01-1.59 4.735 29.385 29.385 0 01-2.56 3.33 34.854 34.854 0 00-2.45 3.135 8.54 8.54 0 00-.005 9.85c2.571 3.63 7.546 5.76 12.54 5.76 1.898.01 3.783-.315 5.57-.957a13.075 13.075 0 006.859-5.54c2.567-4.498 1.2-9.676-4.065-15.39a.903.903 0 00-1.047-.133zm-10.13 11.337c-.15-.105-.61-.426-.08-1.259.46-.588.943-1.153 1.45-1.693.076.337.191.665.342.976.705 1.449 2.454 2.45 4.146 3.42 1.626.93 3.307 1.894 3.578 3.005a2.06 2.06 0 01-.416 1.595 6.505 6.505 0 01-3.166 2.31c-2.284.845-5.686.965-7.769-.44a3.105 3.105 0 01-.782-.733A3.245 3.245 0 0119 40.521c.02-.201.122-.742.244-1.26.05.04.103.08.156.118a3.21 3.21 0 002.909.473c1.142-.398 1.462-1.07 1.53-1.564.183-1.33-1.314-2.443-1.615-2.652zm13.824 3.376a10.553 10.553 0 01-3.408 3.51c.587-.816.807-1.84.607-2.824-.437-1.793-2.428-2.933-4.354-4.036-1.477-.846-3.004-1.721-3.488-2.716a2.87 2.87 0 01-.274-.967 4.498 4.498 0 00-.025-.212 3.854 3.854 0 01-.045-.549.816.816 0 00-1.225-1.061l-.006.005a25.839 25.839 0 00-2.974 3.21c-.016.02-.045.061-.059.083-.852 1.335-.659 2.716.494 3.521.423.246.752.625.933 1.08 0 0-.073.12-.454.254a1.58 1.58 0 01-1.345-.21 1.058 1.058 0 01-.48-.524.817.817 0 00-.72-.815 1.245 1.245 0 00-.155-.01c-1.25.032-1.614 2.773-1.695 3.611a5.133 5.133 0 00.362 2.58 11.15 11.15 0 01-3.908-3.329 6.938 6.938 0 01.035-8 33.357 33.357 0 012.336-2.984 31.029 31.029 0 002.698-3.522 10.832 10.832 0 001.837-5.567 10.476 10.476 0 00-.409-3.091c-.025-.087-.056-.207-.092-.348a11.34 11.34 0 00-.035-.136 54.61 54.61 0 015.085 3.429c.563.508 2.315 2.314 1.257 4.203-.874 1.549-1.579 3.934-.69 5.557a3.385 3.385 0 003.04 1.638 4.393 4.393 0 003.789-1.914 5.45 5.45 0 00.866-1.78c3.61 4.493 4.453 8.495 2.502 11.914z" fill="#F7F896"/></g><defs><clipPath id="acclip0"><path fill="#fff" transform="translate(.333 .5)" d="M0 0h49v49H0z"/></clipPath></defs></svg><svg fill="none" viewBox="0 0 50 50" id="adv-3" xmlns="http://www.w3.org/2000/svg"><g clip-path="url(#adclip0)"><path d="M38.712 1.775a72.392 72.392 0 00-27.056 0A2.45 2.45 0 009.67 4.188v34.285a2.451 2.451 0 001.986 2.412c.97.184 1.941.338 2.913.482v1.687a2.44 2.44 0 001.999 2.413c.15.026.3.045.45.07v2.33a1.635 1.635 0 001.634 1.633h3.266a1.635 1.635 0 001.633-1.633V46.2c.544.018 1.089.036 1.633.036s1.089-.018 1.633-.036v1.667A1.635 1.635 0 0028.45 49.5h3.266a1.635 1.635 0 001.633-1.633v-2.33c.15-.025.301-.044.452-.07a2.44 2.44 0 001.998-2.413v-1.687a73.52 73.52 0 002.913-.481 2.45 2.45 0 001.986-2.413V4.188a2.45 2.45 0 00-1.986-2.413zM11.303 6.548a85.484 85.484 0 0127.762 0v29.564a85.465 85.465 0 01-27.762 0V6.548zm.657-3.168a70.78 70.78 0 0126.449 0c.384.077.66.416.656.808v.722a87.12 87.12 0 00-27.762 0v-.722a.817.817 0 01.657-.808zm9.958 44.487h-3.266v-2.074c1.087.147 2.176.247 3.266.32v1.754zm9.798 0H28.45v-1.753a48.55 48.55 0 003.266-.32v2.073zm2.45-4.813a.808.808 0 01-.654.805 46.98 46.98 0 01-16.656 0 .808.808 0 01-.654-.805v-1.473c2.98.38 5.979.573 8.982.58a72.31 72.31 0 008.982-.58v1.473zm4.243-3.773h-.001c-1.14.216-2.28.402-3.423.56h-.003l-.01.001a70.635 70.635 0 01-19.576 0l-.01-.001h-.003a74.736 74.736 0 01-3.423-.56.816.816 0 01-.657-.808v-.723a86.46 86.46 0 0013.88 1.129c4.65-.002 9.293-.38 13.882-1.129v.722a.816.816 0 01-.656.809z" fill="#27AE60"/><path d="M25.184 31.537c6.764 0 12.248-5.484 12.248-12.248 0-6.764-5.484-12.248-12.248-12.248-6.764 0-12.248 5.484-12.248 12.248.008 6.76 5.487 12.24 12.248 12.247zm0-22.863c5.863 0 10.615 4.753 10.615 10.615s-4.752 10.614-10.615 10.614c-5.862 0-10.615-4.752-10.615-10.614.007-5.86 4.755-10.608 10.615-10.615z" fill="#F7F896"/><path d="M20.285 20.105h2.784l-.67 7.651v.003c-.052.559.287 1.08.818 1.259.133.046.273.07.414.07.401.002.776-.199.998-.534l6.124-8.799a.817.817 0 00-.67-1.283h-2.784l.67-7.654a1.224 1.224 0 00-2.23-.794l-6.124 8.798a.817.817 0 00.67 1.283zm5.923-7.898l-.613 7.011a.816.816 0 00.814.887h2.111l-4.36 6.266.612-7.011a.817.817 0 00-.813-.888h-2.111l4.36-6.265z" fill="#F7F896"/><path d="M16.202 29.904a2.45 2.45 0 10.001 4.899 2.45 2.45 0 000-4.9zm0 3.266a.817.817 0 11.001-1.634.817.817 0 010 1.634zM34.166 29.904a2.45 2.45 0 100 4.899 2.45 2.45 0 000-4.9zm0 3.266a.817.817 0 110-1.634.817.817 0 010 1.634zM23.551 33.17h-1.633a.816.816 0 000 1.633h1.633a.817.817 0 100-1.633zM28.45 33.17h-1.633a.816.816 0 000 1.633h1.633a.817.817 0 100-1.633z" fill="#27AE60"/></g><defs><clipPath id="adclip0"><path fill="#fff" transform="translate(.667 .5)" d="M0 0h49v49H0z"/></clipPath></defs></svg><svg fill="none" viewBox="0 0 50 50" id="adv-5" xmlns="http://www.w3.org/2000/svg"><g clip-path="url(#aeclip0)"><path d="M22.5 16.833h4.9a.817.817 0 000-1.633h-4.9a.817.817 0 000 1.633zM25.766 45.416a.817.817 0 11-1.633 0 .817.817 0 011.633 0zM30.667 28.267a.817.817 0 11-1.634 0 .817.817 0 011.634 0z" fill="#F7F896"/><path fill-rule="evenodd" clip-rule="evenodd" d="M35.567 25v22.05a2.453 2.453 0 01-2.45 2.45H16.783a2.453 2.453 0 01-2.45-2.45V14.383a2.453 2.453 0 012.45-2.45h16.334a2.453 2.453 0 012.45 2.45V25zM16.783 13.567h16.334c.45 0 .816.365.816.816v4.084H15.967v-4.084c0-.45.366-.816.816-.816zm-.816 6.533h17.966v21.233H15.967V20.1zm17.15 27.767H16.783a.818.818 0 01-.816-.817v-4.083h17.966v4.083c0 .45-.366.816-.816.817z" fill="#27AE60"/><path d="M20.05 21.733h-1.633a.817.817 0 100 1.634h1.633a.817.817 0 000-1.634zM29.85 21.733h-6.533a.817.817 0 100 1.634h6.533a.817.817 0 100-1.634zM25.669 27.23c-.446.142-.737.57-.702 1.037 0 .076-.004.152-.01.228a2.42 2.42 0 01-.82 1.566 6.63 6.63 0 01-.93.67c-.454.27-.877.587-1.262.946a3.774 3.774 0 00-1.057 3.1 4.122 4.122 0 001.8 3.04c.263.166.568.253.879.25h2.673c.465.003.909-.193 1.22-.539 2.683-3.028 1.383-7.026.191-8.911-.704-1.116-1.356-1.568-1.982-1.386zm.571 9.203h-2.673l.008.013c-.61-.422-1-1.095-1.061-1.835a2.15 2.15 0 01.578-1.77c.306-.279.64-.524.995-.734.41-.246.798-.53 1.158-.845.494-.445.877-1.001 1.115-1.622.506.857.842 1.803.987 2.787a4.757 4.757 0 01-1.107 4.006z" fill="#F7F896"/><g clip-path="url(#aeclip1)"><path d="M48.338 17.46L27.689 1.496a4.977 4.977 0 00-5.733.014L1.345 17.447a2.3 2.3 0 00-.895 2.624 2.611 2.611 0 002.333 1.734v17.518a3.27 3.27 0 003.266 3.266h37.568a3.27 3.27 0 003.267-3.266V21.805a2.611 2.611 0 002.333-1.734 2.291 2.291 0 00-.878-2.61zm-4.722 23.496H6.048a1.635 1.635 0 01-1.633-1.633V21.36L24.85 5.498l20.4 15.863v17.962a1.635 1.635 0 01-1.634 1.633zm4.047-21.392a.997.997 0 01-1.009.625h-.25L25.766 4.14c-.01-.007-.022-.009-.032-.016-.01-.008-.015-.018-.026-.025a1.665 1.665 0 00-1.81.04L3.261 20.19h-.25A.997.997 0 012 19.564a.693.693 0 01.325-.812l20.61-15.936a3.291 3.291 0 013.773-.014l20.648 15.963a.68.68 0 01.306.8z" fill="#27AE60"/></g></g><defs><clipPath id="aeclip0"><path fill="#fff" transform="translate(.333 .5)" d="M0 0h49v49H0z"/></clipPath><clipPath id="aeclip1"><path fill="#fff" transform="translate(.333 .5)" d="M0 0h49v49H0z"/></clipPath></defs></svg><svg fill="none" viewBox="0 0 50 50" id="adv-6" xmlns="http://www.w3.org/2000/svg"><g clip-path="url(#afclip0)"><path d="M.488 4.995l3.268 5.718c.11.194.295.334.51.388l3.05.762L17.771 22.32l1.155-1.156-10.62-10.62a.815.815 0 00-.379-.215l-2.93-.735-2.782-4.871 2.386-2.386 4.873 2.785.736 2.93c.035.144.11.275.214.38l10.62 10.62 1.156-1.155L11.744 7.44l-.762-3.047a.818.818 0 00-.387-.512L4.875.614a.817.817 0 00-.98.131L.629 4.013a.817.817 0 00-.14.982z" fill="#F7F896"/><path d="M34.453 16.6L16.48 34.574l-1.155-1.155 17.973-17.972 1.155 1.155zM13.335 35.21a.816.816 0 00-.7-.397H7.732a.816.816 0 00-.7.396l-2.451 4.085a.817.817 0 000 .841l2.45 4.085a.817.817 0 00.7.396h4.902c.287 0 .553-.15.7-.396l2.451-4.085a.817.817 0 000-.841l-2.45-4.085zm-1.163 7.772H8.195l-1.96-3.267 1.96-3.268h3.977l1.96 3.268-1.96 3.267z" fill="#27AE60"/><path fill-rule="evenodd" clip-rule="evenodd" d="M49.396 10.371c-.018 5.396-4.407 9.755-9.803 9.737a9.608 9.608 0 01-1.914-.198l-4.283 4.283-1.155 1.155-7.022 7.01-1.148 1.16-4.283 4.282c.13.63.197 1.271.199 1.915 0 5.414-4.39 9.803-9.803 9.803-5.415 0-9.804-4.39-9.804-9.803 0-5.415 4.39-9.804 9.804-9.804a9.646 9.646 0 011.914.199l17.89-17.891a9.75 9.75 0 01.1-4.343c1.326-5.232 6.642-8.4 11.874-7.075a.817.817 0 01.384 1.371L37.26 7.26l1.346 4.034 4.035 1.344 5.085-5.082a.817.817 0 011.37.38 9.77 9.77 0 01.3 2.436zM18.315 36.964l18.532-18.529h-.004a.818.818 0 01.776-.215 8.128 8.128 0 0010.129-8.38l-4.31 4.31a.817.817 0 01-.835.197l-4.902-1.634a.818.818 0 01-.517-.516L35.55 7.295a.816.816 0 01.198-.835l4.31-4.311a8.13 8.13 0 00-8.38 10.13.816.816 0 01-.215.776L12.933 31.584a.824.824 0 01-.776.215 8.224 8.224 0 105.94 5.941.818.818 0 01.217-.776z" fill="#27AE60"/><path fill-rule="evenodd" clip-rule="evenodd" d="M24.071 33.517l1.874 1.873a.817.817 0 001.155 0l.408-.408a.915.915 0 011.297 1.294l-.001.002-.409.408a.817.817 0 000 1.155l9.746 9.745a6.593 6.593 0 109.366-9.282l-.042-.042-9.745-9.745a.817.817 0 00-1.155 0l-.408.408a.915.915 0 01-1.297-1.294v-.001l.41-.409a.817.817 0 000-1.155l-1.874-1.873-1.155 1.155 1.307 1.304a2.55 2.55 0 003.594 3.59l9.168 9.175c.1.1.193.205.283.312l-6.985 6.985a4.805 4.805 0 01-.312-.283l-9.175-9.175a2.55 2.55 0 00-3.595-3.59l-1.307-1.307-1.148 1.158zm16.995 14.05a4.963 4.963 0 003.486 0 4.954 4.954 0 002.894-6.38l-6.38 6.38z" fill="#F7F896"/><path d="M42.623 41.587l-1.156 1.156-8.169-8.17 1.155-1.155 8.17 8.17z" fill="#F7F896"/></g><defs><clipPath id="afclip0"><path fill="#fff" transform="translate(.333 .5)" d="M0 0h49v49H0z"/></clipPath></defs></svg><svg fill="none" viewBox="0 0 50 50" id="adv-7" xmlns="http://www.w3.org/2000/svg"><g clip-path="url(#agclip0)"><path d="M48.672 17.46L28.023 1.496a4.977 4.977 0 00-5.733.014L1.678 17.447a2.3 2.3 0 00-.896 2.624 2.611 2.611 0 002.333 1.734v24.517a3.27 3.27 0 003.267 3.267H43.95a3.27 3.27 0 003.267-3.267V21.805a2.611 2.611 0 002.333-1.734 2.291 2.291 0 00-.878-2.61zM43.95 47.956H6.382a1.635 1.635 0 01-1.633-1.634V21.361L25.183 5.498l20.4 15.863v24.961a1.635 1.635 0 01-1.633 1.634zm4.047-28.392a.996.996 0 01-1.01.625h-.25L26.1 4.14c-.01-.007-.023-.009-.032-.016-.01-.008-.016-.018-.026-.025a1.665 1.665 0 00-1.81.04L3.595 20.19h-.251a.996.996 0 01-1.009-.625.693.693 0 01.325-.812L23.27 2.816a3.291 3.291 0 013.773-.014L47.69 18.765a.68.68 0 01.307.8z" fill="#27AE60"/><path d="M19.088 27.605l7.579-10.406 7.578 10.406c4.513 6.196.087 14.895-7.578 14.895-7.666 0-12.092-8.699-7.579-14.895z" stroke="#F7F896" stroke-width="2"/><path fill-rule="evenodd" clip-rule="evenodd" d="M12.848 25.277l4.935-6.777 3.884 5.332-1.423 1.445-2.46-3.38-3.32 4.557c-1.976 2.713-.037 6.523 3.32 6.523v2c-4.993 0-7.875-5.665-4.936-9.7z" fill="#F7F896"/><path d="M26.274 37.977c-1.666 0-2.982-.939-3.644-2.216-.3-.577-1.016-.933-1.587-.62-.384.21-.579.661-.41 1.065.889 2.138 2.961 3.77 5.642 3.77 1.81 0 3.345-.745 4.423-1.888.319-.339.276-.863-.047-1.196-.438-.45-1.187-.357-1.655.061a4.04 4.04 0 01-2.721 1.024z" fill="#F7F896"/></g><defs><clipPath id="agclip0"><path fill="#fff" transform="translate(.667 .5)" d="M0 0h49v49H0z"/></clipPath></defs></svg><svg fill="none" viewBox="0 0 50 50" id="adv-8" xmlns="http://www.w3.org/2000/svg"><g clip-path="url(#ahclip0)"><path d="M45.583 7.87H4.75a4.088 4.088 0 00-4.083 4.083v26.133a4.088 4.088 0 004.083 4.083h40.833a4.088 4.088 0 004.084-4.083V11.953a4.088 4.088 0 00-4.084-4.084zm2.45 30.216a2.453 2.453 0 01-2.45 2.45H4.75a2.453 2.453 0 01-2.45-2.45V11.953a2.453 2.453 0 012.45-2.45h40.833a2.453 2.453 0 012.45 2.45v26.133z" fill="#27AE60"/><path d="M43.95 13.586h-8.167a2.453 2.453 0 00-2.45 2.45v18.783a2.453 2.453 0 002.45 2.45h8.167a2.453 2.453 0 002.45-2.45V16.036a2.453 2.453 0 00-2.45-2.45zm.817 21.233c0 .451-.366.816-.817.817h-8.167a.818.818 0 01-.816-.817V16.036c0-.451.366-.816.816-.817h8.167c.45 0 .816.366.817.817v18.783z" fill="#27AE60"/><path d="M42.894 17.908a.818.818 0 00-1.154 0l-.224.224a3.234 3.234 0 00-1.65-.463 3.271 3.271 0 00-3.266 3.267c.003.58.163 1.15.463 1.649l-.224.224a.816.816 0 101.155 1.154l.224-.224c.498.3 1.068.46 1.649.464a3.27 3.27 0 003.267-3.267 3.233 3.233 0 00-.463-1.649l.223-.224a.816.816 0 000-1.155zm-3.027 4.661c-.433 0-.848-.171-1.153-.477l-.001-.002-.002-.002a1.632 1.632 0 012.309-2.308v.002h.002a1.633 1.633 0 01-1.155 2.787zM42.894 26.892a.817.817 0 00-1.154 0l-.224.223a3.23 3.23 0 00-1.65-.463A3.27 3.27 0 0036.6 29.92c.003.581.163 1.151.463 1.649l-.224.224a.816.816 0 101.155 1.154l.224-.223c.498.3 1.068.46 1.649.463a3.27 3.27 0 003.267-3.267 3.234 3.234 0 00-.463-1.649l.223-.224a.816.816 0 000-1.154zm-3.027 4.66c-.433 0-.848-.17-1.153-.477l-.001-.002-.002-.001a1.632 1.632 0 012.309-2.308l.002.002a1.633 1.633 0 01-1.155 2.786zM31.205 28.636a.794.794 0 00.072-.277c.564-2.191.564-4.489 0-6.68a.793.793 0 00-.072-.277 13.78 13.78 0 00-1.311-3.206.808.808 0 00-.123-.201 13.966 13.966 0 00-2.673-3.272.8.8 0 00-.19-.173 13.808 13.808 0 00-18.182 0 .8.8 0 00-.19.173 13.97 13.97 0 00-2.674 3.272.794.794 0 00-.123.201 13.795 13.795 0 00-1.311 3.206.81.81 0 00-.072.277 13.391 13.391 0 000 6.68c.007.096.032.19.072.277.3 1.12.741 2.197 1.311 3.206.031.073.072.14.123.202a13.97 13.97 0 002.673 3.27.8.8 0 00.191.174 13.808 13.808 0 0018.181 0 .8.8 0 00.19-.173 13.966 13.966 0 002.674-3.271.808.808 0 00.123-.202 13.78 13.78 0 001.311-3.206zm-5.088 5.366h-7.483V32.37h8.96a12.308 12.308 0 01-1.477 1.633zM6.99 19.302H17v1.634H6.28a12.2 12.2 0 01.71-1.634zm2.526-3.266H17v1.633H8.04c.443-.587.937-1.134 1.477-1.633zm9.117 9.8h11.391c-.032.548-.1 1.094-.205 1.633H18.634v-1.633zM17 27.469H5.814a12.253 12.253 0 01-.206-1.633H17v1.633zm1.634-3.266v-1.634H29.82c.105.54.173 1.085.205 1.634H18.634zm0-3.267v-1.634h10.009c.276.527.513 1.073.709 1.634H18.634zm0-3.267v-1.633h7.483c.54.5 1.034 1.046 1.476 1.633h-8.96zm0-3.267v-1.591c1.854.12 3.657.665 5.268 1.591h-5.268zm-1.634 0h-5.268A12.143 12.143 0 0117 12.811v1.591zm0 8.167v1.634H5.608c.032-.549.1-1.095.206-1.634H17zm0 6.534v1.633H6.99a12.183 12.183 0 01-.709-1.634h10.72zm0 3.266v1.633H9.517c-.54-.499-1.034-1.046-1.477-1.633H17zm0 3.267v1.592a12.143 12.143 0 01-5.268-1.592H17zm1.634 0h5.268a12.145 12.145 0 01-5.268 1.592v-1.592zm0-4.9v-1.634h10.718a12.187 12.187 0 01-.71 1.634H18.635z" fill="#F7F896"/></g><defs><clipPath id="ahclip0"><path fill="#fff" transform="translate(.667 .5)" d="M0 0h49v49H0z"/></clipPath></defs></svg><svg fill="none" viewBox="0 0 50 50" id="adv-9" xmlns="http://www.w3.org/2000/svg"><g clip-path="url(#aiclip0)"><path fill-rule="evenodd" clip-rule="evenodd" d="M12.141 31.552h1.39a3.265 3.265 0 003.265 3.267H35.05a1.225 1.225 0 110 2.45H14.78a3.266 3.266 0 00-3.267 3.267h1.633c0-.903.731-1.634 1.633-1.634h20.27a2.858 2.858 0 100-5.716H16.797a1.633 1.633 0 01-1.633-1.634h23.11l-.286-1.633h-7.88v-8.983a3.27 3.27 0 00-3.266-3.267h-3.266a3.27 3.27 0 00-3.267 3.267v8.983H12.62l-.479 1.633zm9.8-1.633h6.533v-8.983a1.635 1.635 0 00-1.633-1.633h-3.266a1.635 1.635 0 00-1.634 1.633v8.983z" fill="#27AE60"/><path fill-rule="evenodd" clip-rule="evenodd" d="M9.692 17.14l1.633.892v-2.265a.863.863 0 01.341-.696L24.74 5.577a.774.774 0 01.944.005l13.056 9.482a.869.869 0 01.352.703v2.265l1.633-.892v-1.373a2.494 2.494 0 00-1.015-2.017L26.65 4.266a2.403 2.403 0 00-2.878-.005l-13.075 9.497a2.487 2.487 0 00-1.005 2.009v1.374z" fill="#27AE60"/><path fill-rule="evenodd" clip-rule="evenodd" d="M4.818 26.583h.79V17.6a1.635 1.635 0 011.634-1.634h3.266a1.635 1.635 0 011.633 1.633v8.984h.79a1.641 1.641 0 011.497.959 1.707 1.707 0 01-.24 1.835l-2.863 3.376-1.633 1.753a1.689 1.689 0 01-2.074-.347l-4.062-4.788a1.704 1.704 0 01-.234-1.83c.267-.585.852-.96 1.496-.958zm8.125 1.737l-4.057 4.783-4.08-4.783.009-.106 1.525.002h.085a.817.817 0 00.817-.817v-9.8h3.266v9.8c0 .451.366.817.817.817h1.607l.01.104zM42.018 15.966h1.156a1.635 1.635 0 011.633 1.633v8.984h.79a1.641 1.641 0 011.497.959 1.706 1.706 0 01-.24 1.835l-4.055 4.78a1.69 1.69 0 01-2.075.35l-1.633-1.754-2.869-3.382a1.704 1.704 0 01-.234-1.83c.267-.585.852-.96 1.496-.958h.79v-8.984a1.635 1.635 0 011.633-1.633h2.112zm3.59 12.354l-4.056 4.783-4.08-4.783.008-.106 1.525.002h.086c.45 0 .816-.366.816-.817v-9.8h3.267v9.8c0 .451.365.817.816.817h1.608l.01.104z" fill="#F7F896"/><path d="M14.592 17.67c.18 0 .354-.06.497-.17l8.232-6.328a.817.817 0 00-.995-1.296l-8.233 6.33a.817.817 0 00.5 1.463zM26.024 8.686a.817.817 0 11-1.633 0 .817.817 0 011.633 0z" fill="#27AE60"/><rect x="10.233" y="40.9" width="29.2" height="6.2" rx="1.1" stroke="#27AE60" stroke-width="1.8"/></g><defs><clipPath id="aiclip0"><path fill="#fff" transform="translate(.667 .5)" d="M0 0h49v49H0z"/></clipPath></defs></svg><svg fill="none" viewBox="0 0 50 50" id="asd" xmlns="http://www.w3.org/2000/svg"><path d="M25.999 13.452L14.007 1.463a3.266 3.266 0 00-4.616 0L1.308 9.546a3.266 3.266 0 000 4.616l1.017 1.017v.005h.005l2.303 2.303v.006h.006l2.303 2.302 2.303 2.303h.004L11.55 24.4v.005h.005l1.728 1.727 1.17-1.134-1.156-1.155.576-.577a.816.816 0 00-1.154-1.155l-.576.578-1.155-1.155 1.154-1.154a.817.817 0 10-1.154-1.155L9.834 20.38l-1.156-1.155.576-.576A.816.816 0 108.1 17.494l-.576.576-1.154-1.154 1.154-1.155a.816.816 0 00-1.154-1.154L5.215 15.76l-1.154-1.155.577-.576a.817.817 0 10-1.155-1.155l-.576.577-.444-.444a1.633 1.633 0 010-2.308l8.082-8.082a1.633 1.633 0 012.306 0l11.992 11.99 1.156-1.156zM23.69 36.547l1.724 1.724v.004h.005l2.3 2.3v.007l.006.004 2.3 2.3v.005h.006l2.3 2.3v.005h.006l2.299 2.3.005.006.006.005 1.016 1.015a3.265 3.265 0 004.616 0l8.082-8.082a3.265 3.265 0 000-4.616l-11.973-11.98-1.155 1.154 11.99 11.992c.636.637.636 1.67 0 2.307l-8.083 8.082a1.633 1.633 0 01-2.306 0l-.445-.444.577-.571a.816.816 0 10-1.155-1.155l-.577.576-1.153-1.16 1.153-1.154a.817.817 0 10-1.155-1.154l-1.154 1.153-1.155-1.154.577-.576a.816.816 0 00-1.155-1.155l-.576.577-1.155-1.155 1.154-1.153a.817.817 0 10-1.154-1.155l-1.153 1.154-1.155-1.156.576-.576a.816.816 0 10-1.154-1.154l-.577.576-1.155-1.154-1.154 1.158z" fill="#F7F896"/><path fill-rule="evenodd" clip-rule="evenodd" d="M6.16 48.3a4.09 4.09 0 005.774 0l6.405-6.402 5.35-5.35 1.154-1.16 10.39-10.39 1.155-1.154 8.351-8.352a4.862 4.862 0 001.225-2.04l3.295-10.83A1.628 1.628 0 0047.226.58L36.392 3.876A4.85 4.85 0 0034.35 5.1l-8.352 8.352-1.156 1.156-10.39 10.39-1.17 1.134L1.527 37.888a4.087 4.087 0 000 5.773L6.16 48.3zm36.923-33.46L18.032 39.892l-3.464-3.464L39.62 11.376l3.463 3.464zM16.876 41.047l-2.927 2.928-8.083-8.083 2.928-2.927 8.082 8.082zM47.702 2.14l-1.08 3.54-2.463-2.462 3.543-1.078zM36.867 5.438l5.522-1.682 3.694 3.694-1.68 5.526a3.273 3.273 0 01-.27.607L36.26 5.707c.193-.11.396-.201.608-.27zm-1.866 1.32l3.464 3.463-25.052 25.052L9.95 31.81 35.001 6.758zM2.697 39.062l2.016-2.016 8.082 8.082-2.016 2.016a2.453 2.453 0 01-3.464 0l-4.618-4.618a2.45 2.45 0 010-3.464z" fill="#27AE60"/></svg><svg fill="inherit" viewBox="0 0 18 19" id="basket" xmlns="http://www.w3.org/2000/svg"><path d="M5.25 14.214c-.825 0-1.493.675-1.493 1.5s.668 1.5 1.493 1.5c.825 0 1.5-.675 1.5-1.5s-.675-1.5-1.5-1.5zM.75 2.964c0 .412.337.75.75.75h.75l2.7 5.692-1.013 1.83c-.547 1.005.173 2.228 1.313 2.228h8.25c.412 0 .75-.338.75-.75a.752.752 0 00-.75-.75H5.25l.825-1.5h5.587c.563 0 1.058-.308 1.313-.773l2.685-4.867a.747.747 0 00-.652-1.11h-11.1L3.405 2.64a.744.744 0 00-.675-.427H1.5a.752.752 0 00-.75.75zm12 11.25c-.825 0-1.492.675-1.492 1.5s.667 1.5 1.492 1.5 1.5-.675 1.5-1.5-.675-1.5-1.5-1.5z"/></svg><svg fill="none" viewBox="0 0 37 36" id="brigades" xmlns="http://www.w3.org/2000/svg"><path d="M14.3 22.5c-4.005 0-12 2.01-12 6V30c0 .825.675 1.5 1.5 1.5h21c.825 0 1.5-.675 1.5-1.5v-1.5c0-3.99-7.995-6-12-6zM7.91 13.5h12.795c.405 0 .735-.33.735-.735v-.03a.736.736 0 00-.735-.735H20.3c0-2.22-1.215-4.125-3-5.175V8.25c0 .42-.33.75-.75.75s-.75-.33-.75-.75V6.21c-.48-.12-.975-.21-1.5-.21s-1.02.09-1.5.21v2.04c0 .42-.33.75-.75.75s-.75-.33-.75-.75V6.825c-1.785 1.05-3 2.955-3 5.175h-.39a.736.736 0 00-.735.735v.045c0 .39.33.72.735.72zM14.3 19.5c2.79 0 5.115-1.92 5.79-4.5H8.51c.675 2.58 3 4.5 5.79 4.5zM33.77 9.345L35.165 8.1 34.04 6.15l-1.785.585c-.21-.165-.45-.3-.705-.405l-.375-1.83h-2.25l-.375 1.83c-.255.105-.495.24-.72.405l-1.77-.585-1.125 1.95 1.395 1.245c-.03.255-.03.525 0 .78L24.935 11.4l1.125 1.95 1.8-.57c.195.15.42.27.645.375l.42 1.845h2.25l.405-1.83c.24-.105.45-.225.66-.375l1.785.57 1.125-1.95-1.395-1.275c.045-.285.03-.54.015-.795zm-3.72 2.28a1.876 1.876 0 11.001-3.751 1.876 1.876 0 01-.001 3.751zM29.9 16.185l-1.275.42c-.15-.12-.315-.21-.495-.285L27.86 15h-1.605l-.27 1.305c-.18.075-.36.18-.51.285l-1.26-.42-.81 1.395.99.885a3.427 3.427 0 000 .555l-.99.915.81 1.395 1.29-.405c.15.105.3.195.465.27l.27 1.32h1.605l.285-1.305c.165-.075.33-.165.48-.27l1.275.405.81-1.395-.99-.915a3.427 3.427 0 000-.555l.99-.885-.795-1.395zm-2.85 3.9c-.735 0-1.335-.6-1.335-1.335s.6-1.335 1.335-1.335 1.335.6 1.335 1.335-.6 1.335-1.335 1.335z" fill="#27AE60"/></svg><svg fill="none" viewBox="0 0 16 17" id="buy" xmlns="http://www.w3.org/2000/svg"><path d="M5.86 6.874V4.38a1.667 1.667 0 013.333 0v2.494a2.99 2.99 0 001.334-2.494c0-1.66-1.34-3-3-3s-3 1.34-3 3A2.99 2.99 0 005.86 6.874zM9.527 8.52a1.316 1.316 0 00-.594-.14h-.406v-4c0-.553-.447-1-1-1-.554 0-1 .447-1 1v7.16l-2.294-.48a.752.752 0 00-.686.207.753.753 0 000 1.053l2.673 2.674c.253.246.593.386.947.386h4.066a1.33 1.33 0 001.32-1.146l.42-2.98a1.334 1.334 0 00-.726-1.38L9.527 8.52z" fill="#fff"/></svg><svg fill="none" viewBox="0 0 22 24" id="calculator" xmlns="http://www.w3.org/2000/svg"><path d="M17 24H5a5.006 5.006 0 01-5-5V5a5.006 5.006 0 015-5h12a5.006 5.006 0 015 5v14a5.006 5.006 0 01-5 5zM5 2a3 3 0 00-3 3v14a3 3 0 003 3h12a3 3 0 003-3V5a3 3 0 00-3-3H5zm10 8H7a3 3 0 110-6h8a3 3 0 010 6zM7 6a1 1 0 000 2h8a1 1 0 100-2H7zm-2 7a1 1 0 100 2 1 1 0 000-2zm4 0a1 1 0 100 2 1 1 0 000-2zm4 0a1 1 0 100 2 1 1 0 000-2zm-8 4a1 1 0 100 2 1 1 0 000-2zm4 0a1 1 0 100 2 1 1 0 000-2zm8-4a1 1 0 100 2 1 1 0 000-2zm1 5a1 1 0 00-1-1h-4a1 1 0 000 2h4a1 1 0 001-1z" fill="#D1A54D"/></svg><svg fill="none" viewBox="0 0 32 32" id="cart" xmlns="http://www.w3.org/2000/svg"><path d="M25.333 8h-2.666A6.67 6.67 0 0016 1.333 6.67 6.67 0 009.333 8H6.667A2.675 2.675 0 004 10.667v16c0 1.466 1.2 2.666 2.667 2.666h18.666c1.467 0 2.667-1.2 2.667-2.666v-16C28 9.2 26.8 8 25.333 8zM16 4c2.213 0 4 1.787 4 4h-8c0-2.213 1.787-4 4-4zm0 13.333a6.654 6.654 0 01-6.453-5c-.227-.84.426-1.666 1.293-1.666.627 0 1.133.453 1.307 1.066A3.996 3.996 0 0016 14.667c1.84 0 3.387-1.24 3.853-2.934.174-.613.68-1.066 1.307-1.066a1.34 1.34 0 011.293 1.666 6.654 6.654 0 01-6.453 5z" fill="#27AE60"/></svg><svg fill="none" viewBox="0 0 48 49" id="cart-check" xmlns="http://www.w3.org/2000/svg"><g clip-path="url(#apclip0)"><path d="M14 48.5a4 4 0 100-8 4 4 0 000 8zM34 48.5a4 4 0 100-8 4 4 0 000 8z" fill="#BB8E34"/><path d="M47.37 3.172a2 2 0 00-2.828 0L34.224 13.5l-3.102-3.238a1.999 1.999 0 00-3.442 1.346 2 2 0 00.558 1.426l3.228 3.358a3.744 3.744 0 002.69 1.2h.066a3.747 3.747 0 002.67-1.106L47.37 6a2 2 0 000-2.828z" fill="#27AE60"/><path d="M43.8 18.532a2.001 2.001 0 00-2.324 1.614l-.256 1.418a6 6 0 01-5.906 4.936H10.836l-1.88-16H22a2 2 0 000-4H8.484L8.4 5.796A6 6 0 002.444.5H2a2 2 0 000 4h.444A2 2 0 014.43 6.266l2.752 23.4a10 10 0 009.932 8.834H38a2 2 0 000-4H17.114a6 6 0 01-5.658-4h23.858a10 10 0 009.842-8.226l.256-1.42a2 2 0 00-1.612-2.322z" fill="#BB8E34"/></g><defs><clipPath id="apclip0"><path fill="#fff" transform="translate(0 .5)" d="M0 0h48v48H0z"/></clipPath></defs></svg><svg fill="inherit" viewBox="0 0 24 24" id="cart2" xmlns="http://www.w3.org/2000/svg"><g clip-path="url(#aqclip0)"><path d="M22.713 4.077A2.993 2.993 0 0020.41 3H4.242L4.2 2.649A3 3 0 001.222 0H1a1 1 0 000 2h.222a1 1 0 01.993.883l1.376 11.7A5 5 0 008.557 19H19a1 1 0 000-2H8.557a3 3 0 01-2.82-2h11.92a5 5 0 004.921-4.113l.785-4.354a2.994 2.994 0 00-.65-2.456zM21.4 6.178l-.786 4.354A3 3 0 0117.657 13H5.419l-.941-8H20.41a1 1 0 01.99 1.178zM7 24a2 2 0 100-4 2 2 0 000 4zM17 24a2 2 0 100-4 2 2 0 000 4z"/></g><defs><clipPath id="aqclip0"><path d="M0 0h24v24H0z"/></clipPath></defs></svg><svg fill="none" viewBox="0 0 18 18" id="check" xmlns="http://www.w3.org/2000/svg"><path d="M6.75 12.127L3.623 9l-1.065 1.057L6.75 14.25l9-9-1.057-1.058-7.943 7.935z" fill="#27AE60"/></svg><svg fill="none" viewBox="0 0 21 20" id="check2" xmlns="http://www.w3.org/2000/svg"><rect x=".5" width="20" height="20" rx="4" fill="#fff"/><path d="M8.5 15.21l-5-5L4.91 8.8l3.59 3.58 7.59-7.59 1.41 1.42-9 9z" fill="#BB8E34"/></svg><svg fill="none" viewBox="0 0 20 20" id="check3" xmlns="http://www.w3.org/2000/svg"><rect x=".5" y=".5" width="19" height="19" rx="3.5" fill="#fff"/><path d="M8 15.21l-5-5L4.41 8.8 8 12.38l7.59-7.59L17 6.21l-9 9z" fill="#BB8E34"/><rect x=".5" y=".5" width="19" height="19" rx="3.5" stroke="#EBEDEE"/></svg><svg fill="none" viewBox="0 0 18 18" id="clear" xmlns="http://www.w3.org/2000/svg"><path d="M13.42 4.283a.747.747 0 00-1.058 0l-3.668 3.66-3.667-3.667a.747.747 0 10-1.058 1.057l3.668 3.668-3.668 3.667a.747.747 0 101.058 1.058l3.667-3.668 3.668 3.668a.747.747 0 101.057-1.058L9.752 9.001l3.667-3.668a.752.752 0 000-1.05z" fill="#323232" fill-opacity=".2"/></svg><svg fill="none" viewBox="0 0 18 18" id="close" xmlns="http://www.w3.org/2000/svg"><path d="M13.42 4.283a.747.747 0 00-1.058 0l-3.667 3.66-3.668-3.667A.747.747 0 103.97 5.333l3.667 3.668-3.667 3.667a.747.747 0 101.057 1.058l3.668-3.668 3.667 3.668a.747.747 0 101.058-1.058L9.752 9.001l3.668-3.668a.752.752 0 000-1.05z" fill="#323232" fill-opacity=".2"/></svg><svg fill="none" viewBox="0 0 36 36" id="complexity" xmlns="http://www.w3.org/2000/svg"><path d="M32.505 27.255l-7.08-7.08c-.72-.72-1.485-.885-2.37-.885l-3.81 3.81c0 .885.165 1.665.885 2.37l7.08 7.08c.585.585 1.53.585 2.115 0l3.18-3.18c.585-.57.585-1.53 0-2.115z" fill="#27AE60"/><path d="M24.945 14.235c.585.585 1.53.585 2.115 0l1.065-1.065 3.18 3.18a4.5 4.5 0 000-6.36L27.06 5.745a1.494 1.494 0 00-2.115 0L23.88 6.81V3c0-.93-1.14-1.425-1.815-.75l-3.81 3.81c-.675.675-.18 1.815.75 1.815h3.81L21.75 8.94a1.494 1.494 0 000 2.115l.525.525-4.335 4.335-6.165-6.195v-1.5c0-.405-.165-.78-.435-1.065L8.31 4.11a1.494 1.494 0 00-2.115 0l-2.13 2.13a1.494 1.494 0 000 2.115l3.03 3.045c.285.285.66.435 1.065.435h1.5l6.195 6.195-1.275 1.275h-1.95c-.795 0-1.56.315-2.115.885l-7.08 7.08a1.494 1.494 0 000 2.115l3.18 3.18c.585.585 1.53.585 2.115 0l7.08-7.08c.57-.57.885-1.32.885-2.115v-1.935l7.725-7.725.525.525z" fill="#27AE60"/></svg><svg fill="none" viewBox="0 0 22 22" id="cursor" xmlns="http://www.w3.org/2000/svg"><g clip-path="url(#axclip0)"><path d="M13.757 22a2.756 2.756 0 01-2.457-1.5l-2.867-6.145-3.246 2.835a.917.917 0 01-1.52-.69V2.732A2.75 2.75 0 018.24.672l9.808 9.386a.917.917 0 01-.55 1.575l-4.095.374 2.81 6.021A2.75 2.75 0 0113.756 22zm-5.01-10.054a.917.917 0 01.831.529l3.37 7.22a.916.916 0 101.62-.862L11.193 11.6a.916.916 0 01.747-1.301l3.391-.31-8.333-7.967a.89.89 0 00-.958-.126.904.904 0 00-.54.836v11.751l2.645-2.31a.917.917 0 01.603-.227z" fill="#fff"/></g><defs><clipPath id="axclip0"><path fill="#fff" d="M0 0h22v22H0z"/></clipPath></defs></svg><svg fill="none" viewBox="0 0 37 36" id="delivery" xmlns="http://www.w3.org/2000/svg"><path d="M29.65 12H25.9V9c0-1.65-1.35-3-3-3h-18c-1.65 0-3 1.35-3 3v13.5c0 1.65 1.35 3 3 3 0 2.49 2.01 4.5 4.5 4.5s4.5-2.01 4.5-4.5h9c0 2.49 2.01 4.5 4.5 4.5s4.5-2.01 4.5-4.5h1.5c.825 0 1.5-.675 1.5-1.5v-4.995c0-.645-.21-1.275-.6-1.8L30.85 12.6a1.52 1.52 0 00-1.2-.6zM9.4 27c-.825 0-1.5-.675-1.5-1.5S8.575 24 9.4 24s1.5.675 1.5 1.5-.675 1.5-1.5 1.5zm20.25-12.75L32.59 18H25.9v-3.75h3.75zM27.4 27c-.825 0-1.5-.675-1.5-1.5s.675-1.5 1.5-1.5 1.5.675 1.5 1.5-.675 1.5-1.5 1.5z" fill="#27AE60"/></svg><svg fill="none" viewBox="0 0 37 36" id="discounts" xmlns="http://www.w3.org/2000/svg"><path d="M32.715 17.37l-13.5-13.5c-.54-.54-1.29-.87-2.115-.87H6.6c-1.65 0-3 1.35-3 3v10.5c0 .825.33 1.575.885 2.13l13.5 13.5c.54.54 1.29.87 2.115.87.825 0 1.575-.33 2.115-.885l10.5-10.5c.555-.54.885-1.29.885-2.115a3.03 3.03 0 00-.885-2.13zM8.85 10.5A2.247 2.247 0 016.6 8.25 2.247 2.247 0 018.85 6a2.247 2.247 0 012.25 2.25 2.247 2.247 0 01-2.25 2.25z" fill="#27AE60"/></svg><svg fill="inherit" viewBox="0 0 16 16" id="down" xmlns="http://www.w3.org/2000/svg"><path d="M5.413 6.193L8 8.78l2.587-2.587a.664.664 0 11.94.94l-3.06 3.06c-.26.26-.68.26-.94 0l-3.06-3.06a.664.664 0 010-.94.678.678 0 01.946 0z"/></svg><svg fill="none" viewBox="0 0 15 15" id="email" xmlns="http://www.w3.org/2000/svg"><g clip-path="url(#bbclip0)"><path d="M11.875.625h-8.75A3.129 3.129 0 000 3.75v7.5a3.129 3.129 0 003.125 3.125h8.75A3.129 3.129 0 0015 11.25v-7.5A3.129 3.129 0 0011.875.625v0zm-8.75 1.25h8.75a1.875 1.875 0 011.738 1.18L8.826 7.84a1.88 1.88 0 01-2.652 0L1.387 3.054a1.875 1.875 0 011.738-1.179v0zm8.75 11.25h-8.75A1.875 1.875 0 011.25 11.25V4.687l4.04 4.038a3.13 3.13 0 004.42 0l4.04-4.037v6.562a1.875 1.875 0 01-1.875 1.875z" fill="#fff" stroke="#fff"/></g><defs><clipPath id="bbclip0"><path fill="#fff" d="M0 0h15v15H0z"/></clipPath></defs></svg><svg fill="inherit" viewBox="0 0 15 15" id="email2" xmlns="http://www.w3.org/2000/svg"><g clip-path="url(#bcclip0)"><path d="M11.77.625H3.02A3.129 3.129 0 00-.105 3.75v7.5a3.129 3.129 0 003.125 3.125h8.75a3.129 3.129 0 003.125-3.125v-7.5A3.129 3.129 0 0011.77.625zm-8.75 1.25h8.75a1.875 1.875 0 011.737 1.18L8.721 7.84a1.88 1.88 0 01-2.652 0L1.282 3.054A1.875 1.875 0 013.02 1.875zm8.75 11.25H3.02a1.875 1.875 0 01-1.875-1.875V4.687l4.04 4.038a3.13 3.13 0 004.42 0l4.04-4.037v6.562a1.875 1.875 0 01-1.875 1.875z" stroke="inherit"/></g><defs><clipPath id="bcclip0"><path fill="#fff" transform="translate(-.105)" d="M0 0h15v15H0z"/></clipPath></defs></svg><svg fill="none" viewBox="0 0 37 36" id="experience" xmlns="http://www.w3.org/2000/svg"><path d="M28.8 7.5h-3V6c0-.825-.675-1.5-1.5-1.5h-12c-.825 0-1.5.675-1.5 1.5v1.5h-3c-1.65 0-3 1.35-3 3V12c0 3.825 2.88 6.945 6.585 7.41a7.514 7.514 0 005.415 4.44v4.65h-4.5c-.825 0-1.5.675-1.5 1.5s.675 1.5 1.5 1.5h12c.825 0 1.5-.675 1.5-1.5s-.675-1.5-1.5-1.5h-4.5v-4.65a7.514 7.514 0 005.415-4.44C28.92 18.945 31.8 15.825 31.8 12v-1.5c0-1.65-1.35-3-3-3zM7.8 12v-1.5h3v5.73c-1.74-.63-3-2.28-3-4.23zm21 0c0 1.95-1.26 3.6-3 4.23V10.5h3V12z" fill="#27AE60"/></svg><svg fill="none" viewBox="0 0 24 24" id="favorite" xmlns="http://www.w3.org/2000/svg"><path d="M19.66 3.99c-2.64-1.8-5.9-.96-7.66 1.1-1.76-2.06-5.02-2.91-7.66-1.1-1.4.96-2.28 2.58-2.34 4.29-.14 3.88 3.3 6.99 8.55 11.76l.1.09c.76.69 1.93.69 2.69-.01l.11-.1c5.25-4.76 8.68-7.87 8.55-11.75-.06-1.7-.94-3.32-2.34-4.28zM12.1 18.55l-.1.1-.1-.1C7.14 14.24 4 11.39 4 8.5 4 6.5 5.5 5 7.5 5c1.54 0 3.04.99 3.57 2.36h1.87C13.46 5.99 14.96 5 16.5 5c2 0 3.5 1.5 3.5 3.5 0 2.89-3.14 5.74-7.9 10.05z" fill="#C9CCCF"/></svg><svg fill="none" viewBox="0 0 25 24" id="favorites" xmlns="http://www.w3.org/2000/svg"><path d="M20.58 12c0-.76.43-1.42 1.06-1.76.6-.33.94-1.01.94-1.7V6c0-1.1-.9-2-2-2h-16c-1.1 0-1.99.89-1.99 1.99v2.55c0 .69.33 1.37.94 1.69A2.02 2.02 0 014.58 12c0 .76-.43 1.43-1.06 1.76-.6.33-.94 1.01-.94 1.7V18c0 1.1.9 2 2 2h16c1.1 0 2-.9 2-2v-2.54c0-.69-.34-1.37-.94-1.7-.63-.34-1.06-1-1.06-1.76zm-5.5 4.1l-2.5-1.6-2.5 1.61c-.38.24-.87-.11-.75-.55l.75-2.88-2.3-1.88a.503.503 0 01.29-.89l2.96-.17 1.08-2.75c.17-.42.77-.42.93 0l1.08 2.76 2.96.17c.45.03.64.6.29.89l-2.3 1.88.76 2.86c.12.45-.37.8-.75.55z" fill="#27AE60"/></svg><svg fill="inherit" viewBox="0 0 15 15" id="fb" xmlns="http://www.w3.org/2000/svg"><path d="M14.771 2.359c0-1.233-1.088-2.321-2.321-2.321H3.092C1.86.038.772 1.126.772 2.358v9.358c0 1.234 1.087 2.322 2.32 2.322h4.716V8.742H6.067V6.421h1.74v-.943c0-1.596 1.161-2.974 2.612-2.974h1.886v2.321h-1.886c-.218 0-.435.218-.435.653v.943h2.32v2.321h-2.32v5.296h2.466c1.233 0 2.321-1.088 2.321-2.322V2.36z"/></svg><svg fill="inherit" viewBox="0 0 11 16" id="fb2" xmlns="http://www.w3.org/2000/svg"><path d="M8.815 9l.45-2.896H6.455V4.225c0-.792.393-1.564 1.65-1.564h1.276V.196S8.224 0 7.117 0C4.804 0 3.293 1.387 3.293 3.897v2.207H.723V9h2.57v7h3.163V9h2.359z"/></svg><svg fill="none" viewBox="0 0 40 41" id="guarantee-1" xmlns="http://www.w3.org/2000/svg"><path d="M15 7.481v2.3a11.803 11.803 0 00-4.35-.833 11.622 11.622 0 00-8.25 3.416l5.55 5.55H9.8v1.85a7.791 7.791 0 005.183 2.267v3.783H10v5c0 1.834 1.5 3.334 3.333 3.334H30c2.767 0 5-2.234 5-5V7.48H15zm-1.85 10.683v-3.583h-3.8l-1.733-1.733a8.451 8.451 0 013.033-.567c2.233 0 4.317.867 5.9 2.433l2.35 2.35-.333.334a4.501 4.501 0 01-3.2 1.333c-.784 0-1.55-.2-2.217-.567zm18.517 10.984c0 .916-.75 1.666-1.667 1.666s-1.667-.75-1.667-1.666v-3.334h-10v-4.316a7.763 7.763 0 002.6-1.717l.334-.333 4.716 4.7h2.35v-2.35l-10-9.95v-1.034h13.334v18.334z" fill="#BB8E34"/></svg><svg fill="none" viewBox="0 0 40 41" id="guarantee-2" xmlns="http://www.w3.org/2000/svg"><path d="M31.667 24.148V10.814c0-1.833-1.5-3.333-3.334-3.333H5a3.343 3.343 0 00-3.333 3.333v13.334c0 1.833 1.5 3.333 3.333 3.333h23.333c1.834 0 3.334-1.5 3.334-3.333zm-3.334 0H5V10.814h23.333v13.334zM16.667 12.48c-2.767 0-5 2.233-5 5s2.233 5 5 5c2.766 0 5-2.233 5-5s-2.234-5-5-5zm21.666 0v18.333c0 1.834-1.5 3.334-3.333 3.334H6.667v-3.334H35V12.481h3.333z" fill="#BB8E34"/><path d="M31.667 24.148V10.814c0-1.833-1.5-3.333-3.334-3.333H5a3.343 3.343 0 00-3.333 3.333v13.334c0 1.833 1.5 3.333 3.333 3.333h23.333c1.834 0 3.334-1.5 3.334-3.333zm-3.334 0H5V10.814h23.333v13.334zM16.667 12.48c-2.767 0-5 2.233-5 5s2.233 5 5 5c2.766 0 5-2.233 5-5s-2.234-5-5-5zm21.666 0v18.333c0 1.834-1.5 3.334-3.333 3.334H6.667v-3.334H35V12.481h3.333z" fill="#BB8E34"/></svg><svg fill="none" viewBox="0 0 40 41" id="guarantee-3" xmlns="http://www.w3.org/2000/svg"><path d="M15 35.814h15a3.31 3.31 0 003.067-2.033l5.033-11.75c.15-.383.233-.783.233-1.217v-3.333c0-1.833-1.5-3.333-3.333-3.333H24.483l1.584-7.617.05-.533c0-.684-.284-1.317-.734-1.767l-1.766-1.75-10.984 10.983c-.6.6-.966 1.434-.966 2.35v16.667c0 1.833 1.5 3.333 3.333 3.333zm0-20l7.233-7.233-2.233 8.9h15v3.333l-5 11.667H15V15.814zm-13.333 0h6.666v20H1.667v-20z" fill="#BB8E34"/><path d="M15 35.814h15a3.31 3.31 0 003.067-2.033l5.033-11.75c.15-.383.233-.783.233-1.217v-3.333c0-1.833-1.5-3.333-3.333-3.333H24.483l1.584-7.617.05-.533c0-.684-.284-1.317-.734-1.767l-1.766-1.75-10.984 10.983c-.6.6-.966 1.434-.966 2.35v16.667c0 1.833 1.5 3.333 3.333 3.333zm0-20l7.233-7.233-2.233 8.9h15v3.333l-5 11.667H15V15.814zm-13.333 0h6.666v20H1.667v-20z" fill="#BB8E34"/></svg><svg fill="none" viewBox="0 0 40 41" id="guarantee-4" xmlns="http://www.w3.org/2000/svg"><path d="M20 2.481L5 9.148v10c0 9.25 6.4 17.9 15 20 8.6-2.1 15-10.75 15-20v-10L20 2.48zm11.667 16.667c0 7.533-4.967 14.483-11.667 16.55-6.7-2.067-11.667-9.017-11.667-16.55v-7.834L20 6.131l11.667 5.183v7.834zm-19.317.983L10 22.481l6.667 6.667L30 15.814l-2.35-2.366L16.667 24.43l-4.317-4.3z" fill="#BB8E34"/><path d="M20 2.481L5 9.148v10c0 9.25 6.4 17.9 15 20 8.6-2.1 15-10.75 15-20v-10L20 2.48zm11.667 16.667c0 7.533-4.967 14.483-11.667 16.55-6.7-2.067-11.667-9.017-11.667-16.55v-7.834L20 6.131l11.667 5.183v7.834zm-19.317.983L10 22.481l6.667 6.667L30 15.814l-2.35-2.366L16.667 24.43l-4.317-4.3z" fill="#BB8E34"/></svg><svg fill="inherit" viewBox="0 0 22 22" id="home" xmlns="http://www.w3.org/2000/svg"><path d="M9.167 17.417v-4.584h3.666v4.584a.92.92 0 00.917.916h2.75a.92.92 0 00.917-.916V11h1.558c.422 0 .623-.523.302-.797L11.614 3.3a.924.924 0 00-1.228 0l-7.663 6.903a.456.456 0 00.302.797h1.558v6.417a.92.92 0 00.917.916h2.75a.92.92 0 00.917-.916z"/></svg><svg fill="inherit" viewBox="0 0 13 13" id="ig" xmlns="http://www.w3.org/2000/svg"><path d="M10.984.375H2.558C1.607.375.882 1.099.882 2.05v8.426c0 .951.725 1.676 1.676 1.676h8.426c.952 0 1.677-.725 1.677-1.676V2.05c0-.952-.725-1.676-1.677-1.676zM6.771 9.797c1.948 0 3.534-1.54 3.534-3.397 0-.317-.046-.68-.136-.952h.997v4.802a.454.454 0 01-.454.453H2.83a.454.454 0 01-.453-.453V5.403h1.042c-.09.317-.136.634-.136.951-.045 1.903 1.54 3.443 3.488 3.443zm0-1.359c-1.268 0-2.265-.996-2.265-2.22 0-1.223.997-2.22 2.265-2.22 1.269 0 2.265.997 2.265 2.22 0 1.269-.996 2.22-2.265 2.22zm4.35-4.847a.503.503 0 01-.5.498H9.354a.503.503 0 01-.498-.498V2.368c0-.272.227-.499.498-.499h1.269c.272 0 .498.227.498.499V3.59z"/></svg><svg fill="none" viewBox="0 0 9 9" id="in-stock" xmlns="http://www.w3.org/2000/svg"><rect width="9" height="9" rx="4.5" fill="#27AE60"/></svg><svg fill="none" viewBox="0 0 16 14" id="mail2" xmlns="http://www.w3.org/2000/svg"><g clip-path="url(#bpclip0)"><path d="M13.667.833h-12c-.825 0-1.5.675-1.5 1.5v9c0 .825.675 1.5 1.5 1.5h12c.825 0 1.5-.675 1.5-1.5v-9c0-.825-.675-1.5-1.5-1.5zm-.3 3.188L8.462 7.088a1.486 1.486 0 01-1.59 0L1.967 4.021a.637.637 0 11.675-1.08l5.025 3.142 5.025-3.142a.637.637 0 11.675 1.08z" fill="#BB8E34"/></g><defs><clipPath id="bpclip0"><path fill="#fff" transform="translate(0 .5)" d="M0 0h16v13H0z"/></clipPath></defs></svg><svg fill="none" viewBox="0 0 19 18" id="map" xmlns="http://www.w3.org/2000/svg"><path d="M9.58 9c.825 0 1.5-.675 1.5-1.5S10.405 6 9.58 6s-1.5.675-1.5 1.5S8.755 9 9.58 9zm0-7.5c3.15 0 6 2.415 6 6.15 0 2.385-1.838 5.19-5.505 8.423a.763.763 0 01-.998 0C5.417 12.84 3.58 10.035 3.58 7.65c0-3.735 2.85-6.15 6-6.15z" fill="#27AE60"/></svg><svg fill="none" viewBox="0 0 34 20" id="mastercard" xmlns="http://www.w3.org/2000/svg"><path d="M33.825 10c0 5.487-4.462 10-10 10-5.487 0-10-4.513-10-10s4.462-10 9.949-10c5.59 0 10.051 4.513 10.051 10z" fill="#798797"/><path d="M20.44 10.051c0-.718-.102-1.436-.205-2.102h-6.154c.052-.36.154-.667.257-1.077h5.487c-.103-.36-.256-.718-.41-1.077h-4.667c.154-.36.359-.667.564-1.077h3.539a7.008 7.008 0 00-.77-1.077h-1.948a9.675 9.675 0 011.025-1.026C15.415.975 13.056 0 10.44 0 5.004.154.492 4.513.492 10s4.461 10 10 10c2.615 0 4.923-1.026 6.717-2.615.36-.308.667-.667 1.026-1.077h-2.051a7.34 7.34 0 01-.718-1.026h3.487c.205-.308.41-.667.564-1.077h-4.666a5.243 5.243 0 01-.41-1.077h5.486a9.668 9.668 0 00.513-3.077z" fill="#798797"/><path d="M14.03 12.564l.154-.923c-.051 0-.154.051-.256.051-.36 0-.41-.205-.36-.307l.308-1.847h.564l.154-1.025h-.513l.103-.616h-1.077s-.615 3.488-.615 3.898c0 .615.359.923.871.923.308 0 .565-.103.667-.154zM14.389 10.871c0 1.487 1.026 1.846 1.846 1.846.77 0 1.128-.153 1.128-.153l.205-1.026s-.564.256-1.128.256c-1.18 0-.974-.871-.974-.871h2.154s.153-.667.153-.975c0-.666-.358-1.538-1.538-1.538-1.026-.051-1.846 1.128-1.846 2.461zm1.846-1.538c.564 0 .462.667.462.718h-1.18c.051-.051.154-.718.718-.718zM22.953 12.564l.205-1.18s-.513.257-.923.257c-.718 0-1.077-.564-1.077-1.23 0-1.283.616-1.95 1.385-1.95.513 0 .974.308.974.308l.154-1.128s-.615-.256-1.23-.256c-1.232 0-2.411 1.077-2.411 3.077 0 1.333.615 2.205 1.897 2.205.462.051 1.026-.103 1.026-.103zM8.235 8.36c-.718 0-1.282.205-1.282.205l-.154.923s.462-.206 1.18-.206c.359 0 .666.052.666.36 0 .205-.05.256-.05.256h-.462c-.923 0-1.898.359-1.898 1.59 0 .974.616 1.18 1.026 1.18.718 0 1.077-.462 1.128-.462l-.051.41h.872l.41-2.923c0-1.282-1.026-1.334-1.385-1.334zm.205 2.358c0 .154-.102 1.026-.718 1.026-.307 0-.41-.256-.41-.41 0-.257.154-.616.975-.616h.153zM10.646 12.667c.256 0 1.59.05 1.59-1.385 0-1.333-1.283-1.077-1.283-1.59 0-.256.205-.359.564-.359.154 0 .718.052.718.052l.154-.975s-.359-.102-1.026-.102c-.769 0-1.59.307-1.59 1.384 0 1.231 1.334 1.128 1.334 1.59 0 .308-.359.359-.615.359-.462 0-.975-.154-.975-.154l-.154.974c.103.103.41.206 1.283.206zM31.774 7.538l-.206 1.436s-.41-.513-1.025-.513c-.975 0-1.795 1.18-1.795 2.564 0 .872.41 1.744 1.333 1.744.616 0 1.026-.41 1.026-.41l-.051.359h1.076l.77-5.077-1.128-.103zm-.513 2.77c0 .563-.257 1.333-.872 1.333-.359 0-.564-.308-.564-.872 0-.872.359-1.385.872-1.385.359.052.564.308.564.923zM2.44 12.615l.616-3.795.102 3.795h.718L5.261 8.82l-.564 3.795h1.128l.872-5.077H4.953l-1.077 3.128-.051-3.128H2.286l-.871 5.077H2.44z" fill="#fff"/><path d="M18.85 12.616c.308-1.744.36-3.18 1.129-2.923.102-.667.256-.975.359-1.231h-.205c-.462 0-.872.615-.872.615l.102-.564h-1.025l-.667 4.103h1.18zM25.415 8.36c-.718 0-1.282.205-1.282.205l-.154.923s.461-.206 1.18-.206c.358 0 .666.052.666.36 0 .205-.051.256-.051.256h-.462c-.923 0-1.897.359-1.897 1.59 0 .974.615 1.18 1.025 1.18.718 0 1.077-.462 1.128-.462l-.05.41h.974l.41-2.923c0-1.282-1.128-1.334-1.487-1.334zm.256 2.358c0 .154-.102 1.026-.718 1.026-.308 0-.41-.256-.41-.41 0-.257.154-.616.974-.616h.154zM27.722 12.616c.308-1.744.36-3.18 1.128-2.923.103-.667.257-.975.36-1.231h-.206c-.461 0-.871.615-.871.615l.102-.564H27.21l-.666 4.103h1.18z" fill="#fff"/></svg><svg fill="none" viewBox="0 0 70 20" id="mir" xmlns="http://www.w3.org/2000/svg"><path d="M62.903 0h-13.29c.774 4.387 5.032 8.516 9.677 8.516h10.581C70 8.13 70 7.484 70 7.096 70 3.227 66.774 0 62.903 0z" fill="#fff"/><path d="M50.774 9.29V20h6.452v-5.678h5.677c3.097 0 5.807-2.193 6.71-5.032H50.774zM28.065 0v19.871h5.677s1.42 0 2.194-1.42c3.87-7.612 5.032-9.935 5.032-9.935h.774v11.355h6.452V0h-5.678s-1.42.129-2.193 1.42C37.097 8 35.29 11.354 35.29 11.354h-.774V0h-6.451zM.968 20V.129h6.451s1.807 0 2.84 2.839c2.58 7.483 2.838 8.516 2.838 8.516s.516-1.807 2.838-8.516c1.033-2.84 2.84-2.84 2.84-2.84h6.45V20h-6.45V9.29H18L14.387 20h-2.839L7.936 9.29H7.16V20H.968z" fill="#798797"/></svg><svg fill="inherit" viewBox="0 0 11 8" id="next" xmlns="http://www.w3.org/2000/svg"><path d="M6.875.92l-.646.647L8.328 3.67H.917v.916h7.41L6.225 6.691l.651.646 3.208-3.208L6.875.92z"/></svg><svg fill="inherit" viewBox="0 0 7 13" id="next2" xmlns="http://www.w3.org/2000/svg"><path d="M-.41 11.405l4.58-4.59-4.58-4.59L1 .814l6 6-6 6-1.41-1.41z"/></svg><svg fill="none" viewBox="0 0 37 36" id="objects" xmlns="http://www.w3.org/2000/svg"><path d="M28.7 13.95V7.5c0-.825-.675-1.5-1.5-1.5h-1.5c-.825 0-1.5.675-1.5 1.5v2.4l-4.995-4.5c-.57-.51-1.44-.51-2.01 0L4.655 16.695c-.51.45-.195 1.305.495 1.305H7.7v10.5c0 .825.675 1.5 1.5 1.5h4.5c.825 0 1.5-.675 1.5-1.5V21h6v7.5c0 .825.675 1.5 1.5 1.5h4.5c.825 0 1.5-.675 1.5-1.5V18h2.55c.69 0 1.02-.855.495-1.305L28.7 13.95zM15.2 15c0-1.65 1.35-3 3-3s3 1.35 3 3h-6z" fill="#27AE60"/></svg><svg fill="inherit" viewBox="0 0 10 16" id="ok" xmlns="http://www.w3.org/2000/svg"><path d="M9.203 9.727c.363-.363.415-.883.104-1.402-.26-.415-.727-.623-1.247-.52a1.755 1.755 0 00-.623.312c-1.61 1.091-3.791 1.039-5.401-.052l-.312-.155C1.153 7.65.581 7.754.27 8.273c-.364.52-.312 1.09.156 1.558.103.104.207.156.26.26l.051.052c.727.571 1.61.935 2.753 1.09l-.675.676-1.766 1.766c-.156.155-.364.415-.364.779 0 .467.26.934.727 1.142.156.104.312.104.468.104.26 0 .571-.104.779-.363l2.025-2.026.052-.052s.052 0 .052.052c.416.467.883.883 1.299 1.35l.623.624c.26.26.467.363.779.363.467.052.987-.26 1.195-.727a1.04 1.04 0 00-.26-1.246c-.52-.52-1.039-1.091-1.61-1.61l-.883-.883c.467-.052.987-.156 1.454-.364.78-.26 1.35-.623 1.818-1.09z"/><path d="M4.736 8.273c2.234 0 4.051-1.766 4.051-4 0-1.09-.415-2.128-1.194-2.908C6.813.586 5.827.171 4.788.171 2.555.17.79 1.989.738 4.17c0 1.09.415 2.077 1.194 2.856.727.83 1.714 1.246 2.804 1.246zM3.594 3.08a1.611 1.611 0 011.142-.467c.935 0 1.61.727 1.61 1.61 0 .935-.727 1.61-1.61 1.61-.935 0-1.61-.727-1.61-1.61 0-.415.156-.831.468-1.143z"/><path d="M9.203 9.727c.363-.363.415-.883.104-1.402-.26-.415-.727-.623-1.247-.52a1.755 1.755 0 00-.623.312c-1.61 1.091-3.791 1.039-5.401-.052l-.312-.155C1.153 7.65.581 7.754.27 8.273c-.364.52-.312 1.09.156 1.558.103.104.207.156.26.26l.051.052c.727.571 1.61.935 2.753 1.09l-.675.676-1.766 1.766c-.156.155-.364.415-.364.779 0 .467.26.934.727 1.142.156.104.312.104.468.104.26 0 .571-.104.779-.363l2.025-2.026.052-.052s.052 0 .052.052c.416.467.883.883 1.299 1.35l.623.624c.26.26.467.363.779.363.467.052.987-.26 1.195-.727a1.04 1.04 0 00-.26-1.246c-.52-.52-1.039-1.091-1.61-1.61l-.883-.883c.467-.052.987-.156 1.454-.364.78-.26 1.35-.623 1.818-1.09z"/></svg><svg fill="none" viewBox="0 0 91 19" id="rating-icon" xmlns="http://www.w3.org/2000/svg"><path d="M16.203 6.707l-4.463-.649-1.995-4.044a.565.565 0 00-1.009 0L6.74 6.058l-4.463.649a.562.562 0 00-.31.96l3.228 3.148-.763 4.446a.562.562 0 00.816.592l3.992-2.099 3.992 2.099a.562.562 0 00.816-.592l-.763-4.446 3.229-3.148a.562.562 0 00-.311-.96zM34.203 6.707l-4.463-.649-1.995-4.044a.565.565 0 00-1.009 0L24.74 6.058l-4.464.649a.562.562 0 00-.31.96l3.228 3.148-.762 4.446a.561.561 0 00.815.592l3.992-2.099 3.992 2.099a.562.562 0 00.816-.592l-.763-4.446 3.229-3.148a.562.562 0 00-.311-.96zM52.203 6.707l-4.463-.649-1.995-4.044a.565.565 0 00-1.009 0L42.74 6.058l-4.463.649a.562.562 0 00-.31.96l3.228 3.148-.763 4.446a.561.561 0 00.816.592l3.992-2.099 3.992 2.099a.562.562 0 00.816-.592l-.763-4.446 3.229-3.148a.562.562 0 00-.311-.96z" fill="#FFC416"/><path d="M65.291 6.28l.117.235.26.038 4.461.649s0 0 0 0a.06.06 0 01.054.067h0v.005a.062.062 0 01-.019.036l-3.228 3.147-.188.183.044.26.763 4.445h0a.062.062 0 01-.051.071h0a.06.06 0 01-.037-.005h-.002l-3.992-2.1-.233-.122-.233.122-3.992 2.1h0a.062.062 0 01-.09-.065v-.001l.763-4.446.045-.259-.189-.183-3.229-3.148h0a.064.064 0 01-.002-.089.061.061 0 01.035-.018h.001l4.463-.649.26-.038.117-.236 1.994-4.042s0 0 0 0a.065.065 0 01.085-.03h.001a.06.06 0 01.027.027h0l1.995 4.045zM83.291 6.28l.117.235.26.038 4.461.649s0 0 0 0a.06.06 0 01.054.067h0v.005a.062.062 0 01-.019.036l-3.228 3.147-.188.183.044.26.763 4.445h0a.062.062 0 01-.051.071h0a.06.06 0 01-.037-.005h-.002l-3.992-2.1-.233-.122-.233.122-3.992 2.1h0a.062.062 0 01-.09-.065v-.001l.763-4.446.045-.259-.189-.183-3.229-3.148h0a.064.064 0 01-.002-.089.061.061 0 01.035-.018h.001l4.463-.649.26-.038.117-.236 1.994-4.042s0 0 0 0a.065.065 0 01.085-.03h.001a.06.06 0 01.027.027h0l1.995 4.045z" stroke="#C4C4C4"/></svg><svg fill="none" viewBox="0 0 24 24" id="right" xmlns="http://www.w3.org/2000/svg"><path d="M9.29 6.71a.996.996 0 000 1.41L13.17 12l-3.88 3.88a.996.996 0 101.41 1.41l4.59-4.59a.996.996 0 000-1.41L10.7 6.7c-.38-.38-1.02-.38-1.41.01z" fill="#F7F896"/></svg><svg fill="none" viewBox="0 0 18 18" id="right2" xmlns="http://www.w3.org/2000/svg"><path d="M4.82 6.31l4.125 4.125 4.124-4.124a1.059 1.059 0 111.499 1.499L9.69 12.69a1.059 1.059 0 01-1.499 0L3.31 7.81a1.059 1.059 0 010-1.5 1.081 1.081 0 011.51 0z" fill="#27AE60"/></svg><svg fill="none" viewBox="0 0 24 25" id="search" xmlns="http://www.w3.org/2000/svg"><path d="M14.5 14.5h-.79l-.28-.27a6.5 6.5 0 001.48-5.34c-.47-2.78-2.79-5-5.59-5.34a6.505 6.505 0 00-7.27 7.27c.34 2.8 2.56 5.12 5.34 5.59a6.5 6.5 0 005.34-1.48l.27.28V16l4.25 4.25c.41.41 1.08.41 1.49 0 .41-.41.41-1.08 0-1.49L14.5 14.5zm-6 0C6.01 14.5 4 12.49 4 10s2.01-4.5 4.5-4.5S13 7.51 13 10s-2.01 4.5-4.5 4.5z" fill="#27AE60"/></svg><svg fill="none" viewBox="0 0 22 22" id="shop" xmlns="http://www.w3.org/2000/svg"><g clip-path="url(#cbclip0)"><path d="M22 9.167a.906.906 0 00-.022-.2L20.786 3.59A4.554 4.554 0 0016.31 0H5.691a4.554 4.554 0 00-4.474 3.589L.022 8.968A.906.906 0 000 9.167v.916c0 .893.325 1.755.917 2.423v4.91A4.589 4.589 0 005.5 22h11a4.59 4.59 0 004.583-4.583v-4.911c.592-.668.918-1.53.917-2.423v-.916zm-20.167.1l1.174-5.28A2.733 2.733 0 015.69 1.833h.726v2.75a.917.917 0 101.833 0v-2.75h5.5v2.75a.917.917 0 001.833 0v-2.75h.726a2.734 2.734 0 012.684 2.154l1.174 5.28v.816a1.834 1.834 0 01-1.834 1.834h-.916a1.833 1.833 0 01-1.834-1.834.916.916 0 10-1.833 0 1.834 1.834 0 01-1.833 1.834h-1.834a1.833 1.833 0 01-1.833-1.834.917.917 0 10-1.833 0 1.834 1.834 0 01-1.834 1.834h-.916a1.833 1.833 0 01-1.834-1.834v-.816zm14.667 10.9h-11a2.75 2.75 0 01-2.75-2.75v-3.784c.3.078.607.117.917.117h.916a3.659 3.659 0 002.75-1.244 3.657 3.657 0 002.75 1.244h1.834a3.66 3.66 0 002.75-1.244 3.656 3.656 0 002.75 1.244h.916c.31 0 .618-.039.917-.117v3.784a2.75 2.75 0 01-2.75 2.75z" fill="#fff"/></g><defs><clipPath id="cbclip0"><path fill="#fff" d="M0 0h22v22H0z"/></clipPath></defs></svg><svg fill="none" viewBox="0 0 42 42" id="tell" xmlns="http://www.w3.org/2000/svg"><path d="M27.025 23.717l-2.117-.242a1.66 1.66 0 00-1.366.475l-1.534 1.533a12.538 12.538 0 01-5.491-5.491l1.541-1.542c.359-.358.534-.858.475-1.367l-.241-2.1a1.668 1.668 0 00-1.659-1.475h-1.441c-.942 0-1.725.784-1.667 1.725.442 7.117 6.133 12.8 13.242 13.242.941.058 1.725-.725 1.725-1.667v-1.441a1.652 1.652 0 00-1.467-1.65z" fill="#F7F896"/><rect x=".5" y=".5" width="41" height="41" rx="5.5" stroke="#27AE60" stroke-linecap="round" stroke-linejoin="round"/></svg><svg fill="none" viewBox="0 0 24 25" id="tooltip" xmlns="http://www.w3.org/2000/svg"><path d="M11 18.258h2v-2h-2v2zm1-16c-5.52 0-10 4.48-10 10s4.48 10 10 10 10-4.48 10-10-4.48-10-10-10zm0 18c-4.41 0-8-3.59-8-8s3.59-8 8-8 8 3.59 8 8-3.59 8-8 8zm0-14c-2.21 0-4 1.79-4 4h2c0-1.1.9-2 2-2s2 .9 2 2c0 2-3 1.75-3 5h2c0-2.25 3-2.5 3-5 0-2.21-1.79-4-4-4z" fill="#fff"/></svg><svg fill="inherit" viewBox="0 0 15 11" id="tw" xmlns="http://www.w3.org/2000/svg"><path d="M14.561 1.342a5.992 5.992 0 01-1.593.416c.554-.347 1.039-.901 1.247-1.525-.554.347-1.109.555-1.802.693a2.726 2.726 0 00-2.009-.9 2.78 2.78 0 00-2.771 2.77c0 .209 0 .417.069.624A8.167 8.167 0 011.952.51c-.209.416-.347.901-.347 1.386 0 .97.485 1.802 1.247 2.287-.485 0-.9-.139-1.247-.347 0 1.317.97 2.494 2.217 2.702-.208.07-.485.07-.762.07-.208 0-.347 0-.555-.07a2.766 2.766 0 002.633 1.94c-.97.762-2.148 1.178-3.464 1.178-.208 0-.416 0-.693-.07 1.247.763 2.702 1.248 4.296 1.248 5.127 0 7.898-4.226 7.898-7.899V2.59c.555-.208 1.04-.693 1.386-1.247z"/></svg><svg fill="none" viewBox="0 0 66 20" id="visa" xmlns="http://www.w3.org/2000/svg"><path d="M61.587.286h-4.095c-1.238 0-2.19.381-2.762 1.62l-7.81 17.809h5.524s.952-2.381 1.143-2.953h6.762c.19.667.666 2.857.666 2.857h4.953L61.587.287zM55.11 12.762c.476-1.143 2.095-5.428 2.095-5.428 0 .095.476-1.143.666-1.81l.382 1.715s1.047 4.666 1.238 5.619H55.11v-.096zM47.301 13.333c0 4-3.619 6.667-9.238 6.667-2.38 0-4.667-.476-5.905-1.048l.762-4.38.667.285c1.714.762 2.857 1.048 4.952 1.048 1.524 0 3.143-.572 3.143-1.905 0-.857-.666-1.429-2.762-2.381-2-.952-4.666-2.476-4.666-5.238 0-3.81 3.714-6.381 8.952-6.381 2 0 3.714.381 4.762.857l-.762 4.19-.381-.38c-.952-.381-2.19-.762-4-.762-2 .095-2.952.952-2.952 1.714 0 .857 1.143 1.524 2.952 2.381 3.048 1.429 4.476 3.048 4.476 5.333z" fill="#798797"/><path d="M.825.477L.92.096h8.19c1.144 0 2 .38 2.286 1.619l1.81 8.571C11.396 5.715 7.206 2 .825.476z" fill="#fff"/><path d="M24.73.286l-8.286 19.333h-5.62L6.064 3.429c3.429 2.19 6.286 5.619 7.333 8l.572 2L19.11.19h5.619v.096zM26.92.19h5.238L28.825 19.62h-5.238L26.92.19z" fill="#798797"/></svg><svg fill="inherit" viewBox="0 0 15 9" id="vk" xmlns="http://www.w3.org/2000/svg"><path d="M14.866 7.826c0-.058-.058-.058-.058-.115-.23-.46-.748-1.036-1.438-1.669-.345-.287-.518-.517-.633-.632-.172-.23-.172-.403-.115-.633.058-.173.288-.46.69-.978.23-.288.346-.46.518-.633.863-1.15 1.266-1.898 1.15-2.243l-.057-.058c-.057-.057-.115-.115-.23-.115-.115-.057-.287-.057-.46 0h-2.589l-.057.058c-.058.057-.058.057-.058.115-.23.633-.517 1.15-.805 1.725-.172.288-.345.576-.518.806-.172.23-.287.402-.402.518-.115.115-.23.172-.288.287-.057.058-.172.115-.172.058-.058 0-.116 0-.116-.058l-.172-.172c-.058-.058-.058-.173-.115-.288V3.51v-.345-.345-.633-.517-.403-.345c0-.058-.058-.173-.058-.23L8.711.52C8.653.463 8.538.463 8.48.405A5.16 5.16 0 007.445.29c-.92 0-1.553.058-1.783.173-.115.057-.23.115-.288.23-.115.115-.115.172-.057.172.288.058.518.173.633.345l.057.115c.058.058.058.173.115.346.058.172.058.345.058.575v.92c0 .288-.058.46-.058.633s-.057.288-.115.345c-.057.115-.057.173-.115.173 0 0 0 .057-.057.057-.058 0-.115.058-.23.058a.436.436 0 01-.23-.115.693.693 0 01-.288-.288 2.008 2.008 0 01-.345-.518c-.115-.23-.288-.46-.403-.805l-.115-.23c-.058-.115-.173-.345-.288-.633-.115-.287-.23-.518-.345-.805a.794.794 0 00-.172-.23H3.36S3.304.75 3.246.75c-.057 0-.115-.057-.172-.057H1.002C.773.693.658.75.6.808L.542.865V.98c0 .058 0 .115.058.23.288.69.633 1.381.978 2.071.345.633.69 1.208.92 1.61.288.404.518.806.806 1.151.287.345.46.576.517.69l.23.23.173.173c.115.115.288.288.518.46.23.173.517.346.805.518.288.173.633.288.978.403.403.115.748.172 1.093.115h.863a.522.522 0 00.402-.173l.058-.057c0-.058.057-.058.057-.115v-.23c0-.23 0-.403.058-.576.057-.172.057-.287.115-.402a.794.794 0 01.173-.23l.115-.115h.057c.115-.058.288 0 .403.115.172.115.345.287.46.46.115.172.287.345.518.575.23.23.402.403.517.46l.173.115c.115.058.23.115.403.173.172.057.287.057.402.057l1.956-.057c.173 0 .345-.058.46-.115.115-.058.173-.115.173-.23v-.23c-.115-.115-.115-.173-.115-.23z"/></svg><svg fill="inherit" viewBox="0 0 15 15" id="whatsapp" xmlns="http://www.w3.org/2000/svg"><path d="M12.87 2.137A7.225 7.225 0 007.75.015C3.745.015.5 3.248.5 7.24c0 1.263.356 2.526.964 3.587L.45 14.565l3.853-1.01a7.413 7.413 0 003.447.859c4.005 0 7.25-3.234 7.25-7.225-.05-1.87-.76-3.688-2.13-5.052zm-1.622 7.68c-.152.403-.861.807-1.216.858-.305.05-.71.05-1.116-.05-.253-.101-.608-.203-1.014-.405-1.825-.757-2.99-2.576-3.092-2.728-.102-.1-.76-.96-.76-1.869 0-.91.456-1.314.608-1.516.152-.202.355-.202.507-.202h.355c.101 0 .253-.05.405.303.152.354.507 1.263.558 1.314.05.101.05.202 0 .303-.05.101-.102.202-.203.303-.101.101-.203.253-.253.303-.102.101-.203.202-.102.354.102.202.456.758 1.014 1.263.71.606 1.268.808 1.47.91.203.1.305.05.406-.051.101-.101.456-.505.558-.707.101-.203.253-.152.405-.102.152.051 1.065.506 1.217.607.203.1.304.151.355.202.05.151.05.505-.102.91z"/></svg><svg fill="inherit" viewBox="0 0 15 14" id="yt" xmlns="http://www.w3.org/2000/svg"><path d="M14.771 5.403c0-.388-.05-.84-.05-1.357-.052-.517-.103-1.035-.154-1.487-.102-.517-.256-.905-.562-1.228a1.607 1.607 0 00-.971-.582C11.859.555 10.122.49 7.771.49c-2.35 0-4.138.065-5.263.259a1.607 1.607 0 00-.97.582c-.256.323-.46.71-.562 1.228a6.48 6.48 0 00-.154 1.487c-.05.517-.05.97-.05 1.357v2.974c0 .388.05.84.05 1.358.051.517.103 1.034.154 1.487.102.517.255.905.562 1.228.255.323.613.517.97.582 1.176.194 2.913.258 5.263.258s4.139-.064 5.263-.258c.358-.065.715-.259.97-.582.256-.323.46-.711.563-1.228.102-.453.153-.905.153-1.487.051-.517.051-.97.051-1.358V6.89 5.403zM10.48 7.407l-4.036 3.168a.353.353 0 01-.256.13c-.102 0-.153 0-.255-.065a.733.733 0 01-.256-.582v-6.4c0-.259.103-.453.256-.582a.385.385 0 01.51 0l4.037 3.168c.154.13.256.323.256.517s-.102.517-.256.646z"/></svg><svg fill="none" viewBox="0 0 26 27" id="zoom" xmlns="http://www.w3.org/2000/svg"><path d="M16.792 15.88h-.856l-.303-.292a7.042 7.042 0 001.603-5.785c-.51-3.011-3.023-5.416-6.056-5.785-4.583-.563-8.428 3.294-7.876 7.876.368 3.033 2.773 5.547 5.785 6.056a7.042 7.042 0 005.785-1.603l.293.303v.856l4.615 4.604c.444.444 1.159.444 1.603 0l.01-.01a1.131 1.131 0 000-1.604l-4.603-4.615zm-6.5 0a4.868 4.868 0 01-4.875-4.874 4.868 4.868 0 014.875-4.875 4.868 4.868 0 014.875 4.875 4.868 4.868 0 01-4.875 4.875zm0-7.583a.536.536 0 00-.542.542v1.625H8.125a.536.536 0 00-.542.542c0 .303.239.541.542.541H9.75v1.625c0 .304.238.542.542.542a.536.536 0 00.541-.542v-1.625h1.625a.536.536 0 00.542-.541.536.536 0 00-.542-.542h-1.625V8.84a.536.536 0 00-.541-.542z" fill="#C9CCCF"/></svg></svg>