<svg width="99" height="378" viewBox="0 0 99 378" fill="none" xmlns="http://www.w3.org/2000/svg">
<g clip-path="url(#clip0)">
<path d="M10.4739 3.46881C11.3094 3.46881 11.9866 2.79154 11.9866 1.95609C11.9866 1.12064 11.3094 0.443359 10.4739 0.443359C9.63846 0.443359 8.96118 1.12064 8.96118 1.95609C8.96118 2.79154 9.63846 3.46881 10.4739 3.46881Z" fill="#BB8E34" fill-opacity="0.5"/>
<path d="M27.8449 3.46881C28.6804 3.46881 29.3576 2.79154 29.3576 1.95609C29.3576 1.12064 28.6804 0.443359 27.8449 0.443359C27.0095 0.443359 26.3322 1.12064 26.3322 1.95609C26.3322 2.79154 27.0095 3.46881 27.8449 3.46881Z" fill="#BB8E34" fill-opacity="0.5"/>
<path d="M46.7286 1.95609C46.7286 2.78808 46.0479 3.46881 45.2159 3.46881C44.384 3.46881 43.7032 2.78808 43.7032 1.95609C43.7032 1.1241 44.384 0.443359 45.2159 0.443359C46.0479 0.443359 46.7286 1.1241 46.7286 1.95609Z" fill="#BB8E34" fill-opacity="0.5"/>
<path d="M62.5868 3.46881C63.4222 3.46881 64.0995 2.79154 64.0995 1.95609C64.0995 1.12064 63.4222 0.443359 62.5868 0.443359C61.7513 0.443359 61.0741 1.12064 61.0741 1.95609C61.0741 2.79154 61.7513 3.46881 62.5868 3.46881Z" fill="#BB8E34" fill-opacity="0.5"/>
<path d="M79.9578 3.46881C80.7933 3.46881 81.4706 2.79154 81.4706 1.95609C81.4706 1.12064 80.7933 0.443359 79.9578 0.443359C79.1224 0.443359 78.4451 1.12064 78.4451 1.95609C78.4451 2.79154 79.1224 3.46881 79.9578 3.46881Z" fill="#BB8E34" fill-opacity="0.5"/>
<path d="M97.3287 3.46881C98.1641 3.46881 98.8414 2.79154 98.8414 1.95609C98.8414 1.12064 98.1641 0.443359 97.3287 0.443359C96.4932 0.443359 95.8159 1.12064 95.8159 1.95609C95.8159 2.79154 96.4932 3.46881 97.3287 3.46881Z" fill="#BB8E34" fill-opacity="0.5"/>
<path d="M10.4739 20.4616C11.3094 20.4616 11.9866 19.7843 11.9866 18.9489C11.9866 18.1134 11.3094 17.4362 10.4739 17.4362C9.63846 17.4362 8.96118 18.1134 8.96118 18.9489C8.96118 19.7843 9.63846 20.4616 10.4739 20.4616Z" fill="#BB8E34" fill-opacity="0.5"/>
<path d="M27.8449 20.4616C28.6804 20.4616 29.3576 19.7843 29.3576 18.9489C29.3576 18.1134 28.6804 17.4362 27.8449 17.4362C27.0095 17.4362 26.3322 18.1134 26.3322 18.9489C26.3322 19.7843 27.0095 20.4616 27.8449 20.4616Z" fill="#BB8E34" fill-opacity="0.5"/>
<path d="M46.7286 18.9489C46.7286 19.7809 46.0479 20.4616 45.2159 20.4616C44.384 20.4616 43.7032 19.7809 43.7032 18.9489C43.7032 18.1169 44.384 17.4362 45.2159 17.4362C46.0479 17.4488 46.7286 18.1169 46.7286 18.9489Z" fill="#BB8E34" fill-opacity="0.5"/>
<path d="M62.5868 20.4616C63.4222 20.4616 64.0995 19.7843 64.0995 18.9489C64.0995 18.1134 63.4222 17.4362 62.5868 17.4362C61.7513 17.4362 61.0741 18.1134 61.0741 18.9489C61.0741 19.7843 61.7513 20.4616 62.5868 20.4616Z" fill="#BB8E34" fill-opacity="0.5"/>
<path d="M79.9578 20.4616C80.7933 20.4616 81.4706 19.7843 81.4706 18.9489C81.4706 18.1134 80.7933 17.4362 79.9578 17.4362C79.1224 17.4362 78.4451 18.1134 78.4451 18.9489C78.4451 19.7843 79.1224 20.4616 79.9578 20.4616Z" fill="#BB8E34" fill-opacity="0.5"/>
<path d="M97.3287 20.4616C98.1641 20.4616 98.8414 19.7843 98.8414 18.9489C98.8414 18.1134 98.1641 17.4362 97.3287 17.4362C96.4932 17.4362 95.8159 18.1134 95.8159 18.9489C95.8159 19.7843 96.4932 20.4616 97.3287 20.4616Z" fill="#BB8E34" fill-opacity="0.5"/>
<path d="M10.4739 37.4671C11.3094 37.4671 11.9866 36.7898 11.9866 35.9544C11.9866 35.1189 11.3094 34.4417 10.4739 34.4417C9.63846 34.4417 8.96118 35.1189 8.96118 35.9544C8.96118 36.7898 9.63846 37.4671 10.4739 37.4671Z" fill="#BB8E34" fill-opacity="0.5"/>
<path d="M27.8449 37.4671C28.6804 37.4671 29.3576 36.7898 29.3576 35.9544C29.3576 35.1189 28.6804 34.4417 27.8449 34.4417C27.0095 34.4417 26.3322 35.1189 26.3322 35.9544C26.3322 36.7898 27.0095 37.4671 27.8449 37.4671Z" fill="#BB8E34" fill-opacity="0.5"/>
<path d="M46.7286 35.9544C46.7286 36.7864 46.0479 37.4671 45.2159 37.4671C44.384 37.4671 43.7032 36.7864 43.7032 35.9544C43.7032 35.1224 44.384 34.4417 45.2159 34.4417C46.0479 34.4417 46.7286 35.1098 46.7286 35.9544Z" fill="#BB8E34" fill-opacity="0.5"/>
<path d="M62.5868 37.4671C63.4222 37.4671 64.0995 36.7898 64.0995 35.9544C64.0995 35.1189 63.4222 34.4417 62.5868 34.4417C61.7513 34.4417 61.0741 35.1189 61.0741 35.9544C61.0741 36.7898 61.7513 37.4671 62.5868 37.4671Z" fill="#BB8E34" fill-opacity="0.5"/>
<path d="M79.9578 37.4671C80.7933 37.4671 81.4706 36.7898 81.4706 35.9544C81.4706 35.1189 80.7933 34.4417 79.9578 34.4417C79.1224 34.4417 78.4451 35.1189 78.4451 35.9544C78.4451 36.7898 79.1224 37.4671 79.9578 37.4671Z" fill="#BB8E34" fill-opacity="0.5"/>
<path d="M97.3287 37.4671C98.1641 37.4671 98.8414 36.7898 98.8414 35.9544C98.8414 35.1189 98.1641 34.4417 97.3287 34.4417C96.4932 34.4417 95.8159 35.1189 95.8159 35.9544C95.8159 36.7898 96.4932 37.4671 97.3287 37.4671Z" fill="#BB8E34" fill-opacity="0.5"/>
<path d="M10.4739 54.4598C11.3094 54.4598 11.9866 53.7825 11.9866 52.9471C11.9866 52.1116 11.3094 51.4343 10.4739 51.4343C9.63846 51.4343 8.96118 52.1116 8.96118 52.9471C8.96118 53.7825 9.63846 54.4598 10.4739 54.4598Z" fill="#BB8E34" fill-opacity="0.5"/>
<path d="M27.8449 54.4598C28.6804 54.4598 29.3576 53.7825 29.3576 52.9471C29.3576 52.1116 28.6804 51.4343 27.8449 51.4343C27.0095 51.4343 26.3322 52.1116 26.3322 52.9471C26.3322 53.7825 27.0095 54.4598 27.8449 54.4598Z" fill="#BB8E34" fill-opacity="0.5"/>
<path d="M46.7286 52.9471C46.7286 53.779 46.0479 54.4598 45.2159 54.4598C44.384 54.4598 43.7032 53.779 43.7032 52.9471C43.7032 52.1151 44.384 51.4343 45.2159 51.4343C46.0479 51.4343 46.7286 52.1151 46.7286 52.9471Z" fill="#BB8E34" fill-opacity="0.5"/>
<path d="M62.5868 54.4598C63.4222 54.4598 64.0995 53.7825 64.0995 52.9471C64.0995 52.1116 63.4222 51.4343 62.5868 51.4343C61.7513 51.4343 61.0741 52.1116 61.0741 52.9471C61.0741 53.7825 61.7513 54.4598 62.5868 54.4598Z" fill="#BB8E34" fill-opacity="0.5"/>
<path d="M79.9578 54.4598C80.7933 54.4598 81.4706 53.7825 81.4706 52.9471C81.4706 52.1116 80.7933 51.4343 79.9578 51.4343C79.1224 51.4343 78.4451 52.1116 78.4451 52.9471C78.4451 53.7825 79.1224 54.4598 79.9578 54.4598Z" fill="#BB8E34" fill-opacity="0.5"/>
<path d="M97.3287 54.4598C98.1641 54.4598 98.8414 53.7825 98.8414 52.9471C98.8414 52.1116 98.1641 51.4343 97.3287 51.4343C96.4932 51.4343 95.8159 52.1116 95.8159 52.9471C95.8159 53.7825 96.4932 54.4598 97.3287 54.4598Z" fill="#BB8E34" fill-opacity="0.5"/>
<path d="M10.4739 71.4527C11.3094 71.4527 11.9866 70.7754 11.9866 69.94C11.9866 69.1045 11.3094 68.4272 10.4739 68.4272C9.63846 68.4272 8.96118 69.1045 8.96118 69.94C8.96118 70.7754 9.63846 71.4527 10.4739 71.4527Z" fill="#BB8E34" fill-opacity="0.5"/>
<path d="M27.8449 71.4527C28.6804 71.4527 29.3576 70.7754 29.3576 69.94C29.3576 69.1045 28.6804 68.4272 27.8449 68.4272C27.0095 68.4272 26.3322 69.1045 26.3322 69.94C26.3322 70.7754 27.0095 71.4527 27.8449 71.4527Z" fill="#BB8E34" fill-opacity="0.5"/>
<path d="M46.7286 69.94C46.7286 70.772 46.0479 71.4527 45.2159 71.4527C44.384 71.4527 43.7032 70.772 43.7032 69.94C43.7032 69.108 44.384 68.4272 45.2159 68.4272C46.0479 68.4272 46.7286 69.108 46.7286 69.94Z" fill="#BB8E34" fill-opacity="0.5"/>
<path d="M62.5868 71.4527C63.4222 71.4527 64.0995 70.7754 64.0995 69.94C64.0995 69.1045 63.4222 68.4272 62.5868 68.4272C61.7513 68.4272 61.0741 69.1045 61.0741 69.94C61.0741 70.7754 61.7513 71.4527 62.5868 71.4527Z" fill="#BB8E34" fill-opacity="0.5"/>
<path d="M79.9578 71.4527C80.7933 71.4527 81.4706 70.7754 81.4706 69.94C81.4706 69.1045 80.7933 68.4272 79.9578 68.4272C79.1224 68.4272 78.4451 69.1045 78.4451 69.94C78.4451 70.7754 79.1224 71.4527 79.9578 71.4527Z" fill="#BB8E34" fill-opacity="0.5"/>
<path d="M97.3287 71.4527C98.1641 71.4527 98.8414 70.7754 98.8414 69.94C98.8414 69.1045 98.1641 68.4272 97.3287 68.4272C96.4932 68.4272 95.8159 69.1045 95.8159 69.94C95.8159 70.7754 96.4932 71.4527 97.3287 71.4527Z" fill="#BB8E34" fill-opacity="0.5"/>
<path d="M10.4739 88.4453C11.3094 88.4453 11.9866 87.768 11.9866 86.9326C11.9866 86.0971 11.3094 85.4199 10.4739 85.4199C9.63846 85.4199 8.96118 86.0971 8.96118 86.9326C8.96118 87.768 9.63846 88.4453 10.4739 88.4453Z" fill="#BB8E34" fill-opacity="0.5"/>
<path d="M27.8449 88.4453C28.6804 88.4453 29.3576 87.768 29.3576 86.9326C29.3576 86.0971 28.6804 85.4199 27.8449 85.4199C27.0095 85.4199 26.3322 86.0971 26.3322 86.9326C26.3322 87.768 27.0095 88.4453 27.8449 88.4453Z" fill="#BB8E34" fill-opacity="0.5"/>
<path d="M46.7286 86.9326C46.7286 87.7646 46.0479 88.4453 45.2159 88.4453C44.384 88.4453 43.7032 87.7646 43.7032 86.9326C43.7032 86.1006 44.384 85.4199 45.2159 85.4199C46.0479 85.4199 46.7286 86.1006 46.7286 86.9326Z" fill="#BB8E34" fill-opacity="0.5"/>
<path d="M62.5868 88.4453C63.4222 88.4453 64.0995 87.768 64.0995 86.9326C64.0995 86.0971 63.4222 85.4199 62.5868 85.4199C61.7513 85.4199 61.0741 86.0971 61.0741 86.9326C61.0741 87.768 61.7513 88.4453 62.5868 88.4453Z" fill="#BB8E34" fill-opacity="0.5"/>
<path d="M79.9578 88.4453C80.7933 88.4453 81.4706 87.768 81.4706 86.9326C81.4706 86.0971 80.7933 85.4199 79.9578 85.4199C79.1224 85.4199 78.4451 86.0971 78.4451 86.9326C78.4451 87.768 79.1224 88.4453 79.9578 88.4453Z" fill="#BB8E34" fill-opacity="0.5"/>
<path d="M97.3287 88.4453C98.1641 88.4453 98.8414 87.768 98.8414 86.9326C98.8414 86.0971 98.1641 85.4199 97.3287 85.4199C96.4932 85.4199 95.8159 86.0971 95.8159 86.9326C95.8159 87.768 96.4932 88.4453 97.3287 88.4453Z" fill="#BB8E34" fill-opacity="0.5"/>
<path d="M10.4739 105.438C11.3094 105.438 11.9866 104.761 11.9866 103.926C11.9866 103.09 11.3094 102.413 10.4739 102.413C9.63846 102.413 8.96118 103.09 8.96118 103.926C8.96118 104.761 9.63846 105.438 10.4739 105.438Z" fill="#BB8E34" fill-opacity="0.5"/>
<path d="M27.8449 105.438C28.6804 105.438 29.3576 104.761 29.3576 103.926C29.3576 103.09 28.6804 102.413 27.8449 102.413C27.0095 102.413 26.3322 103.09 26.3322 103.926C26.3322 104.761 27.0095 105.438 27.8449 105.438Z" fill="#BB8E34" fill-opacity="0.5"/>
<path d="M46.7286 103.926C46.7286 104.758 46.0479 105.438 45.2159 105.438C44.384 105.438 43.7032 104.758 43.7032 103.926C43.7032 103.094 44.384 102.413 45.2159 102.413C46.0479 102.425 46.7286 103.094 46.7286 103.926Z" fill="#BB8E34" fill-opacity="0.5"/>
<path d="M62.5868 105.438C63.4222 105.438 64.0995 104.761 64.0995 103.926C64.0995 103.09 63.4222 102.413 62.5868 102.413C61.7513 102.413 61.0741 103.09 61.0741 103.926C61.0741 104.761 61.7513 105.438 62.5868 105.438Z" fill="#BB8E34" fill-opacity="0.5"/>
<path d="M79.9578 105.438C80.7933 105.438 81.4706 104.761 81.4706 103.926C81.4706 103.09 80.7933 102.413 79.9578 102.413C79.1224 102.413 78.4451 103.09 78.4451 103.926C78.4451 104.761 79.1224 105.438 79.9578 105.438Z" fill="#BB8E34" fill-opacity="0.5"/>
<path d="M97.3287 105.438C98.1641 105.438 98.8414 104.761 98.8414 103.926C98.8414 103.09 98.1641 102.413 97.3287 102.413C96.4932 102.413 95.8159 103.09 95.8159 103.926C95.8159 104.761 96.4932 105.438 97.3287 105.438Z" fill="#BB8E34" fill-opacity="0.5"/>
<path d="M10.4739 122.444C11.3094 122.444 11.9866 121.766 11.9866 120.931C11.9866 120.095 11.3094 119.418 10.4739 119.418C9.63846 119.418 8.96118 120.095 8.96118 120.931C8.96118 121.766 9.63846 122.444 10.4739 122.444Z" fill="#BB8E34" fill-opacity="0.5"/>
<path d="M27.8449 122.444C28.6804 122.444 29.3576 121.766 29.3576 120.931C29.3576 120.095 28.6804 119.418 27.8449 119.418C27.0095 119.418 26.3322 120.095 26.3322 120.931C26.3322 121.766 27.0095 122.444 27.8449 122.444Z" fill="#BB8E34" fill-opacity="0.5"/>
<path d="M46.7286 120.931C46.7286 121.763 46.0479 122.444 45.2159 122.444C44.384 122.444 43.7032 121.763 43.7032 120.931C43.7032 120.099 44.384 119.418 45.2159 119.418C46.0479 119.418 46.7286 120.086 46.7286 120.931Z" fill="#BB8E34" fill-opacity="0.5"/>
<path d="M62.5868 122.444C63.4222 122.444 64.0995 121.766 64.0995 120.931C64.0995 120.095 63.4222 119.418 62.5868 119.418C61.7513 119.418 61.0741 120.095 61.0741 120.931C61.0741 121.766 61.7513 122.444 62.5868 122.444Z" fill="#BB8E34" fill-opacity="0.5"/>
<path d="M79.9578 122.444C80.7933 122.444 81.4706 121.766 81.4706 120.931C81.4706 120.095 80.7933 119.418 79.9578 119.418C79.1224 119.418 78.4451 120.095 78.4451 120.931C78.4451 121.766 79.1224 122.444 79.9578 122.444Z" fill="#BB8E34" fill-opacity="0.5"/>
<path d="M97.3287 122.444C98.1641 122.444 98.8414 121.766 98.8414 120.931C98.8414 120.095 98.1641 119.418 97.3287 119.418C96.4932 119.418 95.8159 120.095 95.8159 120.931C95.8159 121.766 96.4932 122.444 97.3287 122.444Z" fill="#BB8E34" fill-opacity="0.5"/>
<path d="M10.4739 139.436C11.3094 139.436 11.9866 138.759 11.9866 137.924C11.9866 137.088 11.3094 136.411 10.4739 136.411C9.63846 136.411 8.96118 137.088 8.96118 137.924C8.96118 138.759 9.63846 139.436 10.4739 139.436Z" fill="#BB8E34" fill-opacity="0.5"/>
<path d="M27.8449 139.436C28.6804 139.436 29.3576 138.759 29.3576 137.924C29.3576 137.088 28.6804 136.411 27.8449 136.411C27.0095 136.411 26.3322 137.088 26.3322 137.924C26.3322 138.759 27.0095 139.436 27.8449 139.436Z" fill="#BB8E34" fill-opacity="0.5"/>
<path d="M46.7286 137.924C46.7286 138.756 46.0479 139.436 45.2159 139.436C44.384 139.436 43.7032 138.756 43.7032 137.924C43.7032 137.092 44.384 136.411 45.2159 136.411C46.0479 136.411 46.7286 137.092 46.7286 137.924Z" fill="#BB8E34" fill-opacity="0.5"/>
<path d="M62.5868 139.436C63.4222 139.436 64.0995 138.759 64.0995 137.924C64.0995 137.088 63.4222 136.411 62.5868 136.411C61.7513 136.411 61.0741 137.088 61.0741 137.924C61.0741 138.759 61.7513 139.436 62.5868 139.436Z" fill="#BB8E34" fill-opacity="0.5"/>
<path d="M79.9578 139.436C80.7933 139.436 81.4706 138.759 81.4706 137.924C81.4706 137.088 80.7933 136.411 79.9578 136.411C79.1224 136.411 78.4451 137.088 78.4451 137.924C78.4451 138.759 79.1224 139.436 79.9578 139.436Z" fill="#BB8E34" fill-opacity="0.5"/>
<path d="M97.3287 139.436C98.1641 139.436 98.8414 138.759 98.8414 137.924C98.8414 137.088 98.1641 136.411 97.3287 136.411C96.4932 136.411 95.8159 137.088 95.8159 137.924C95.8159 138.759 96.4932 139.436 97.3287 139.436Z" fill="#BB8E34" fill-opacity="0.5"/>
<path d="M10.4739 156.429C11.3094 156.429 11.9866 155.752 11.9866 154.917C11.9866 154.081 11.3094 153.404 10.4739 153.404C9.63846 153.404 8.96118 154.081 8.96118 154.917C8.96118 155.752 9.63846 156.429 10.4739 156.429Z" fill="#BB8E34" fill-opacity="0.5"/>
<path d="M27.8449 156.429C28.6804 156.429 29.3576 155.752 29.3576 154.917C29.3576 154.081 28.6804 153.404 27.8449 153.404C27.0095 153.404 26.3322 154.081 26.3322 154.917C26.3322 155.752 27.0095 156.429 27.8449 156.429Z" fill="#BB8E34" fill-opacity="0.5"/>
<path d="M46.7286 154.917C46.7286 155.749 46.0479 156.429 45.2159 156.429C44.384 156.429 43.7032 155.749 43.7032 154.917C43.7032 154.085 44.384 153.404 45.2159 153.404C46.0479 153.404 46.7286 154.085 46.7286 154.917Z" fill="#BB8E34" fill-opacity="0.5"/>
<path d="M62.5868 156.429C63.4222 156.429 64.0995 155.752 64.0995 154.917C64.0995 154.081 63.4222 153.404 62.5868 153.404C61.7513 153.404 61.0741 154.081 61.0741 154.917C61.0741 155.752 61.7513 156.429 62.5868 156.429Z" fill="#BB8E34" fill-opacity="0.5"/>
<path d="M79.9578 156.429C80.7933 156.429 81.4706 155.752 81.4706 154.917C81.4706 154.081 80.7933 153.404 79.9578 153.404C79.1224 153.404 78.4451 154.081 78.4451 154.917C78.4451 155.752 79.1224 156.429 79.9578 156.429Z" fill="#BB8E34" fill-opacity="0.5"/>
<path d="M97.3287 156.429C98.1641 156.429 98.8414 155.752 98.8414 154.917C98.8414 154.081 98.1641 153.404 97.3287 153.404C96.4932 153.404 95.8159 154.081 95.8159 154.917C95.8159 155.752 96.4932 156.429 97.3287 156.429Z" fill="#BB8E34" fill-opacity="0.5"/>
<path d="M10.4739 173.422C11.3094 173.422 11.9866 172.745 11.9866 171.909C11.9866 171.074 11.3094 170.396 10.4739 170.396C9.63846 170.396 8.96118 171.074 8.96118 171.909C8.96118 172.745 9.63846 173.422 10.4739 173.422Z" fill="#BB8E34" fill-opacity="0.5"/>
<path d="M27.8449 173.422C28.6804 173.422 29.3576 172.745 29.3576 171.909C29.3576 171.074 28.6804 170.396 27.8449 170.396C27.0095 170.396 26.3322 171.074 26.3322 171.909C26.3322 172.745 27.0095 173.422 27.8449 173.422Z" fill="#BB8E34" fill-opacity="0.5"/>
<path d="M46.7286 171.909C46.7286 172.741 46.0479 173.422 45.2159 173.422C44.384 173.422 43.7032 172.741 43.7032 171.909C43.7032 171.077 44.384 170.396 45.2159 170.396C46.0479 170.396 46.7286 171.077 46.7286 171.909Z" fill="#BB8E34" fill-opacity="0.5"/>
<path d="M62.5868 173.422C63.4222 173.422 64.0995 172.745 64.0995 171.909C64.0995 171.074 63.4222 170.396 62.5868 170.396C61.7513 170.396 61.0741 171.074 61.0741 171.909C61.0741 172.745 61.7513 173.422 62.5868 173.422Z" fill="#BB8E34" fill-opacity="0.5"/>
<path d="M79.9578 173.422C80.7933 173.422 81.4706 172.745 81.4706 171.909C81.4706 171.074 80.7933 170.396 79.9578 170.396C79.1224 170.396 78.4451 171.074 78.4451 171.909C78.4451 172.745 79.1224 173.422 79.9578 173.422Z" fill="#BB8E34" fill-opacity="0.5"/>
<path d="M97.3287 173.422C98.1641 173.422 98.8414 172.745 98.8414 171.909C98.8414 171.074 98.1641 170.396 97.3287 170.396C96.4932 170.396 95.8159 171.074 95.8159 171.909C95.8159 172.745 96.4932 173.422 97.3287 173.422Z" fill="#BB8E34" fill-opacity="0.5"/>
<path d="M10.4739 190.415C11.3094 190.415 11.9866 189.738 11.9866 188.902C11.9866 188.067 11.3094 187.389 10.4739 187.389C9.63846 187.389 8.96118 188.067 8.96118 188.902C8.96118 189.738 9.63846 190.415 10.4739 190.415Z" fill="#BB8E34" fill-opacity="0.5"/>
<path d="M27.8449 190.415C28.6804 190.415 29.3576 189.738 29.3576 188.902C29.3576 188.067 28.6804 187.389 27.8449 187.389C27.0095 187.389 26.3322 188.067 26.3322 188.902C26.3322 189.738 27.0095 190.415 27.8449 190.415Z" fill="#BB8E34" fill-opacity="0.5"/>
<path d="M46.7286 188.902C46.7286 189.734 46.0479 190.415 45.2159 190.415C44.384 190.415 43.7032 189.734 43.7032 188.902C43.7032 188.07 44.384 187.389 45.2159 187.389C46.0479 187.402 46.7286 188.07 46.7286 188.902Z" fill="#BB8E34" fill-opacity="0.5"/>
<path d="M62.5868 190.415C63.4222 190.415 64.0995 189.738 64.0995 188.902C64.0995 188.067 63.4222 187.389 62.5868 187.389C61.7513 187.389 61.0741 188.067 61.0741 188.902C61.0741 189.738 61.7513 190.415 62.5868 190.415Z" fill="#BB8E34" fill-opacity="0.5"/>
<path d="M79.9578 190.415C80.7933 190.415 81.4706 189.738 81.4706 188.902C81.4706 188.067 80.7933 187.389 79.9578 187.389C79.1224 187.389 78.4451 188.067 78.4451 188.902C78.4451 189.738 79.1224 190.415 79.9578 190.415Z" fill="#BB8E34" fill-opacity="0.5"/>
<path d="M97.3287 190.415C98.1641 190.415 98.8414 189.738 98.8414 188.902C98.8414 188.067 98.1641 187.389 97.3287 187.389C96.4932 187.389 95.8159 188.067 95.8159 188.902C95.8159 189.738 96.4932 190.415 97.3287 190.415Z" fill="#BB8E34" fill-opacity="0.5"/>
<path d="M10.4739 207.42C11.3094 207.42 11.9866 206.743 11.9866 205.907C11.9866 205.072 11.3094 204.395 10.4739 204.395C9.63846 204.395 8.96118 205.072 8.96118 205.907C8.96118 206.743 9.63846 207.42 10.4739 207.42Z" fill="#BB8E34" fill-opacity="0.5"/>
<path d="M27.8449 207.42C28.6804 207.42 29.3576 206.743 29.3576 205.907C29.3576 205.072 28.6804 204.395 27.8449 204.395C27.0095 204.395 26.3322 205.072 26.3322 205.907C26.3322 206.743 27.0095 207.42 27.8449 207.42Z" fill="#BB8E34" fill-opacity="0.5"/>
<path d="M46.7286 205.907C46.7286 206.739 46.0479 207.42 45.2159 207.42C44.384 207.42 43.7032 206.739 43.7032 205.907C43.7032 205.075 44.384 204.395 45.2159 204.395C46.0479 204.395 46.7286 205.063 46.7286 205.907Z" fill="#BB8E34" fill-opacity="0.5"/>
<path d="M62.5868 207.42C63.4222 207.42 64.0995 206.743 64.0995 205.907C64.0995 205.072 63.4222 204.395 62.5868 204.395C61.7513 204.395 61.0741 205.072 61.0741 205.907C61.0741 206.743 61.7513 207.42 62.5868 207.42Z" fill="#BB8E34" fill-opacity="0.5"/>
<path d="M79.9578 207.42C80.7933 207.42 81.4706 206.743 81.4706 205.907C81.4706 205.072 80.7933 204.395 79.9578 204.395C79.1224 204.395 78.4451 205.072 78.4451 205.907C78.4451 206.743 79.1224 207.42 79.9578 207.42Z" fill="#BB8E34" fill-opacity="0.5"/>
<path d="M97.3287 207.42C98.1641 207.42 98.8414 206.743 98.8414 205.907C98.8414 205.072 98.1641 204.395 97.3287 204.395C96.4932 204.395 95.8159 205.072 95.8159 205.907C95.8159 206.743 96.4932 207.42 97.3287 207.42Z" fill="#BB8E34" fill-opacity="0.5"/>
<path d="M10.4739 224.413C11.3094 224.413 11.9866 223.736 11.9866 222.9C11.9866 222.065 11.3094 221.388 10.4739 221.388C9.63846 221.388 8.96118 222.065 8.96118 222.9C8.96118 223.736 9.63846 224.413 10.4739 224.413Z" fill="#BB8E34" fill-opacity="0.5"/>
<path d="M27.8449 224.413C28.6804 224.413 29.3576 223.736 29.3576 222.9C29.3576 222.065 28.6804 221.388 27.8449 221.388C27.0095 221.388 26.3322 222.065 26.3322 222.9C26.3322 223.736 27.0095 224.413 27.8449 224.413Z" fill="#BB8E34" fill-opacity="0.5"/>
<path d="M46.7286 222.9C46.7286 223.732 46.0479 224.413 45.2159 224.413C44.384 224.413 43.7032 223.732 43.7032 222.9C43.7032 222.068 44.384 221.388 45.2159 221.388C46.0479 221.388 46.7286 222.068 46.7286 222.9Z" fill="#BB8E34" fill-opacity="0.5"/>
<path d="M62.5868 224.413C63.4222 224.413 64.0995 223.736 64.0995 222.9C64.0995 222.065 63.4222 221.388 62.5868 221.388C61.7513 221.388 61.0741 222.065 61.0741 222.9C61.0741 223.736 61.7513 224.413 62.5868 224.413Z" fill="#BB8E34" fill-opacity="0.5"/>
<path d="M79.9578 224.413C80.7933 224.413 81.4706 223.736 81.4706 222.9C81.4706 222.065 80.7933 221.388 79.9578 221.388C79.1224 221.388 78.4451 222.065 78.4451 222.9C78.4451 223.736 79.1224 224.413 79.9578 224.413Z" fill="#BB8E34" fill-opacity="0.5"/>
<path d="M97.3287 224.413C98.1641 224.413 98.8414 223.736 98.8414 222.9C98.8414 222.065 98.1641 221.388 97.3287 221.388C96.4932 221.388 95.8159 222.065 95.8159 222.9C95.8159 223.736 96.4932 224.413 97.3287 224.413Z" fill="#BB8E34" fill-opacity="0.5"/>
<path d="M10.4739 241.406C11.3094 241.406 11.9866 240.729 11.9866 239.893C11.9866 239.058 11.3094 238.38 10.4739 238.38C9.63846 238.38 8.96118 239.058 8.96118 239.893C8.96118 240.729 9.63846 241.406 10.4739 241.406Z" fill="#BB8E34" fill-opacity="0.5"/>
<path d="M27.8449 241.406C28.6804 241.406 29.3576 240.729 29.3576 239.893C29.3576 239.058 28.6804 238.38 27.8449 238.38C27.0095 238.38 26.3322 239.058 26.3322 239.893C26.3322 240.729 27.0095 241.406 27.8449 241.406Z" fill="#BB8E34" fill-opacity="0.5"/>
<path d="M46.7286 239.893C46.7286 240.725 46.0479 241.406 45.2159 241.406C44.384 241.406 43.7032 240.725 43.7032 239.893C43.7032 239.061 44.384 238.38 45.2159 238.38C46.0479 238.38 46.7286 239.061 46.7286 239.893Z" fill="#BB8E34" fill-opacity="0.5"/>
<path d="M62.5868 241.406C63.4222 241.406 64.0995 240.729 64.0995 239.893C64.0995 239.058 63.4222 238.38 62.5868 238.38C61.7513 238.38 61.0741 239.058 61.0741 239.893C61.0741 240.729 61.7513 241.406 62.5868 241.406Z" fill="#BB8E34" fill-opacity="0.5"/>
<path d="M79.9578 241.406C80.7933 241.406 81.4706 240.729 81.4706 239.893C81.4706 239.058 80.7933 238.38 79.9578 238.38C79.1224 238.38 78.4451 239.058 78.4451 239.893C78.4451 240.729 79.1224 241.406 79.9578 241.406Z" fill="#BB8E34" fill-opacity="0.5"/>
<path d="M97.3287 241.406C98.1641 241.406 98.8414 240.729 98.8414 239.893C98.8414 239.058 98.1641 238.38 97.3287 238.38C96.4932 238.38 95.8159 239.058 95.8159 239.893C95.8159 240.729 96.4932 241.406 97.3287 241.406Z" fill="#BB8E34" fill-opacity="0.5"/>
<path d="M10.4739 258.399C11.3094 258.399 11.9866 257.721 11.9866 256.886C11.9866 256.051 11.3094 255.373 10.4739 255.373C9.63846 255.373 8.96118 256.051 8.96118 256.886C8.96118 257.721 9.63846 258.399 10.4739 258.399Z" fill="#BB8E34" fill-opacity="0.5"/>
<path d="M27.8449 258.399C28.6804 258.399 29.3576 257.721 29.3576 256.886C29.3576 256.051 28.6804 255.373 27.8449 255.373C27.0095 255.373 26.3322 256.051 26.3322 256.886C26.3322 257.721 27.0095 258.399 27.8449 258.399Z" fill="#BB8E34" fill-opacity="0.5"/>
<path d="M46.7286 256.886C46.7286 257.718 46.0479 258.399 45.2159 258.399C44.384 258.399 43.7032 257.718 43.7032 256.886C43.7032 256.054 44.384 255.373 45.2159 255.373C46.0479 255.373 46.7286 256.054 46.7286 256.886Z" fill="#BB8E34" fill-opacity="0.5"/>
<path d="M62.5868 258.399C63.4222 258.399 64.0995 257.721 64.0995 256.886C64.0995 256.051 63.4222 255.373 62.5868 255.373C61.7513 255.373 61.0741 256.051 61.0741 256.886C61.0741 257.721 61.7513 258.399 62.5868 258.399Z" fill="#BB8E34" fill-opacity="0.5"/>
<path d="M79.9578 258.399C80.7933 258.399 81.4706 257.721 81.4706 256.886C81.4706 256.051 80.7933 255.373 79.9578 255.373C79.1224 255.373 78.4451 256.051 78.4451 256.886C78.4451 257.721 79.1224 258.399 79.9578 258.399Z" fill="#BB8E34" fill-opacity="0.5"/>
<path d="M97.3287 258.399C98.1641 258.399 98.8414 257.721 98.8414 256.886C98.8414 256.051 98.1641 255.373 97.3287 255.373C96.4932 255.373 95.8159 256.051 95.8159 256.886C95.8159 257.721 96.4932 258.399 97.3287 258.399Z" fill="#BB8E34" fill-opacity="0.5"/>
<path d="M10.4739 275.391C11.3094 275.391 11.9866 274.714 11.9866 273.879C11.9866 273.043 11.3094 272.366 10.4739 272.366C9.63846 272.366 8.96118 273.043 8.96118 273.879C8.96118 274.714 9.63846 275.391 10.4739 275.391Z" fill="#BB8E34" fill-opacity="0.5"/>
<path d="M27.8449 275.391C28.6804 275.391 29.3576 274.714 29.3576 273.879C29.3576 273.043 28.6804 272.366 27.8449 272.366C27.0095 272.366 26.3322 273.043 26.3322 273.879C26.3322 274.714 27.0095 275.391 27.8449 275.391Z" fill="#BB8E34" fill-opacity="0.5"/>
<path d="M46.7286 273.879C46.7286 274.711 46.0479 275.391 45.2159 275.391C44.384 275.391 43.7032 274.711 43.7032 273.879C43.7032 273.047 44.384 272.366 45.2159 272.366C46.0479 272.379 46.7286 273.047 46.7286 273.879Z" fill="#BB8E34" fill-opacity="0.5"/>
<path d="M62.5868 275.391C63.4222 275.391 64.0995 274.714 64.0995 273.879C64.0995 273.043 63.4222 272.366 62.5868 272.366C61.7513 272.366 61.0741 273.043 61.0741 273.879C61.0741 274.714 61.7513 275.391 62.5868 275.391Z" fill="#BB8E34" fill-opacity="0.5"/>
<path d="M79.9578 275.391C80.7933 275.391 81.4706 274.714 81.4706 273.879C81.4706 273.043 80.7933 272.366 79.9578 272.366C79.1224 272.366 78.4451 273.043 78.4451 273.879C78.4451 274.714 79.1224 275.391 79.9578 275.391Z" fill="#BB8E34" fill-opacity="0.5"/>
<path d="M97.3287 275.391C98.1641 275.391 98.8414 274.714 98.8414 273.879C98.8414 273.043 98.1641 272.366 97.3287 272.366C96.4932 272.366 95.8159 273.043 95.8159 273.879C95.8159 274.714 96.4932 275.391 97.3287 275.391Z" fill="#BB8E34" fill-opacity="0.5"/>
<path d="M11.974 290.884C11.974 291.716 11.2933 292.397 10.4613 292.397C9.62931 292.397 8.94858 291.716 8.94858 290.884C8.94858 290.052 9.62931 289.371 10.4613 289.371C11.3059 289.371 11.974 290.039 11.974 290.884Z" fill="#BB8E34" fill-opacity="0.5"/>
<path d="M29.3576 290.884C29.3576 291.716 28.6769 292.397 27.8449 292.397C27.0129 292.397 26.3322 291.716 26.3322 290.884C26.3322 290.052 27.0129 289.371 27.8449 289.371C28.6769 289.371 29.3576 290.039 29.3576 290.884Z" fill="#BB8E34" fill-opacity="0.5"/>
<path d="M46.7286 290.884C46.7286 291.716 46.0479 292.397 45.2159 292.397C44.384 292.397 43.7032 291.716 43.7032 290.884C43.7032 290.052 44.384 289.371 45.2159 289.371C46.0479 289.371 46.7286 290.039 46.7286 290.884Z" fill="#BB8E34" fill-opacity="0.5"/>
<path d="M64.0995 290.884C64.0995 291.716 63.4188 292.397 62.5868 292.397C61.7548 292.397 61.0741 291.716 61.0741 290.884C61.0741 290.052 61.7548 289.371 62.5868 289.371C63.4188 289.371 64.0995 290.039 64.0995 290.884Z" fill="#BB8E34" fill-opacity="0.5"/>
<path d="M81.4706 290.884C81.4706 291.716 80.7898 292.397 79.9578 292.397C79.1258 292.397 78.4451 291.716 78.4451 290.884C78.4451 290.052 79.1258 289.371 79.9578 289.371C80.7898 289.371 81.4706 290.039 81.4706 290.884Z" fill="#BB8E34" fill-opacity="0.5"/>
<path d="M98.8414 290.884C98.8414 291.716 98.1607 292.397 97.3287 292.397C96.4967 292.397 95.8159 291.716 95.8159 290.884C95.8159 290.052 96.4967 289.371 97.3287 289.371C98.1733 289.371 98.8414 290.039 98.8414 290.884Z" fill="#BB8E34" fill-opacity="0.5"/>
<path d="M10.4739 309.39C11.3094 309.39 11.9866 308.712 11.9866 307.877C11.9866 307.042 11.3094 306.364 10.4739 306.364C9.63846 306.364 8.96118 307.042 8.96118 307.877C8.96118 308.712 9.63846 309.39 10.4739 309.39Z" fill="#BB8E34" fill-opacity="0.5"/>
<path d="M27.8449 309.39C28.6804 309.39 29.3576 308.712 29.3576 307.877C29.3576 307.042 28.6804 306.364 27.8449 306.364C27.0095 306.364 26.3322 307.042 26.3322 307.877C26.3322 308.712 27.0095 309.39 27.8449 309.39Z" fill="#BB8E34" fill-opacity="0.5"/>
<path d="M46.7286 307.877C46.7286 308.709 46.0479 309.39 45.2159 309.39C44.384 309.39 43.7032 308.709 43.7032 307.877C43.7032 307.045 44.384 306.364 45.2159 306.364C46.0479 306.364 46.7286 307.045 46.7286 307.877Z" fill="#BB8E34" fill-opacity="0.5"/>
<path d="M62.5868 309.39C63.4222 309.39 64.0995 308.712 64.0995 307.877C64.0995 307.042 63.4222 306.364 62.5868 306.364C61.7513 306.364 61.0741 307.042 61.0741 307.877C61.0741 308.712 61.7513 309.39 62.5868 309.39Z" fill="#BB8E34" fill-opacity="0.5"/>
<path d="M79.9578 309.39C80.7933 309.39 81.4706 308.712 81.4706 307.877C81.4706 307.042 80.7933 306.364 79.9578 306.364C79.1224 306.364 78.4451 307.042 78.4451 307.877C78.4451 308.712 79.1224 309.39 79.9578 309.39Z" fill="#BB8E34" fill-opacity="0.5"/>
<path d="M97.3287 309.39C98.1641 309.39 98.8414 308.712 98.8414 307.877C98.8414 307.042 98.1641 306.364 97.3287 306.364C96.4932 306.364 95.8159 307.042 95.8159 307.877C95.8159 308.712 96.4932 309.39 97.3287 309.39Z" fill="#BB8E34" fill-opacity="0.5"/>
<path d="M10.4739 326.383C11.3094 326.383 11.9866 325.705 11.9866 324.87C11.9866 324.034 11.3094 323.357 10.4739 323.357C9.63846 323.357 8.96118 324.034 8.96118 324.87C8.96118 325.705 9.63846 326.383 10.4739 326.383Z" fill="#BB8E34" fill-opacity="0.5"/>
<path d="M27.8449 326.383C28.6804 326.383 29.3576 325.705 29.3576 324.87C29.3576 324.034 28.6804 323.357 27.8449 323.357C27.0095 323.357 26.3322 324.034 26.3322 324.87C26.3322 325.705 27.0095 326.383 27.8449 326.383Z" fill="#BB8E34" fill-opacity="0.5"/>
<path d="M46.7286 324.87C46.7286 325.702 46.0479 326.383 45.2159 326.383C44.384 326.383 43.7032 325.702 43.7032 324.87C43.7032 324.038 44.384 323.357 45.2159 323.357C46.0479 323.357 46.7286 324.038 46.7286 324.87Z" fill="#BB8E34" fill-opacity="0.5"/>
<path d="M62.5868 326.383C63.4222 326.383 64.0995 325.705 64.0995 324.87C64.0995 324.034 63.4222 323.357 62.5868 323.357C61.7513 323.357 61.0741 324.034 61.0741 324.87C61.0741 325.705 61.7513 326.383 62.5868 326.383Z" fill="#BB8E34" fill-opacity="0.5"/>
<path d="M79.9578 326.383C80.7933 326.383 81.4706 325.705 81.4706 324.87C81.4706 324.034 80.7933 323.357 79.9578 323.357C79.1224 323.357 78.4451 324.034 78.4451 324.87C78.4451 325.705 79.1224 326.383 79.9578 326.383Z" fill="#BB8E34" fill-opacity="0.5"/>
<path d="M97.3287 326.383C98.1641 326.383 98.8414 325.705 98.8414 324.87C98.8414 324.034 98.1641 323.357 97.3287 323.357C96.4932 323.357 95.8159 324.034 95.8159 324.87C95.8159 325.705 96.4932 326.383 97.3287 326.383Z" fill="#BB8E34" fill-opacity="0.5"/>
<path d="M10.4739 343.375C11.3094 343.375 11.9866 342.698 11.9866 341.863C11.9866 341.027 11.3094 340.35 10.4739 340.35C9.63846 340.35 8.96118 341.027 8.96118 341.863C8.96118 342.698 9.63846 343.375 10.4739 343.375Z" fill="#BB8E34" fill-opacity="0.5"/>
<path d="M27.8449 343.375C28.6804 343.375 29.3576 342.698 29.3576 341.863C29.3576 341.027 28.6804 340.35 27.8449 340.35C27.0095 340.35 26.3322 341.027 26.3322 341.863C26.3322 342.698 27.0095 343.375 27.8449 343.375Z" fill="#BB8E34" fill-opacity="0.5"/>
<path d="M46.7286 341.863C46.7286 342.695 46.0479 343.375 45.2159 343.375C44.384 343.375 43.7032 342.695 43.7032 341.863C43.7032 341.031 44.384 340.35 45.2159 340.35C46.0479 340.35 46.7286 341.031 46.7286 341.863Z" fill="#BB8E34" fill-opacity="0.5"/>
<path d="M62.5868 343.375C63.4222 343.375 64.0995 342.698 64.0995 341.863C64.0995 341.027 63.4222 340.35 62.5868 340.35C61.7513 340.35 61.0741 341.027 61.0741 341.863C61.0741 342.698 61.7513 343.375 62.5868 343.375Z" fill="#BB8E34" fill-opacity="0.5"/>
<path d="M79.9578 343.375C80.7933 343.375 81.4706 342.698 81.4706 341.863C81.4706 341.027 80.7933 340.35 79.9578 340.35C79.1224 340.35 78.4451 341.027 78.4451 341.863C78.4451 342.698 79.1224 343.375 79.9578 343.375Z" fill="#BB8E34" fill-opacity="0.5"/>
<path d="M97.3287 343.375C98.1641 343.375 98.8414 342.698 98.8414 341.863C98.8414 341.027 98.1641 340.35 97.3287 340.35C96.4932 340.35 95.8159 341.027 95.8159 341.863C95.8159 342.698 96.4932 343.375 97.3287 343.375Z" fill="#BB8E34" fill-opacity="0.5"/>
<path d="M10.4739 360.368C11.3094 360.368 11.9866 359.691 11.9866 358.855C11.9866 358.02 11.3094 357.343 10.4739 357.343C9.63846 357.343 8.96118 358.02 8.96118 358.855C8.96118 359.691 9.63846 360.368 10.4739 360.368Z" fill="#BB8E34" fill-opacity="0.5"/>
<path d="M27.8449 360.368C28.6804 360.368 29.3576 359.691 29.3576 358.855C29.3576 358.02 28.6804 357.343 27.8449 357.343C27.0095 357.343 26.3322 358.02 26.3322 358.855C26.3322 359.691 27.0095 360.368 27.8449 360.368Z" fill="#BB8E34" fill-opacity="0.5"/>
<path d="M46.7286 358.855C46.7286 359.687 46.0479 360.368 45.2159 360.368C44.384 360.368 43.7032 359.687 43.7032 358.855C43.7032 358.023 44.384 357.343 45.2159 357.343C46.0479 357.355 46.7286 358.023 46.7286 358.855Z" fill="#BB8E34" fill-opacity="0.5"/>
<path d="M62.5868 360.368C63.4222 360.368 64.0995 359.691 64.0995 358.855C64.0995 358.02 63.4222 357.343 62.5868 357.343C61.7513 357.343 61.0741 358.02 61.0741 358.855C61.0741 359.691 61.7513 360.368 62.5868 360.368Z" fill="#BB8E34" fill-opacity="0.5"/>
<path d="M79.9578 360.368C80.7933 360.368 81.4706 359.691 81.4706 358.855C81.4706 358.02 80.7933 357.343 79.9578 357.343C79.1224 357.343 78.4451 358.02 78.4451 358.855C78.4451 359.691 79.1224 360.368 79.9578 360.368Z" fill="#BB8E34" fill-opacity="0.5"/>
<path d="M97.3287 360.368C98.1641 360.368 98.8414 359.691 98.8414 358.855C98.8414 358.02 98.1641 357.343 97.3287 357.343C96.4932 357.343 95.8159 358.02 95.8159 358.855C95.8159 359.691 96.4932 360.368 97.3287 360.368Z" fill="#BB8E34" fill-opacity="0.5"/>
<path d="M10.4739 377.374C11.3094 377.374 11.9866 376.696 11.9866 375.861C11.9866 375.025 11.3094 374.348 10.4739 374.348C9.63846 374.348 8.96118 375.025 8.96118 375.861C8.96118 376.696 9.63846 377.374 10.4739 377.374Z" fill="#BB8E34" fill-opacity="0.5"/>
<path d="M27.8449 377.374C28.6804 377.374 29.3576 376.696 29.3576 375.861C29.3576 375.025 28.6804 374.348 27.8449 374.348C27.0095 374.348 26.3322 375.025 26.3322 375.861C26.3322 376.696 27.0095 377.374 27.8449 377.374Z" fill="#BB8E34" fill-opacity="0.5"/>
<path d="M46.7286 375.861C46.7286 376.693 46.0479 377.374 45.2159 377.374C44.384 377.374 43.7032 376.693 43.7032 375.861C43.7032 375.029 44.384 374.348 45.2159 374.348C46.0479 374.348 46.7286 375.016 46.7286 375.861Z" fill="#BB8E34" fill-opacity="0.5"/>
<path d="M62.5868 377.374C63.4222 377.374 64.0995 376.696 64.0995 375.861C64.0995 375.025 63.4222 374.348 62.5868 374.348C61.7513 374.348 61.0741 375.025 61.0741 375.861C61.0741 376.696 61.7513 377.374 62.5868 377.374Z" fill="#BB8E34" fill-opacity="0.5"/>
<path d="M79.9578 377.374C80.7933 377.374 81.4706 376.696 81.4706 375.861C81.4706 375.025 80.7933 374.348 79.9578 374.348C79.1224 374.348 78.4451 375.025 78.4451 375.861C78.4451 376.696 79.1224 377.374 79.9578 377.374Z" fill="#BB8E34" fill-opacity="0.5"/>
<path d="M97.3287 377.374C98.1641 377.374 98.8414 376.696 98.8414 375.861C98.8414 375.025 98.1641 374.348 97.3287 374.348C96.4932 374.348 95.8159 375.025 95.8159 375.861C95.8159 376.696 96.4932 377.374 97.3287 377.374Z" fill="#BB8E34" fill-opacity="0.5"/>
</g>
<defs>
<clipPath id="clip0">
<rect width="99" height="377" fill="white" transform="translate(-0.399902 0.443359)"/>
</clipPath>
</defs>
</svg>
