<svg width="50" height="50" viewBox="0 0 50 50" fill="none" xmlns="http://www.w3.org/2000/svg">
<g clip-path="url(#clip0)">
<path d="M48.3382 17.4602L27.6897 1.49565C25.9677 0.28886 23.6726 0.294468 21.9567 1.51023L1.34442 17.4471C0.492788 18.0232 0.127162 19.0947 0.448674 20.0711C0.803084 21.0686 1.72462 21.7535 2.78187 21.8051V46.3225C2.78374 48.126 4.2455 49.5874 6.04858 49.5892H43.6164C45.4195 49.5874 46.8809 48.126 46.8831 46.3225V21.8051C47.9404 21.7535 48.8619 21.0686 49.2163 20.0711C49.5378 19.1025 49.1797 18.0378 48.3382 17.4602ZM43.6164 47.9559H6.04858C5.14685 47.9551 4.41635 47.2243 4.41523 46.3225V21.3609L24.8499 5.49772L45.2498 21.3606V46.3225C45.2487 47.2243 44.5182 47.9551 43.6164 47.9559ZM47.6634 19.5642C47.5011 19.9717 47.0914 20.2252 46.6543 20.1885H46.4039L25.7666 4.14101C25.7565 4.13354 25.7441 4.13241 25.7344 4.12494C25.7243 4.11746 25.7191 4.10662 25.7086 4.09989C25.1497 3.75557 24.4413 3.77165 23.8984 4.14064L3.26115 20.1885H3.01067C2.57364 20.2252 2.1639 19.9717 2.00165 19.5642C1.9037 19.2509 2.03941 18.9118 2.32615 18.7522L22.9361 2.81646C24.0659 2.01941 25.5737 2.01381 26.7094 2.80188L47.3568 18.7653C47.6346 18.926 47.7621 19.2588 47.6634 19.5642Z" fill="#27AE60"/>
<path d="M32.3543 24.299C31.9928 24.4927 31.8309 24.9245 31.9763 25.3081C32.179 26.224 31.9535 27.1826 31.3632 27.9119C30.8312 28.7041 29.9351 29.1737 28.981 29.1606C27.6793 29.0896 27.3821 28.5475 27.2841 28.3692C26.7798 27.448 27.2445 25.6748 27.9653 24.3974C29.6151 21.4525 27.1694 18.8954 26.3809 18.1821C26.3633 18.1668 26.3047 18.1189 26.286 18.1047C23.9285 16.308 21.4293 14.706 18.8123 13.3138L18.8097 13.312L18.8067 13.3108C18.4138 13.1078 17.9304 13.2548 17.7169 13.6421C17.5031 14.0294 17.6366 14.5161 18.0179 14.7404C18.3315 15.2866 18.5461 15.8837 18.6519 16.5046C18.6942 16.6699 18.7304 16.8112 18.7581 16.9032C19.0019 17.7499 19.1181 18.6281 19.1024 19.5089C19.022 21.2043 18.4714 22.8436 17.5121 24.2437C16.7393 25.4135 15.8843 26.5264 14.9527 27.574C14.0768 28.5718 13.2588 29.6186 12.5025 30.7095C10.4168 33.6606 10.4145 37.6055 12.4969 40.5589C15.0682 44.1886 20.0427 46.3188 25.0369 46.3188C26.9353 46.3282 28.8203 46.004 30.6065 45.3618C33.4654 44.3651 35.8894 42.4072 37.4656 39.8224C40.0328 35.3239 38.6656 30.1457 33.4011 24.4329C33.1173 24.1678 32.6956 24.1136 32.3543 24.299ZM22.2241 35.6361C22.0734 35.5306 21.6147 35.2102 22.1437 34.3773C22.6035 33.7889 23.0869 33.2243 23.5942 32.6841C23.6705 33.0213 23.7853 33.3488 23.9359 33.6599C24.6406 35.1086 26.3899 36.1101 28.0819 37.0791C29.7078 38.0108 31.3894 38.9738 31.6601 40.0845C31.7498 40.6509 31.5991 41.2292 31.2443 41.6801C30.4514 42.7572 29.3456 43.5635 28.0775 43.9897C25.794 44.835 22.3916 44.955 20.3092 43.5501C20.0079 43.3531 19.7432 43.1052 19.5267 42.8173C19.0699 42.1448 18.8819 41.3253 19.0004 40.5212C19.0209 40.3197 19.1219 39.7794 19.2441 39.2605C19.2946 39.3013 19.3466 39.3409 19.4004 39.379C20.2359 39.9985 21.3197 40.1746 22.3086 39.8516C23.4514 39.4542 23.7714 38.7816 23.8391 38.2878C24.0215 36.958 22.5247 35.8447 22.2241 35.6361ZM36.0476 39.0119C35.2023 40.4326 34.0351 41.6349 32.6403 42.5216C33.2269 41.7059 33.4467 40.6823 33.2467 39.6976C32.81 37.9053 30.8189 36.7647 28.8932 35.6618C27.4165 34.8158 25.8893 33.941 25.4052 32.9455C25.2575 32.6419 25.1648 32.3148 25.1308 31.9787C25.1263 31.9252 25.1173 31.8527 25.1057 31.7675C25.0777 31.5858 25.0627 31.4022 25.0609 31.2183C25.2908 30.8758 25.2295 30.416 24.918 30.1461C24.6063 29.8758 24.1423 29.8803 23.8361 30.1565L23.8298 30.1621C22.7493 31.1461 21.7549 32.2198 20.8562 33.3716C20.8401 33.3922 20.8109 33.4333 20.7971 33.455C19.9447 34.7897 20.1384 36.1714 21.2909 36.9763C21.7141 37.2216 22.0428 37.6014 22.2241 38.0552C22.2241 38.0552 22.1512 38.1767 21.7702 38.3095C21.3134 38.4467 20.8191 38.37 20.4251 38.1009C20.2094 37.9868 20.0393 37.8014 19.9447 37.5763C19.947 37.161 19.6367 36.8099 19.2243 36.761C19.1731 36.7546 19.1215 36.7512 19.0699 36.7512C17.8197 36.7834 17.4564 39.5237 17.3752 40.3623C17.2721 41.2386 17.3965 42.1268 17.7368 42.9411C16.1931 42.1508 14.8551 41.0113 13.8289 39.6131C12.1469 37.207 12.1611 34.0034 13.8644 31.6123C14.5856 30.5745 15.3654 29.5782 16.1999 28.6286C17.1823 27.5205 18.0841 26.3436 18.8983 25.1069C20.0105 23.4553 20.6461 21.5292 20.735 19.5403C20.7537 18.495 20.6158 17.4531 20.326 16.4486C20.3006 16.3622 20.2703 16.2422 20.2344 16.1013C20.2229 16.0553 20.2113 16.0104 20.1993 15.9648C21.9571 17.0116 23.6548 18.1563 25.2844 19.3938C25.8467 19.9018 27.5993 21.7083 26.5409 23.597C25.6672 25.1458 24.9622 27.5306 25.8515 29.1539C26.489 30.2141 27.6543 30.8422 28.8902 30.7917C30.3983 30.847 31.8294 30.1244 32.6799 28.8776C33.0747 28.3422 33.3682 27.7396 33.5458 27.0988C37.156 31.5906 37.9987 35.5927 36.0476 39.0119Z" fill="#F7F896"/>
</g>
<defs>
<clipPath id="clip0">
<rect width="49" height="49" fill="white" transform="translate(0.333374 0.5)"/>
</clipPath>
</defs>
</svg>
