<svg width="50" height="50" viewBox="0 0 50 50" fill="none" xmlns="http://www.w3.org/2000/svg">
<g clip-path="url(#clip0)">
<path d="M38.7122 1.77531C29.7738 0.0750201 20.5951 0.0750201 11.6564 1.77531C10.5011 1.99807 9.66718 3.01099 9.67017 4.18763V38.4726C9.66718 39.6492 10.5007 40.6617 11.6556 40.8852C12.6252 41.0688 13.597 41.2231 14.5692 41.3667V43.0542C14.5632 44.2365 15.4053 45.2528 16.5677 45.4666C16.7176 45.4935 16.8686 45.5118 17.0189 45.5372V47.8669C17.02 48.7685 17.7504 49.4988 18.6519 49.4999H21.9179C22.8194 49.4988 23.5498 48.7685 23.5509 47.8669V46.1995C24.0951 46.2178 24.6397 46.2358 25.1839 46.2358C25.7285 46.2358 26.2727 46.2178 26.8169 46.1995V47.8669C26.8181 48.7685 27.5488 49.4988 28.4499 49.4999H31.7163C32.6175 49.4988 33.3482 48.7685 33.3493 47.8669V45.5372C33.4996 45.5118 33.6502 45.4935 33.8005 45.4666C34.9629 45.2528 35.805 44.2365 35.7987 43.0542V41.3674C36.7712 41.2235 37.7426 41.0691 38.7122 40.8856H38.7115C39.8672 40.6629 40.701 39.6496 40.6977 38.4726V4.18763C40.701 3.01137 39.8675 1.99845 38.7122 1.77531ZM11.3032 6.54837C20.4953 5.03571 29.8729 5.03571 39.0647 6.54837V36.1118C29.8729 37.6248 20.4953 37.6248 11.3032 36.1118V6.54837ZM11.9603 3.37953C20.6979 1.71775 29.6707 1.71775 38.4087 3.37953C38.7929 3.45653 39.0684 3.79591 39.0647 4.188V4.91013C29.8703 3.42625 20.4976 3.42625 11.3032 4.91013V4.18763C11.2998 3.79554 11.5757 3.45616 11.9603 3.37953ZM21.9179 47.8669H18.6519V45.7929C19.7388 45.9401 20.828 46.0399 21.9179 46.1136V47.8669ZM31.7163 47.8669H28.4499V46.1136C29.5402 46.0403 30.6294 45.9405 31.7163 45.7932V47.8669ZM34.1657 43.0542C34.1713 43.4456 33.8958 43.7846 33.5119 43.859C28.0044 44.851 22.3638 44.851 16.8563 43.859C16.4721 43.7846 16.1966 43.4456 16.2022 43.0542V41.5812C19.1812 41.9606 22.181 42.1538 25.1839 42.1602C28.1872 42.1538 31.1867 41.9606 34.1657 41.5812V43.0542ZM38.4087 39.2806H38.4076C37.2687 39.4967 36.1276 39.6832 34.9846 39.8409L34.9823 39.8406L34.9726 39.8424C28.4787 40.7511 21.8899 40.7511 15.3956 39.8424L15.3859 39.8406L15.3833 39.8413C14.2403 39.6813 13.0988 39.4948 11.9595 39.281C11.5749 39.204 11.2994 38.8646 11.3032 38.4726V37.7504C15.8923 38.4991 20.5342 38.8766 25.1839 38.8788C29.8336 38.8766 34.4759 38.4991 39.0647 37.7504V38.4722C39.0684 38.8643 38.7929 39.204 38.4087 39.2806Z" fill="#27AE60"/>
<path d="M25.184 31.5365C31.9485 31.5365 37.4318 26.0532 37.4318 19.2887C37.4318 12.5246 31.9485 7.04099 25.184 7.04099C18.4199 7.04099 12.9363 12.5246 12.9363 19.2887C12.9438 26.0499 18.4229 31.529 25.184 31.5365ZM25.184 8.67437C31.0466 8.67437 35.7988 13.4265 35.7988 19.2887C35.7988 25.1513 31.0466 29.9035 25.184 29.9035C19.3218 29.9035 14.5693 25.1513 14.5693 19.2887C14.576 13.4291 19.3244 8.68072 25.184 8.67437Z" fill="#F7F896"/>
<path d="M20.2848 20.1054H23.0687L22.3996 27.7561V27.7595C22.3473 28.3176 22.6856 28.8386 23.2171 29.0176C23.3501 29.0644 23.4899 29.0883 23.6308 29.0886C24.0323 29.0898 24.4075 28.8891 24.6292 28.5542L30.7531 19.7552C30.9269 19.5059 30.9478 19.1803 30.8073 18.9109C30.6663 18.641 30.3871 18.472 30.0829 18.4724H27.2994L27.9685 10.8183C28.0148 10.2648 27.6829 9.74934 27.1596 9.56283C26.6363 9.37669 26.0533 9.56582 25.7389 10.0237L19.615 18.8223C19.4409 19.0719 19.4203 19.3975 19.5608 19.667C19.7018 19.9369 19.9806 20.1058 20.2848 20.1054ZM26.2076 12.2073L25.5954 19.2181C25.5752 19.4461 25.6522 19.6719 25.8066 19.8408C25.9613 20.0094 26.18 20.1054 26.4087 20.1054H28.5201L24.1601 26.3706L24.7723 19.3598C24.7925 19.1318 24.7155 18.906 24.5612 18.737C24.4064 18.5685 24.1881 18.4724 23.959 18.4724H21.8476L26.2076 12.2073Z" fill="#F7F896"/>
<path d="M16.2023 29.9035C14.8496 29.9035 13.7529 31.0005 13.7529 32.3532C13.7529 33.7059 14.8496 34.8029 16.2023 34.8029C17.5553 34.8029 18.6519 33.7059 18.6519 32.3532C18.6505 31.0009 17.5546 29.905 16.2023 29.9035ZM16.2023 33.1699C15.7515 33.1699 15.3859 32.8039 15.3859 32.3532C15.3859 31.9024 15.7515 31.5365 16.2023 31.5365C16.6534 31.5365 17.0189 31.9024 17.0189 32.3532C17.0186 32.8039 16.653 33.1691 16.2023 33.1699Z" fill="#27AE60"/>
<path d="M34.1658 29.9035C32.8131 29.9035 31.7164 31.0005 31.7164 32.3532C31.7164 33.7059 32.8131 34.8029 34.1658 34.8029C35.5188 34.8029 36.6155 33.7059 36.6155 32.3532C36.614 31.0009 35.5181 29.905 34.1658 29.9035ZM34.1658 33.1699C33.715 33.1699 33.3494 32.8039 33.3494 32.3532C33.3494 31.9024 33.715 31.5365 34.1658 31.5365C34.6169 31.5365 34.9825 31.9024 34.9825 32.3532C34.9821 32.8039 34.6165 33.1691 34.1658 33.1699Z" fill="#27AE60"/>
<path d="M23.551 33.1698H21.918C21.4672 33.1698 21.1017 33.5354 21.1017 33.9861C21.1017 34.4373 21.4672 34.8028 21.918 34.8028H23.551C24.0022 34.8028 24.3677 34.4373 24.3677 33.9861C24.3677 33.5354 24.0022 33.1698 23.551 33.1698Z" fill="#27AE60"/>
<path d="M28.4499 33.1698H26.8169C26.3662 33.1698 26.0006 33.5354 26.0006 33.9861C26.0006 34.4373 26.3662 34.8028 26.8169 34.8028H28.4499C28.9011 34.8028 29.2666 34.4373 29.2666 33.9861C29.2666 33.5354 28.9011 33.1698 28.4499 33.1698Z" fill="#27AE60"/>
</g>
<defs>
<clipPath id="clip0">
<rect width="49" height="49" fill="white" transform="translate(0.666748 0.5)"/>
</clipPath>
</defs>
</svg>
