<svg width="37" height="36" viewBox="0 0 37 36" fill="none" xmlns="http://www.w3.org/2000/svg">
<path d="M14.2999 22.5C10.2949 22.5 2.29993 24.51 2.29993 28.5V30C2.29993 30.825 2.97493 31.5 3.79993 31.5H24.7999C25.6249 31.5 26.2999 30.825 26.2999 30V28.5C26.2999 24.51 18.3049 22.5 14.2999 22.5Z" fill="#27AE60"/>
<path d="M7.90993 13.5H20.7049C21.1099 13.5 21.4399 13.17 21.4399 12.765V12.735C21.4399 12.33 21.1099 12 20.7049 12H20.2999C20.2999 9.78 19.0849 7.875 17.2999 6.825V8.25C17.2999 8.67 16.9699 9 16.5499 9C16.1299 9 15.7999 8.67 15.7999 8.25V6.21C15.3199 6.09 14.8249 6 14.2999 6C13.7749 6 13.2799 6.09 12.7999 6.21V8.25C12.7999 8.67 12.4699 9 12.0499 9C11.6299 9 11.2999 8.67 11.2999 8.25V6.825C9.51493 7.875 8.29993 9.78 8.29993 12H7.90993C7.50493 12 7.17493 12.33 7.17493 12.735V12.78C7.17493 13.17 7.50493 13.5 7.90993 13.5Z" fill="#27AE60"/>
<path d="M14.2999 19.5C17.0899 19.5 19.4149 17.58 20.0899 15H8.50989C9.18489 17.58 11.5099 19.5 14.2999 19.5Z" fill="#27AE60"/>
<path d="M33.7699 9.345L35.1649 8.1L34.0399 6.15L32.2549 6.735C32.0449 6.57 31.8049 6.435 31.5499 6.33L31.1749 4.5H28.9249L28.5499 6.33C28.2949 6.435 28.0549 6.57 27.8299 6.735L26.0599 6.15L24.9349 8.1L26.3299 9.345C26.2999 9.6 26.2999 9.87 26.3299 10.125L24.9349 11.4L26.0599 13.35L27.8599 12.78C28.0549 12.93 28.2799 13.05 28.5049 13.155L28.9249 15H31.1749L31.5799 13.17C31.8199 13.065 32.0299 12.945 32.2399 12.795L34.0249 13.365L35.1499 11.415L33.7549 10.14C33.7999 9.855 33.7849 9.6 33.7699 9.345ZM30.0499 11.625C29.0149 11.625 28.1749 10.785 28.1749 9.75C28.1749 8.715 29.0149 7.875 30.0499 7.875C31.0849 7.875 31.9249 8.715 31.9249 9.75C31.9249 10.785 31.0849 11.625 30.0499 11.625Z" fill="#27AE60"/>
<path d="M29.8999 16.185L28.6249 16.605C28.4749 16.485 28.3099 16.395 28.1299 16.32L27.8599 15H26.2549L25.9849 16.305C25.8049 16.38 25.6249 16.485 25.4749 16.59L24.2149 16.17L23.4049 17.565L24.3949 18.45C24.3799 18.645 24.3799 18.825 24.3949 19.005L23.4049 19.92L24.2149 21.315L25.5049 20.91C25.6549 21.015 25.8049 21.105 25.9699 21.18L26.2399 22.5H27.8449L28.1299 21.195C28.2949 21.12 28.4599 21.03 28.6099 20.925L29.8849 21.33L30.6949 19.935L29.7049 19.02C29.7199 18.825 29.7199 18.645 29.7049 18.465L30.6949 17.58L29.8999 16.185ZM27.0499 20.085C26.3149 20.085 25.7149 19.485 25.7149 18.75C25.7149 18.015 26.3149 17.415 27.0499 17.415C27.7849 17.415 28.3849 18.015 28.3849 18.75C28.3849 19.485 27.7849 20.085 27.0499 20.085Z" fill="#27AE60"/>
</svg>
