<svg width="18" height="18" viewBox="0 0 18 18" fill="none" xmlns="http://www.w3.org/2000/svg">
<path d="M13.4196 4.28303C13.1271 3.99053 12.6546 3.99053 12.3621 4.28303L8.69462 7.94303L5.02712 4.27553C4.73462 3.98303 4.26212 3.98303 3.96962 4.27553C3.67712 4.56803 3.67712 5.04053 3.96962 5.33303L7.63712 9.00052L3.96962 12.668C3.67712 12.9605 3.67712 13.433 3.96962 13.7255C4.26212 14.018 4.73462 14.018 5.02712 13.7255L8.69462 10.058L12.3621 13.7255C12.6546 14.018 13.1271 14.018 13.4196 13.7255C13.7121 13.433 13.7121 12.9605 13.4196 12.668L9.75212 9.00052L13.4196 5.33303C13.7046 5.04803 13.7046 4.56803 13.4196 4.28303Z" fill="#323232" fill-opacity="0.2"/>
</svg>
