<svg width="36" height="36" viewBox="0 0 36 36" fill="none" xmlns="http://www.w3.org/2000/svg">
<path d="M32.5051 27.255L25.4251 20.175C24.7051 19.455 23.9401 19.29 23.0551 19.29L19.2451 23.1C19.2451 23.985 19.4101 24.765 20.1301 25.47L27.2101 32.55C27.7951 33.135 28.7401 33.135 29.3251 32.55L32.5051 29.37C33.0901 28.8 33.0901 27.84 32.5051 27.255Z" fill="#27AE60"/>
<path d="M24.945 14.235C25.53 14.82 26.475 14.82 27.06 14.235L28.125 13.17L31.305 16.35C33.06 14.595 33.06 11.745 31.305 9.99001L27.06 5.74501C26.475 5.16001 25.53 5.16001 24.945 5.74501L23.88 6.81001V3.00001C23.88 2.07001 22.74 1.57501 22.065 2.25001L18.255 6.06001C17.58 6.73501 18.075 7.87501 19.005 7.87501H22.815L21.75 8.94001C21.165 9.52501 21.165 10.47 21.75 11.055L22.275 11.58L17.94 15.915L11.775 9.72001V8.22001C11.775 7.81501 11.61 7.44001 11.34 7.15501L8.31003 4.11001C7.72503 3.52501 6.78003 3.52501 6.19503 4.11001L4.06503 6.24001C3.48003 6.82501 3.48003 7.77001 4.06503 8.35501L7.09503 11.4C7.38003 11.685 7.75503 11.835 8.16003 11.835H9.66003L15.855 18.03L14.58 19.305H12.63C11.835 19.305 11.07 19.62 10.515 20.19L3.43503 27.27C2.85003 27.855 2.85003 28.8 3.43503 29.385L6.61503 32.565C7.20003 33.15 8.14503 33.15 8.73003 32.565L15.81 25.485C16.38 24.915 16.695 24.165 16.695 23.37V21.435L24.42 13.71L24.945 14.235Z" fill="#27AE60"/>
</svg>
