<svg width="15" height="15" viewBox="0 0 15 15" fill="inherit" xmlns="http://www.w3.org/2000/svg">
<g clip-path="url(#clip0)">
<path d="M11.7698 0.625H3.01978C2.19128 0.625992 1.397 0.955551 0.811163 1.54139C0.225327 2.12722 -0.104232 2.9215 -0.105225 3.75L-0.105225 11.25C-0.104232 12.0785 0.225327 12.8728 0.811163 13.4586C1.397 14.0444 2.19128 14.374 3.01978 14.375H11.7698C12.5983 14.374 13.3926 14.0444 13.9784 13.4586C14.5642 12.8728 14.8938 12.0785 14.8948 11.25V3.75C14.8938 2.9215 14.5642 2.12722 13.9784 1.54139C13.3926 0.955551 12.5983 0.625992 11.7698 0.625ZM3.01978 1.875H11.7698C12.144 1.87574 12.5095 1.98845 12.8191 2.19863C13.1288 2.40881 13.3684 2.70684 13.5073 3.05438L8.72103 7.84125C8.36879 8.19207 7.89191 8.38904 7.39478 8.38904C6.89764 8.38904 6.42076 8.19207 6.06853 7.84125L1.28228 3.05438C1.42112 2.70684 1.66078 2.40881 1.97043 2.19863C2.28008 1.98845 2.64553 1.87574 3.01978 1.875ZM11.7698 13.125H3.01978C2.52249 13.125 2.04558 12.9275 1.69395 12.5758C1.34232 12.2242 1.14478 11.7473 1.14478 11.25V4.6875L5.18478 8.725C5.77142 9.31016 6.56619 9.63877 7.39478 9.63877C8.22336 9.63877 9.01813 9.31016 9.60478 8.725L13.6448 4.6875V11.25C13.6448 11.7473 13.4472 12.2242 13.0956 12.5758C12.744 12.9275 12.2671 13.125 11.7698 13.125Z" fill="inherit" stroke="inherit"/>
</g>
<defs>
<clipPath id="clip0">
<rect width="15" height="15" fill="white" transform="translate(-0.105225)"/>
</clipPath>
</defs>
</svg>
