<svg width="40" height="41" viewBox="0 0 40 41" fill="none" xmlns="http://www.w3.org/2000/svg">
<path d="M15 7.48096V9.78096C13.6167 9.23096 12.1333 8.94762 10.65 8.94762C7.66666 8.94762 4.68333 10.081 2.39999 12.3643L7.94999 17.9143H9.79999V19.7643C11.2333 21.1976 13.1 21.9476 14.9833 22.0309V25.8143H9.99999V30.8143C9.99999 32.6476 11.5 34.1476 13.3333 34.1476H30C32.7667 34.1476 35 31.9143 35 29.1476V7.48096H15ZM13.15 18.1643V14.581H9.34999L7.61666 12.8476C8.56666 12.481 9.59999 12.281 10.65 12.281C12.8833 12.281 14.9667 13.1476 16.55 14.7143L18.9 17.0643L18.5667 17.3976C17.7167 18.2476 16.5833 18.731 15.3667 18.731C14.5833 18.731 13.8167 18.531 13.15 18.1643ZM31.6667 29.1476C31.6667 30.0643 30.9167 30.8143 30 30.8143C29.0833 30.8143 28.3333 30.0643 28.3333 29.1476V25.8143H18.3333V21.4976C19.2833 21.1143 20.1667 20.5476 20.9333 19.7809L21.2667 19.4476L25.9833 24.1476H28.3333V21.7976L18.3333 11.8476V10.8143H31.6667V29.1476Z" fill="#BB8E34"/>
</svg>
