<svg width="13" height="13" viewBox="0 0 13 13" fill="inherit" xmlns="http://www.w3.org/2000/svg">
<path d="M10.9843 0.374512H2.55814C1.60679 0.374512 0.881958 1.09935 0.881958 2.05069V10.4769C0.881958 11.4282 1.60679 12.1531 2.55814 12.1531H10.9843C11.9357 12.1531 12.6605 11.4282 12.6605 10.4769V2.05069C12.6605 1.09935 11.9357 0.374512 10.9843 0.374512ZM6.77124 9.79737C8.71924 9.79737 10.3048 8.25709 10.3048 6.3997C10.3048 6.08259 10.2595 5.72017 10.1689 5.44836H11.1656V10.2504C11.1656 10.4769 10.9843 10.7034 10.7125 10.7034H2.82995C2.60344 10.7034 2.37693 10.5222 2.37693 10.2504V5.40305H3.41888C3.32828 5.72017 3.28298 6.03729 3.28298 6.3544C3.23767 8.25709 4.82325 9.79737 6.77124 9.79737ZM6.77124 8.4383C5.50278 8.4383 4.50613 7.44166 4.50613 6.2185C4.50613 4.99534 5.50278 3.99869 6.77124 3.99869C8.03971 3.99869 9.03635 4.99534 9.03635 6.2185C9.03635 7.48696 8.03971 8.4383 6.77124 8.4383ZM11.1203 3.59097C11.1203 3.86278 10.8937 4.08929 10.6219 4.08929H9.35347C9.08165 4.08929 8.85515 3.86278 8.85515 3.59097V2.36781C8.85515 2.096 9.08165 1.86948 9.35347 1.86948H10.6219C10.8937 1.86948 11.1203 2.096 11.1203 2.36781V3.59097Z" fill="inherit"/>
</svg>
