<svg width="16" height="14" viewBox="0 0 16 14" fill="none" xmlns="http://www.w3.org/2000/svg">
<g clip-path="url(#clip0)">
<path d="M13.6667 0.833374H1.66669C0.841687 0.833374 0.166687 1.50837 0.166687 2.33337V11.3334C0.166687 12.1584 0.841687 12.8334 1.66669 12.8334H13.6667C14.4917 12.8334 15.1667 12.1584 15.1667 11.3334V2.33337C15.1667 1.50837 14.4917 0.833374 13.6667 0.833374ZM13.3667 4.02087L8.46169 7.08837C7.97419 7.39587 7.35919 7.39587 6.87169 7.08837L1.96669 4.02087C1.77919 3.90087 1.66669 3.69837 1.66669 3.48087C1.66669 2.97837 2.21419 2.67837 2.64169 2.94087L7.66669 6.08337L12.6917 2.94087C13.1192 2.67837 13.6667 2.97837 13.6667 3.48087C13.6667 3.69837 13.5542 3.90087 13.3667 4.02087Z" fill="#BB8E34"/>
</g>
<defs>
<clipPath id="clip0">
<rect width="16" height="13" fill="white" transform="translate(0 0.5)"/>
</clipPath>
</defs>
</svg>
