<svg width="34" height="20" viewBox="0 0 34 20" fill="none" xmlns="http://www.w3.org/2000/svg">
<path d="M33.825 10C33.825 15.4872 29.3634 20 23.825 20C18.3378 20 13.825 15.4872 13.825 10C13.825 4.51282 18.2865 0 23.7737 0C29.3634 0 33.825 4.51282 33.825 10Z" fill="#798797"/>
<path d="M20.4403 10.0513C20.4403 9.33333 20.3377 8.61539 20.2352 7.94872H14.0813C14.1326 7.58974 14.2352 7.28205 14.3377 6.8718H19.8249C19.7223 6.51282 19.5685 6.15385 19.4147 5.79487H14.748C14.9018 5.4359 15.107 5.12821 15.3121 4.71795H18.8506C18.6454 4.35897 18.389 4 18.0813 3.64103H16.1326C16.4403 3.28205 16.748 2.97436 17.1582 2.61538C15.4147 0.974359 13.0557 0 10.4403 0C5.0044 0.153846 0.491577 4.51282 0.491577 10C0.491577 15.4872 4.95312 20 10.4916 20C13.107 20 15.4147 18.9744 17.2095 17.3846C17.5685 17.0769 17.8762 16.7179 18.2352 16.3077H16.1839C15.9275 16 15.6711 15.641 15.4659 15.2821H18.9531C19.1582 14.9744 19.3634 14.6154 19.5172 14.2051H14.8506C14.6967 13.8974 14.5429 13.5385 14.4403 13.1282H19.9275C20.2352 12.2051 20.4403 11.1795 20.4403 10.0513Z" fill="#798797"/>
<path d="M14.03 12.5641L14.1839 11.6411C14.1326 11.6411 14.03 11.6923 13.9275 11.6923C13.5685 11.6923 13.5172 11.4872 13.5685 11.3846L13.8762 9.53849H14.4403L14.5941 8.51285H14.0813L14.1839 7.89746H13.107C13.107 7.89746 12.4916 11.3846 12.4916 11.7949C12.4916 12.4103 12.8506 12.718 13.3634 12.718C13.6711 12.718 13.9275 12.6154 14.03 12.5641Z" fill="white"/>
<path d="M14.3889 10.8714C14.3889 12.3585 15.4146 12.7175 16.2351 12.7175C17.0043 12.7175 17.3633 12.5637 17.3633 12.5637L17.5684 11.538C17.5684 11.538 17.0043 11.7944 16.4402 11.7944C15.2607 11.7944 15.4658 10.9226 15.4658 10.9226H17.6197C17.6197 10.9226 17.7735 10.256 17.7735 9.94828C17.7735 9.28161 17.4146 8.40982 16.2351 8.40982C15.2094 8.35853 14.3889 9.53802 14.3889 10.8714ZM16.2351 9.33289C16.7992 9.33289 16.6966 9.99956 16.6966 10.0508H15.5171C15.5684 9.99956 15.671 9.33289 16.2351 9.33289Z" fill="white"/>
<path d="M22.9531 12.5643L23.1582 11.3848C23.1582 11.3848 22.6454 11.6412 22.2352 11.6412C21.5172 11.6412 21.1582 11.0771 21.1582 10.4104C21.1582 9.12835 21.7736 8.46169 22.5429 8.46169C23.0557 8.46169 23.5172 8.76938 23.5172 8.76938L23.6711 7.64118C23.6711 7.64118 23.0557 7.38477 22.4403 7.38477C21.2095 7.38477 20.03 8.46169 20.03 10.4617C20.03 11.795 20.6454 12.6668 21.9275 12.6668C22.389 12.7181 22.9531 12.5643 22.9531 12.5643Z" fill="white"/>
<path d="M8.23523 8.35938C7.51728 8.35938 6.95318 8.5645 6.95318 8.5645L6.79933 9.48758C6.79933 9.48758 7.26087 9.28245 7.97882 9.28245C8.33779 9.28245 8.64549 9.33373 8.64549 9.64143C8.64549 9.84655 8.5942 9.89784 8.5942 9.89784H8.13266C7.20959 9.89784 6.23523 10.2568 6.23523 11.4876C6.23523 12.4619 6.85061 12.6671 7.26087 12.6671C7.97882 12.6671 8.33779 12.2055 8.38907 12.2055L8.33779 12.6158H9.20959L9.61984 9.69271C9.61984 8.41066 8.5942 8.35938 8.23523 8.35938ZM8.44036 10.7183C8.44036 10.8722 8.33779 11.744 7.72241 11.744C7.41472 11.744 7.31215 11.4876 7.31215 11.3337C7.31215 11.0773 7.466 10.7183 8.28651 10.7183C8.38908 10.7183 8.44036 10.7183 8.44036 10.7183Z" fill="white"/>
<path d="M10.6455 12.6666C10.9019 12.6666 12.2352 12.7179 12.2352 11.282C12.2352 9.94864 10.9531 10.2051 10.9531 9.69223C10.9531 9.43582 11.1583 9.33326 11.5172 9.33326C11.6711 9.33326 12.2352 9.38454 12.2352 9.38454L12.389 8.41018C12.389 8.41018 12.0301 8.30762 11.3634 8.30762C10.5942 8.30762 9.77366 8.61531 9.77366 9.69223C9.77366 10.923 11.107 10.8204 11.107 11.282C11.107 11.5897 10.748 11.6409 10.4916 11.6409C10.0301 11.6409 9.51725 11.4871 9.51725 11.4871L9.3634 12.4615C9.46597 12.564 9.77366 12.6666 10.6455 12.6666Z" fill="white"/>
<path d="M31.7736 7.53809L31.5684 8.97398C31.5684 8.97398 31.1582 8.46116 30.5428 8.46116C29.5684 8.46116 28.7479 9.64065 28.7479 11.0253C28.7479 11.8971 29.1582 12.7689 30.0813 12.7689C30.6966 12.7689 31.1069 12.3586 31.1069 12.3586L31.0556 12.7176H32.1325L32.9018 7.64065L31.7736 7.53809ZM31.2607 10.3073C31.2607 10.8714 31.0043 11.6407 30.389 11.6407C30.03 11.6407 29.8248 11.333 29.8248 10.7689C29.8248 9.89706 30.1838 9.38424 30.6966 9.38424C31.0556 9.43552 31.2607 9.69193 31.2607 10.3073Z" fill="white"/>
<path d="M2.44031 12.615L3.0557 8.82014L3.15826 12.615H3.87621L5.26083 8.82014L4.69672 12.615H5.82493L6.69672 7.53809H4.95313L3.87621 10.6663L3.82493 7.53809H2.28647L1.41467 12.615H2.44031Z" fill="white"/>
<path d="M18.8505 12.6158C19.1582 10.8722 19.2095 9.43627 19.9787 9.69268C20.0813 9.02602 20.2351 8.71832 20.3377 8.46191H20.1326C19.671 8.46191 19.2608 9.0773 19.2608 9.0773L19.3633 8.5132H18.3377L17.671 12.6158H18.8505V12.6158Z" fill="white"/>
<path d="M25.4147 8.35938C24.6967 8.35938 24.1326 8.5645 24.1326 8.5645L23.9788 9.48758C23.9788 9.48758 24.4403 9.28245 25.1583 9.28245C25.5172 9.28245 25.8249 9.33373 25.8249 9.64143C25.8249 9.84655 25.7736 9.89784 25.7736 9.89784H25.3121C24.389 9.89784 23.4147 10.2568 23.4147 11.4876C23.4147 12.4619 24.0301 12.6671 24.4403 12.6671C25.1583 12.6671 25.5172 12.2055 25.5685 12.2055L25.5172 12.6158H26.4916L26.9019 9.69271C26.9019 8.41066 25.7736 8.35938 25.4147 8.35938ZM25.6711 10.7183C25.6711 10.8722 25.5685 11.744 24.9531 11.744C24.6454 11.744 24.5429 11.4876 24.5429 11.3337C24.5429 11.0773 24.6967 10.7183 25.5172 10.7183C25.6198 10.7183 25.6198 10.7183 25.6711 10.7183Z" fill="white"/>
<path d="M27.7223 12.6158C28.03 10.8722 28.0813 9.43627 28.8505 9.69268C28.9531 9.02602 29.107 8.71832 29.2095 8.46191H29.0044C28.5428 8.46191 28.1326 9.0773 28.1326 9.0773L28.2352 8.5132H27.2095L26.5428 12.6158H27.7223V12.6158Z" fill="white"/>
</svg>
