<svg width="10" height="16" viewBox="0 0 10 16" fill="inherit" xmlns="http://www.w3.org/2000/svg">
<path d="M9.20293 9.72736C9.56649 9.3638 9.61842 8.84443 9.3068 8.32505C9.04711 7.90956 8.57968 7.70181 8.06031 7.80568C7.85256 7.85762 7.6448 7.9615 7.43705 8.11731C5.827 9.20799 3.64564 9.15605 2.03558 8.06537C1.93171 8.01343 1.82783 7.96149 1.72395 7.90955C1.15264 7.64987 0.581341 7.75375 0.269717 8.27312C-0.0938436 8.79249 -0.0419126 9.3638 0.425523 9.83124C0.529397 9.93511 0.633272 9.98705 0.685209 10.0909L0.73715 10.1429C1.46427 10.7142 2.34721 11.0777 3.48983 11.2335L2.81464 11.9087C2.24333 12.48 1.62009 13.1033 1.04878 13.6746C0.892964 13.8304 0.685209 14.0901 0.685209 14.4537C0.685209 14.9211 0.9449 15.3885 1.41234 15.5963C1.56815 15.7001 1.72396 15.7001 1.87977 15.7001C2.13945 15.7001 2.45108 15.5963 2.65883 15.3366C3.43789 14.5575 4.06114 13.9343 4.68439 13.311C4.73632 13.2591 4.73632 13.2591 4.73632 13.2591C4.73632 13.2591 4.78826 13.2591 4.78826 13.311C5.20376 13.7785 5.67119 14.194 6.08669 14.6614C6.29444 14.8691 6.50219 15.0769 6.70994 15.2847C6.96962 15.5443 7.17737 15.6482 7.48899 15.6482C7.95643 15.7001 8.4758 15.3885 8.68355 14.9211C8.8913 14.5056 8.78743 13.9862 8.42387 13.6746C7.90449 13.1552 7.38512 12.5839 6.81381 12.0645L5.93088 11.1816C6.39831 11.1297 6.91769 11.0258 7.38512 10.818C8.16418 10.5584 8.73549 10.1948 9.20293 9.72736Z" fill="inherit"/>
<path d="M4.73632 8.27312C6.96962 8.27312 8.78743 6.50724 8.78743 4.27394C8.78743 3.18326 8.37193 2.14452 7.59287 1.36546C6.81381 0.586398 5.827 0.170898 4.78826 0.170898C2.55495 0.170898 0.789086 1.9887 0.737149 4.17007C0.737149 5.26075 1.15265 6.24756 1.93171 7.02662C2.65883 7.85761 3.64563 8.27312 4.73632 8.27312ZM3.5937 3.07939C3.90532 2.76776 4.32082 2.61195 4.73632 2.61195C5.67119 2.61195 6.34638 3.33907 6.34638 4.22201C6.34638 5.15688 5.61925 5.83206 4.73632 5.83206C3.80145 5.83206 3.12627 5.10494 3.12627 4.22201C3.12627 3.80651 3.28208 3.39101 3.5937 3.07939Z" fill="inherit"/>
<path d="M9.20293 9.72736C9.56649 9.3638 9.61842 8.84443 9.3068 8.32505C9.04711 7.90956 8.57968 7.70181 8.06031 7.80568C7.85256 7.85762 7.6448 7.9615 7.43705 8.11731C5.827 9.20799 3.64564 9.15605 2.03558 8.06537C1.93171 8.01343 1.82783 7.96149 1.72395 7.90955C1.15264 7.64987 0.581341 7.75375 0.269717 8.27312C-0.0938436 8.79249 -0.0419126 9.3638 0.425523 9.83124C0.529397 9.93511 0.633272 9.98705 0.685209 10.0909L0.73715 10.1429C1.46427 10.7142 2.34721 11.0777 3.48983 11.2335L2.81464 11.9087C2.24333 12.48 1.62009 13.1033 1.04878 13.6746C0.892964 13.8304 0.685209 14.0901 0.685209 14.4537C0.685209 14.9211 0.9449 15.3885 1.41234 15.5963C1.56815 15.7001 1.72396 15.7001 1.87977 15.7001C2.13945 15.7001 2.45108 15.5963 2.65883 15.3366C3.43789 14.5575 4.06114 13.9343 4.68439 13.311C4.73632 13.2591 4.73632 13.2591 4.73632 13.2591C4.73632 13.2591 4.78826 13.2591 4.78826 13.311C5.20376 13.7785 5.67119 14.194 6.08669 14.6614C6.29444 14.8691 6.50219 15.0769 6.70994 15.2847C6.96962 15.5443 7.17737 15.6482 7.48899 15.6482C7.95643 15.7001 8.4758 15.3885 8.68355 14.9211C8.8913 14.5056 8.78743 13.9862 8.42387 13.6746C7.90449 13.1552 7.38512 12.5839 6.81381 12.0645L5.93088 11.1816C6.39831 11.1297 6.91769 11.0258 7.38512 10.818C8.16418 10.5584 8.73549 10.1948 9.20293 9.72736Z" fill="inherit"/>
</svg>
