<svg width="91" height="19" viewBox="0 0 91 19" fill="none" xmlns="http://www.w3.org/2000/svg">
<path d="M16.2028 6.70694L11.7397 6.05831L9.74459 2.01358C9.6901 1.90284 9.60045 1.81319 9.48971 1.7587C9.21197 1.62159 8.87447 1.73585 8.73561 2.01358L6.74049 6.05831L2.2774 6.70694C2.15436 6.72452 2.04186 6.78253 1.95572 6.87042C1.85159 6.97744 1.79421 7.12143 1.79619 7.27074C1.79817 7.42006 1.85934 7.56247 1.96627 7.66671L5.19537 10.8149L4.43248 15.2605C4.41459 15.3639 4.42604 15.4702 4.46552 15.5675C4.50499 15.6647 4.57093 15.7489 4.65584 15.8106C4.74076 15.8723 4.84126 15.9089 4.94594 15.9164C5.05062 15.9239 5.1553 15.9018 5.24811 15.8528L9.2401 13.754L13.2321 15.8528C13.3411 15.9108 13.4676 15.9302 13.5889 15.9091C13.8948 15.8564 14.1005 15.5663 14.0477 15.2605L13.2848 10.8149L16.5139 7.66671C16.6018 7.58057 16.6598 7.46807 16.6774 7.34503C16.7249 7.03741 16.5104 6.75264 16.2028 6.70694Z" fill="#FFC416"/>
<path d="M34.2028 6.70694L29.7397 6.05831L27.7446 2.01358C27.6901 1.90284 27.6005 1.81319 27.4897 1.7587C27.212 1.62159 26.8745 1.73585 26.7356 2.01358L24.7405 6.05831L20.2774 6.70694C20.1544 6.72452 20.0419 6.78253 19.9557 6.87042C19.8516 6.97744 19.7942 7.12143 19.7962 7.27074C19.7982 7.42006 19.8593 7.56247 19.9663 7.66671L23.1954 10.8149L22.4325 15.2605C22.4146 15.3639 22.426 15.4702 22.4655 15.5675C22.505 15.6647 22.5709 15.7489 22.6558 15.8106C22.7408 15.8723 22.8413 15.9089 22.9459 15.9164C23.0506 15.9239 23.1553 15.9018 23.2481 15.8528L27.2401 13.754L31.2321 15.8528C31.3411 15.9108 31.4676 15.9302 31.5889 15.9091C31.8948 15.8564 32.1005 15.5663 32.0477 15.2605L31.2848 10.8149L34.5139 7.66671C34.6018 7.58057 34.6598 7.46807 34.6774 7.34503C34.7249 7.03741 34.5104 6.75264 34.2028 6.70694Z" fill="#FFC416"/>
<path d="M52.2028 6.70694L47.7397 6.05831L45.7446 2.01358C45.6901 1.90284 45.6005 1.81319 45.4897 1.7587C45.212 1.62159 44.8745 1.73585 44.7356 2.01358L42.7405 6.05831L38.2774 6.70694C38.1544 6.72452 38.0419 6.78253 37.9557 6.87042C37.8516 6.97744 37.7942 7.12143 37.7962 7.27074C37.7982 7.42006 37.8593 7.56247 37.9663 7.66671L41.1954 10.8149L40.4325 15.2605C40.4146 15.3639 40.426 15.4702 40.4655 15.5675C40.505 15.6647 40.5709 15.7489 40.6558 15.8106C40.7408 15.8723 40.8413 15.9089 40.9459 15.9164C41.0506 15.9239 41.1553 15.9018 41.2481 15.8528L45.2401 13.754L49.2321 15.8528C49.3411 15.9108 49.4676 15.9302 49.5889 15.9091C49.8948 15.8564 50.1005 15.5663 50.0477 15.2605L49.2848 10.8149L52.5139 7.66671C52.6018 7.58057 52.6598 7.46807 52.6774 7.34503C52.7249 7.03741 52.5104 6.75264 52.2028 6.70694V6.70694Z" fill="#FFC416"/>
<path d="M65.2913 6.27949L65.4076 6.51529L65.6678 6.55311L70.1293 7.20151C70.1294 7.20153 70.1296 7.20155 70.1297 7.20157C70.1687 7.20757 70.1875 7.24108 70.1833 7.26878L70.1832 7.26878L70.1824 7.27431C70.1807 7.28639 70.1749 7.29876 70.1642 7.30941C70.1641 7.30947 70.164 7.30954 70.164 7.3096L66.9358 10.4569L66.7476 10.6404L66.792 10.8995L67.5549 15.345L67.555 15.3454C67.5606 15.3779 67.5389 15.4103 67.504 15.4164L67.5033 15.4165C67.4892 15.4189 67.4757 15.4161 67.467 15.4115L67.4648 15.4103L63.4728 13.3114L63.2401 13.1891L63.0074 13.3114L59.0154 15.4103L59.0147 15.4107C59.0045 15.4161 58.993 15.4185 58.9815 15.4177C58.97 15.4168 58.959 15.4128 58.9497 15.4061C58.9404 15.3993 58.9331 15.39 58.9288 15.3794C58.9245 15.3687 58.9232 15.357 58.9252 15.3457L58.9253 15.345L59.6882 10.8995L59.7326 10.6404L59.5444 10.4569L56.3153 7.3087L56.3153 7.30867C56.3033 7.29694 56.2964 7.28092 56.2961 7.26412C56.2959 7.24762 56.3022 7.23169 56.3135 7.21972C56.324 7.20923 56.3362 7.20361 56.3481 7.20192L56.3493 7.20174L60.8124 6.55311L61.0726 6.51529L61.1889 6.27949L63.1828 2.23719C63.1829 2.23698 63.183 2.23678 63.1831 2.23657C63.1999 2.2039 63.2391 2.19257 63.2684 2.20704L63.269 2.20733C63.2807 2.21309 63.2902 2.22262 63.296 2.23433L63.2962 2.23477L65.2913 6.27949Z" stroke="#C4C4C4"/>
<path d="M83.2913 6.27949L83.4076 6.51529L83.6678 6.55311L88.1293 7.20151C88.1294 7.20153 88.1296 7.20155 88.1297 7.20157C88.1687 7.20757 88.1875 7.24108 88.1833 7.26878L88.1832 7.26878L88.1824 7.27431C88.1807 7.28639 88.1749 7.29876 88.1642 7.30941C88.1641 7.30947 88.164 7.30954 88.164 7.3096L84.9358 10.4569L84.7476 10.6404L84.792 10.8995L85.5549 15.345L85.555 15.3454C85.5606 15.3779 85.5389 15.4103 85.504 15.4164L85.5033 15.4165C85.4892 15.4189 85.4757 15.4161 85.467 15.4115L85.4648 15.4103L81.4728 13.3114L81.2401 13.1891L81.0074 13.3114L77.0154 15.4103L77.0147 15.4107C77.0045 15.4161 76.993 15.4185 76.9815 15.4177C76.97 15.4168 76.959 15.4128 76.9497 15.4061C76.9404 15.3993 76.9331 15.39 76.9288 15.3794C76.9245 15.3687 76.9232 15.357 76.9252 15.3457L76.9253 15.345L77.6882 10.8995L77.7326 10.6404L77.5444 10.4569L74.3153 7.3087L74.3153 7.30867C74.3033 7.29694 74.2964 7.28092 74.2961 7.26412C74.2959 7.24762 74.3022 7.23169 74.3135 7.21972C74.324 7.20923 74.3362 7.20361 74.3481 7.20192L74.3493 7.20174L78.8124 6.55311L79.0726 6.51529L79.1889 6.27949L81.1828 2.23719C81.1829 2.23698 81.183 2.23678 81.1831 2.23657C81.1999 2.2039 81.2391 2.19257 81.2684 2.20704L81.269 2.20733C81.2807 2.21309 81.2902 2.22262 81.296 2.23433L81.2962 2.23477L83.2913 6.27949Z" stroke="#C4C4C4"/>
</svg>
