<svg width="24" height="25" viewBox="0 0 24 25" fill="none" xmlns="http://www.w3.org/2000/svg">
<path d="M14.5 14.5H13.71L13.43 14.23C14.63 12.83 15.25 10.92 14.91 8.89002C14.44 6.11002 12.12 3.89002 9.32001 3.55002C5.09001 3.03002 1.53002 6.59001 2.05002 10.82C2.39002 13.62 4.61002 15.94 7.39002 16.41C9.42002 16.75 11.33 16.13 12.73 14.93L13 15.21V16L17.25 20.25C17.66 20.66 18.33 20.66 18.74 20.25C19.15 19.84 19.15 19.17 18.74 18.76L14.5 14.5ZM8.50002 14.5C6.01002 14.5 4.00002 12.49 4.00002 10C4.00002 7.51002 6.01002 5.50002 8.50002 5.50002C10.99 5.50002 13 7.51002 13 10C13 12.49 10.99 14.5 8.50002 14.5Z" fill="#27AE60"/>
</svg>
