<svg width="22" height="22" viewBox="0 0 22 22" fill="none" xmlns="http://www.w3.org/2000/svg">
<g clip-path="url(#clip0)">
<path d="M22 9.16662C22 9.09971 21.9927 9.03299 21.978 8.9677L20.7863 3.5887C20.5649 2.56776 19.9992 1.65397 19.1841 1.00057C18.369 0.347171 17.354 -0.00611375 16.3093 -4.51722e-05H5.69067C4.64663 -0.00527045 3.6325 0.3484 2.81814 1.00173C2.00377 1.65506 1.43861 2.56838 1.21733 3.5887L0.0220013 8.9677C0.00734201 9.03299 -3.63549e-05 9.09971 1.25528e-06 9.16662V10.0833C-0.000738318 10.9757 0.325346 11.8376 0.916668 12.506V17.4166C0.918123 18.6318 1.40148 19.7967 2.2607 20.6559C3.11993 21.5151 4.28487 21.9985 5.5 22H16.5C17.7151 21.9985 18.8801 21.5151 19.7393 20.6559C20.5985 19.7967 21.0819 18.6318 21.0833 17.4166V12.506C21.6747 11.8376 22.0007 10.9757 22 10.0833V9.16662ZM1.83333 9.26654L3.00667 3.98654C3.13962 3.37444 3.47877 2.82656 3.96735 2.4346C4.45592 2.04263 5.0643 1.83036 5.69067 1.83329H6.41667V4.58329C6.41667 4.8264 6.51324 5.05956 6.68515 5.23147C6.85706 5.40338 7.09022 5.49995 7.33333 5.49995C7.57645 5.49995 7.80961 5.40338 7.98151 5.23147C8.15342 5.05956 8.25 4.8264 8.25 4.58329V1.83329H13.75V4.58329C13.75 4.8264 13.8466 5.05956 14.0185 5.23147C14.1904 5.40338 14.4236 5.49995 14.6667 5.49995C14.9098 5.49995 15.1429 5.40338 15.3148 5.23147C15.4868 5.05956 15.5833 4.8264 15.5833 4.58329V1.83329H16.3093C16.9357 1.83036 17.5441 2.04263 18.0327 2.4346C18.5212 2.82656 18.8604 3.37444 18.9933 3.98654L20.1667 9.26654V10.0833C20.1667 10.5695 19.9735 11.0358 19.6297 11.3797C19.2859 11.7235 18.8196 11.9166 18.3333 11.9166H17.4167C16.9304 11.9166 16.4641 11.7235 16.1203 11.3797C15.7765 11.0358 15.5833 10.5695 15.5833 10.0833C15.5833 9.84017 15.4868 9.60701 15.3148 9.43511C15.1429 9.2632 14.9098 9.16662 14.6667 9.16662C14.4236 9.16662 14.1904 9.2632 14.0185 9.43511C13.8466 9.60701 13.75 9.84017 13.75 10.0833C13.75 10.5695 13.5568 11.0358 13.213 11.3797C12.8692 11.7235 12.4029 11.9166 11.9167 11.9166H10.0833C9.5971 11.9166 9.13079 11.7235 8.78697 11.3797C8.44315 11.0358 8.25 10.5695 8.25 10.0833C8.25 9.84017 8.15342 9.60701 7.98151 9.43511C7.80961 9.2632 7.57645 9.16662 7.33333 9.16662C7.09022 9.16662 6.85706 9.2632 6.68515 9.43511C6.51324 9.60701 6.41667 9.84017 6.41667 10.0833C6.41667 10.5695 6.22351 11.0358 5.8797 11.3797C5.53588 11.7235 5.06956 11.9166 4.58333 11.9166H3.66667C3.18044 11.9166 2.71412 11.7235 2.37031 11.3797C2.02649 11.0358 1.83333 10.5695 1.83333 10.0833V9.26654ZM16.5 20.1666H5.5C4.77066 20.1666 4.07118 19.8769 3.55546 19.3612C3.03973 18.8454 2.75 18.146 2.75 17.4166V13.6335C3.04938 13.7111 3.35741 13.7502 3.66667 13.75H4.58333C5.10383 13.7502 5.61839 13.6394 6.09263 13.4249C6.56687 13.2104 6.98986 12.8971 7.33333 12.506C7.67681 12.8971 8.0998 13.2104 8.57404 13.4249C9.04827 13.6394 9.56284 13.7502 10.0833 13.75H11.9167C12.4372 13.7502 12.9517 13.6394 13.426 13.4249C13.9002 13.2104 14.3232 12.8971 14.6667 12.506C15.0101 12.8971 15.4331 13.2104 15.9074 13.4249C16.3816 13.6394 16.8962 13.7502 17.4167 13.75H18.3333C18.6426 13.7502 18.9506 13.7111 19.25 13.6335V17.4166C19.25 18.146 18.9603 18.8454 18.4445 19.3612C17.9288 19.8769 17.2293 20.1666 16.5 20.1666Z" fill="white"/>
</g>
<defs>
<clipPath id="clip0">
<rect width="22" height="22" fill="white"/>
</clipPath>
</defs>
</svg>
