<svg width="42" height="42" viewBox="0 0 42 42" fill="none" xmlns="http://www.w3.org/2000/svg">
<path d="M27.025 23.7167L24.9083 23.475C24.4 23.4167 23.9 23.5917 23.5416 23.95L22.0083 25.4833C19.65 24.2833 17.7166 22.3583 16.5166 19.9917L18.0583 18.45C18.4166 18.0917 18.5916 17.5917 18.5333 17.0833L18.2916 14.9833C18.1916 14.1417 17.4833 13.5083 16.6333 13.5083H15.1916C14.25 13.5083 13.4666 14.2917 13.525 15.2333C13.9666 22.35 19.6583 28.0333 26.7666 28.475C27.7083 28.5333 28.4916 27.75 28.4916 26.8083V25.3667C28.5 24.525 27.8666 23.8167 27.025 23.7167Z" fill="#F7F896"/>
<rect x="0.5" y="0.5" width="41" height="41" rx="5.5" stroke="#27AE60" stroke-linecap="round" stroke-linejoin="round"/>
</svg>
