<svg width="24" height="25" viewBox="0 0 24 25" fill="none" xmlns="http://www.w3.org/2000/svg">
<path d="M11 18.2578H13V16.2578H11V18.2578ZM12 2.25781C6.48 2.25781 2 6.73781 2 12.2578C2 17.7778 6.48 22.2578 12 22.2578C17.52 22.2578 22 17.7778 22 12.2578C22 6.73781 17.52 2.25781 12 2.25781ZM12 20.2578C7.59 20.2578 4 16.6678 4 12.2578C4 7.84781 7.59 4.25781 12 4.25781C16.41 4.25781 20 7.84781 20 12.2578C20 16.6678 16.41 20.2578 12 20.2578ZM12 6.25781C9.79 6.25781 8 8.04781 8 10.2578H10C10 9.15781 10.9 8.25781 12 8.25781C13.1 8.25781 14 9.15781 14 10.2578C14 12.2578 11 12.0078 11 15.2578H13C13 13.0078 16 12.7578 16 10.2578C16 8.04781 14.21 6.25781 12 6.25781Z" fill="white"/>
</svg>
