<svg width="15" height="11" viewBox="0 0 15 11" fill="inherit" xmlns="http://www.w3.org/2000/svg">
<path d="M14.5612 1.34181C14.0762 1.54967 13.5219 1.68825 12.9676 1.75753C13.5219 1.4111 14.0069 0.856821 14.2148 0.23325C13.6605 0.579678 13.1062 0.787536 12.4133 0.926107C11.9283 0.371821 11.1662 0.0253906 10.4041 0.0253906C8.87977 0.0253906 7.63262 1.27253 7.63262 2.79682C7.63262 3.00468 7.63263 3.21253 7.70191 3.42039C5.41548 3.28182 3.33691 2.17325 1.9512 0.510389C1.74334 0.926103 1.60477 1.4111 1.60477 1.8961C1.60477 2.8661 2.08977 3.69753 2.85191 4.18253C2.36691 4.18253 1.9512 4.04396 1.60477 3.8361C1.60477 5.15253 2.57477 6.33039 3.82191 6.53824C3.61405 6.60753 3.33692 6.60753 3.05977 6.60753C2.85192 6.60753 2.71334 6.60753 2.50548 6.53824C2.85191 7.64681 3.8912 8.47825 5.13834 8.47825C4.16834 9.24039 2.99049 9.6561 1.67406 9.6561C1.4662 9.6561 1.25834 9.65611 0.981201 9.58682C2.22834 10.349 3.68334 10.834 5.27691 10.834C10.4041 10.834 13.1755 6.60753 13.1755 2.93539V2.58896C13.7298 2.3811 14.2148 1.8961 14.5612 1.34181Z" fill="inherit"/>
</svg>
