<svg width="15" height="9" viewBox="0 0 15 9" fill="inherit" xmlns="http://www.w3.org/2000/svg">
<path d="M14.8657 7.82555C14.8657 7.76803 14.8082 7.76803 14.8082 7.71051C14.5781 7.25032 14.0604 6.67509 13.3701 6.04234C13.025 5.75473 12.8524 5.52463 12.7374 5.40958C12.5648 5.17949 12.5648 5.00693 12.6223 4.77684C12.6798 4.60427 12.9099 4.31665 13.3126 3.79894C13.5427 3.51132 13.6577 3.33876 13.8303 3.16619C14.6931 2.01573 15.0958 1.26793 14.9808 0.922787L14.9232 0.865269C14.8657 0.807746 14.8082 0.750225 14.6931 0.750225C14.5781 0.692702 14.4055 0.692702 14.233 0.750225H12.0471C11.9896 0.750225 11.9896 0.750225 11.8745 0.750225C11.817 0.750225 11.7595 0.750225 11.7595 0.750225H11.702H11.6444L11.5869 0.807743C11.5294 0.865266 11.5294 0.865264 11.5294 0.922787C11.2993 1.55554 11.0117 2.07325 10.7241 2.64848C10.5515 2.93609 10.3789 3.22371 10.2064 3.45381C10.0338 3.6839 9.91873 3.85646 9.80368 3.97151C9.68864 4.08656 9.57359 4.14408 9.51607 4.25912C9.45854 4.31665 9.34351 4.37417 9.34351 4.31665C9.28598 4.31665 9.22845 4.31665 9.22845 4.25912C9.17093 4.2016 9.11341 4.14408 9.05589 4.08655C8.99837 4.02903 8.99836 3.91398 8.94084 3.79894C8.94084 3.68389 8.94084 3.56885 8.94084 3.51132C8.94084 3.4538 8.94084 3.28124 8.94084 3.16619C8.94084 2.99362 8.94084 2.87857 8.94084 2.82105C8.94084 2.64848 8.94084 2.41839 8.94084 2.1883C8.94084 1.95821 8.94084 1.78563 8.94084 1.67059C8.94084 1.55554 8.94084 1.38297 8.94084 1.26793C8.94084 1.09536 8.94084 0.98031 8.94084 0.922787C8.94084 0.865264 8.88333 0.750221 8.88333 0.692698C8.82581 0.635175 8.76827 0.577651 8.71075 0.520128C8.65323 0.462605 8.53818 0.462606 8.48066 0.405083C8.19305 0.34756 7.84791 0.290039 7.44525 0.290039C6.52488 0.290039 5.89213 0.347564 5.66204 0.46261C5.54699 0.520133 5.43194 0.577652 5.37442 0.692698C5.25937 0.807745 5.25937 0.865269 5.31689 0.865269C5.60451 0.922792 5.8346 1.03783 5.94965 1.2104L6.00718 1.32546C6.0647 1.38298 6.06469 1.49802 6.12221 1.67059C6.17974 1.84316 6.17974 2.01573 6.17974 2.24582C6.17974 2.59096 6.17974 2.9361 6.17974 3.16619C6.17974 3.45381 6.12221 3.62637 6.12221 3.79894C6.12221 3.97151 6.0647 4.08656 6.00718 4.14408C5.94965 4.25913 5.94965 4.31665 5.89212 4.31665C5.89212 4.31665 5.89212 4.37417 5.8346 4.37417C5.77707 4.37417 5.71955 4.43169 5.60451 4.43169C5.54699 4.43169 5.43194 4.37417 5.37442 4.31665C5.25937 4.25913 5.14433 4.14408 5.08681 4.02904C4.97176 3.91399 4.85671 3.74142 4.74166 3.51132C4.62662 3.28123 4.45404 3.05114 4.339 2.706L4.22396 2.47592C4.16644 2.36087 4.05139 2.13077 3.93634 1.84316C3.8213 1.55554 3.70625 1.32546 3.5912 1.03784C3.53368 0.922794 3.47616 0.865266 3.41864 0.807743H3.36111C3.36111 0.807743 3.30358 0.750225 3.24606 0.750225C3.18854 0.750225 3.13102 0.692698 3.0735 0.692698H1.00267C0.772574 0.692698 0.65753 0.75022 0.600007 0.807743L0.54248 0.865269C0.54248 0.865269 0.54248 0.922791 0.54248 0.980314C0.54248 1.03784 0.542484 1.09536 0.600007 1.2104C0.887622 1.90068 1.23276 2.59096 1.5779 3.28123C1.92303 3.91399 2.26818 4.48922 2.49827 4.89188C2.78588 5.29454 3.01597 5.6972 3.30359 6.04234C3.5912 6.38748 3.76377 6.61757 3.82129 6.73262C3.93634 6.84766 3.99386 6.90518 4.05138 6.9627L4.22396 7.13528C4.33901 7.25032 4.51157 7.42289 4.74166 7.59546C4.97176 7.76803 5.25937 7.9406 5.54698 8.11316C5.8346 8.28573 6.17974 8.40079 6.52488 8.51583C6.92754 8.63088 7.27268 8.6884 7.61782 8.63088H8.48066C8.65323 8.63088 8.76828 8.57335 8.88333 8.45831L8.94084 8.40078C8.94084 8.34326 8.99836 8.34326 8.99836 8.28574C8.99836 8.22821 8.99836 8.17069 8.99836 8.05565C8.99836 7.82556 8.99837 7.65299 9.05589 7.48042C9.11341 7.30785 9.11342 7.1928 9.17094 7.07776C9.22847 6.96271 9.28598 6.90518 9.34351 6.84766C9.40103 6.79014 9.45856 6.73262 9.45856 6.73262H9.51607C9.63111 6.67509 9.80369 6.73261 9.91874 6.84766C10.0913 6.96271 10.2639 7.13528 10.3789 7.30785C10.494 7.48042 10.6665 7.65298 10.8966 7.88308C11.1267 8.11317 11.2993 8.28574 11.4143 8.34326L11.5869 8.45831C11.7019 8.51583 11.817 8.57335 11.9896 8.63088C12.1621 8.6884 12.2772 8.6884 12.3922 8.6884L14.348 8.63088C14.5206 8.63088 14.6931 8.57336 14.8082 8.51583C14.9232 8.45831 14.9808 8.40078 14.9808 8.28574C14.9808 8.22821 14.9808 8.11317 14.9808 8.05565C14.8657 7.9406 14.8657 7.88307 14.8657 7.82555Z" fill="inherit"/>
</svg>
