<svg width="26" height="27" viewBox="0 0 26 27" fill="none" xmlns="http://www.w3.org/2000/svg">
<path d="M16.7917 15.8807H15.9358L15.6325 15.5882C16.9325 14.0716 17.6042 12.0024 17.2358 9.80322C16.7267 6.79156 14.2133 4.38656 11.18 4.01822C6.59749 3.45489 2.75166 7.31156 3.30416 11.8941C3.67249 14.9274 6.07749 17.4407 9.08916 17.9499C11.2883 18.3182 13.3575 17.6466 14.8742 16.3466L15.1667 16.6499V17.5057L19.7817 22.1099C20.2258 22.5541 20.9408 22.5541 21.385 22.1099L21.3958 22.0991C21.84 21.6549 21.84 20.9399 21.3958 20.4957L16.7917 15.8807ZM10.2917 15.8807C7.59416 15.8807 5.41666 13.7032 5.41666 11.0057C5.41666 8.30822 7.59416 6.13072 10.2917 6.13072C12.9892 6.13072 15.1667 8.30822 15.1667 11.0057C15.1667 13.7032 12.9892 15.8807 10.2917 15.8807ZM10.2917 8.29739C9.98832 8.29739 9.74999 8.53572 9.74999 8.83906V10.4641H8.12499C7.82166 10.4641 7.58332 10.7024 7.58332 11.0057C7.58332 11.3091 7.82166 11.5474 8.12499 11.5474H9.74999V13.1724C9.74999 13.4757 9.98832 13.7141 10.2917 13.7141C10.595 13.7141 10.8333 13.4757 10.8333 13.1724V11.5474H12.4583C12.7617 11.5474 13 11.3091 13 11.0057C13 10.7024 12.7617 10.4641 12.4583 10.4641H10.8333V8.83906C10.8333 8.53572 10.595 8.29739 10.2917 8.29739Z" fill="#C9CCCF"/>
</svg>
