<svg width="48" height="48" viewBox="0 0 48 48" fill="none" xmlns="http://www.w3.org/2000/svg">
<g clip-path="url(#clip0)">
<path d="M47.0251 16.614L26.798 0.97532C25.1112 -0.206841 22.8629 -0.201347 21.182 0.989602L0.990407 16.6012C0.156156 17.1656 -0.202008 18.2152 0.112942 19.1717C0.460119 20.1488 1.36285 20.8197 2.39853 20.8703V44.8874C2.40036 46.654 3.83228 48.0856 5.59856 48.0874H42.3997C44.166 48.0856 45.5976 46.654 45.5998 44.8874V20.8703C46.6354 20.8197 47.5382 20.1488 47.8853 19.1717C48.2003 18.2228 47.8494 17.1799 47.0251 16.614V16.614ZM42.3997 46.4874H5.59856C4.71524 46.4867 3.99964 45.7707 3.99854 44.8874V20.4352L24.0162 4.89571L43.9997 20.4348V44.8874C43.9986 45.7707 43.283 46.4867 42.3997 46.4874ZM46.3641 18.6751C46.2051 19.0743 45.8037 19.3226 45.3756 19.2867H45.1303L24.9141 3.5667C24.9043 3.55937 24.8922 3.55827 24.8826 3.55095C24.8728 3.54362 24.8676 3.533 24.8574 3.52641C24.3099 3.18912 23.6159 3.20487 23.0841 3.56633L2.86802 19.2867H2.62265C2.19454 19.3226 1.79316 19.0743 1.63422 18.6751C1.53827 18.3682 1.67121 18.0361 1.9521 17.8797L22.1415 2.26918C23.2482 1.48839 24.7252 1.4829 25.8377 2.25489L46.0638 17.8925C46.3359 18.05 46.4607 18.3759 46.3641 18.6751V18.6751Z" fill="white"/>
<path d="M18.0617 26.5636L25.4693 16.3925L32.8769 26.5636C37.2877 32.62 32.9617 41.1224 25.4693 41.1224C17.9769 41.1224 13.6509 32.62 18.0617 26.5636Z" stroke="white" stroke-width="2"/>
<path fill-rule="evenodd" clip-rule="evenodd" d="M11.9324 24.2711L16.7671 17.6327L20.5713 22.8561L19.1781 24.2711L16.7671 20.9606L13.5161 25.4245C11.5802 28.0825 13.4789 31.814 16.7671 31.814V33.7732C11.877 33.7732 9.05354 28.2239 11.9324 24.2711Z" fill="white"/>
<path d="M25.0853 36.712C23.4531 36.712 22.1632 35.7925 21.5148 34.5414C21.2218 33.9759 20.5195 33.6277 19.9609 33.9337V33.9337C19.5847 34.1398 19.3937 34.5816 19.5585 34.9777C20.4298 37.0713 22.4596 38.6712 25.0853 38.6712C26.8597 38.6712 28.3621 37.9405 29.4186 36.8205C29.731 36.4893 29.6889 35.9761 29.3719 35.6492V35.6492C28.9437 35.2076 28.2098 35.2997 27.7508 35.7091C27.0614 36.324 26.1456 36.712 25.0853 36.712Z" fill="white"/>
</g>
<defs>
<clipPath id="clip0">
<rect width="48" height="48" fill="white"/>
</clipPath>
</defs>
</svg>
