<svg width="2431" height="548" viewBox="0 0 2431 548" fill="none" xmlns="http://www.w3.org/2000/svg">
<path fill-rule="evenodd" clip-rule="evenodd" d="M81.3272 141.812H2.75635L111.547 404.696H197.666L306.456 141.812H227.886L153.854 318.564L81.3272 141.812ZM2093.83 143.317H2016.77V301.95L1918.56 143.317H1826.4V404.696H1901.95V246.05L2001.67 404.696H2093.83V143.317V143.317ZM2429.24 140.295H2350.66V298.941L2253.97 140.295H2161.82V401.661H2237.36V243.028L2337.08 401.661H2429.24V140.295ZM1601.28 143.317H1679.84L1808.26 404.696H1725.18L1704.03 360.871H1577.09L1555.96 404.696H1477.38L1601.28 143.317V143.317ZM1640.54 220.37L1601.28 297.423H1678.33L1640.54 220.37ZM1131.39 141.812V406.188H1209.96V247.567L1268.88 404.696H1323.26L1383.71 246.05V404.696H1460.77V141.812H1348.95L1296.09 288.344L1241.67 141.812H1131.39V141.812ZM989.366 483.254C1002.96 483.254 1013.54 478.715 1013.54 466.64C1013.54 450.026 999.95 447.004 984.84 447.004H871.523C830.72 445.486 792.952 416.784 791.448 368.42C791.448 332.169 817.128 288.345 868.488 283.818H1061.88V347.279H871.523C862.457 347.279 857.931 357.862 857.931 365.411C857.931 374.477 863.975 383.543 873.041 383.543L987.875 385.034C1039.25 385.034 1077.02 413.736 1077.02 469.636C1077.02 528.557 1018.09 546.689 989.392 546.689H808.062V483.228H989.366V483.254V483.254ZM989.366 200.734C1002.96 200.734 1013.54 194.69 1013.54 184.106C1013.54 167.492 999.95 164.47 984.84 164.47H871.523C830.72 162.953 792.952 134.251 791.448 85.8994C791.448 49.636 817.128 5.82406 868.488 1.29761H1061.88V64.7587H871.523C862.457 64.7587 857.931 75.329 857.931 82.8904C857.931 91.9563 863.975 101.022 873.041 101.022H987.875C1039.25 102.527 1077.02 131.242 1077.02 187.141C1077.02 246.063 1018.09 264.195 989.392 264.195H808.062V200.734H989.366ZM484.739 404.696V143.317H743.096V206.765H561.792V243.028H708.35V306.489H561.792V341.235H743.096V404.696H484.739V404.696ZM338.18 143.317H415.234V404.696H338.18V143.317Z" fill="#D14F2A" stroke="#D14F2A" stroke-width="2.43832" stroke-miterlimit="2.613"/>
</svg>
