<svg width="24" height="17" viewBox="0 0 24 17" fill="none" xmlns="http://www.w3.org/2000/svg">
<g clip-path="url(#clip0)">
<rect x="0.799988" y="0.5" width="22.4" height="16" rx="2" fill="white"/>
<mask id="mask0" mask-type="alpha" maskUnits="userSpaceOnUse" x="0" y="0" width="24" height="17">
<rect x="0.799988" y="0.5" width="22.4" height="16" rx="2" fill="white"/>
</mask>
<g mask="url(#mask0)">
<path fill-rule="evenodd" clip-rule="evenodd" d="M23.2 0.5H0.799988V1.56667H23.2V0.5ZM23.2 2.63333H0.799988V3.7H23.2V2.63333ZM0.799988 4.76667H23.2V5.83333H0.799988V4.76667ZM23.2 6.9H0.799988V7.96667H23.2V6.9ZM0.799988 9.03333H23.2V10.1H0.799988V9.03333ZM23.2 11.1667H0.799988V12.2333H23.2V11.1667ZM0.799988 13.3H23.2V14.3667H0.799988V13.3ZM23.2 15.4333H0.799988V16.5H23.2V15.4333Z" fill="#D02F44"/>
<rect x="0.799988" y="0.5" width="9.6" height="7.46667" fill="#46467F"/>
<g filter="url(#filter0_d)">
<path fill-rule="evenodd" clip-rule="evenodd" d="M2.93331 2.09998C2.93331 2.39454 2.69452 2.63332 2.39997 2.63332C2.10542 2.63332 1.86664 2.39454 1.86664 2.09998C1.86664 1.80543 2.10542 1.56665 2.39997 1.56665C2.69452 1.56665 2.93331 1.80543 2.93331 2.09998ZM5.06667 2.09998C5.06667 2.39454 4.82789 2.63332 4.53334 2.63332C4.23879 2.63332 4 2.39454 4 2.09998C4 1.80543 4.23879 1.56665 4.53334 1.56665C4.82789 1.56665 5.06667 1.80543 5.06667 2.09998ZM6.66661 2.63332C6.96116 2.63332 7.19994 2.39454 7.19994 2.09998C7.19994 1.80543 6.96116 1.56665 6.66661 1.56665C6.37205 1.56665 6.13327 1.80543 6.13327 2.09998C6.13327 2.39454 6.37205 2.63332 6.66661 2.63332ZM9.3333 2.09998C9.3333 2.39454 9.09452 2.63332 8.79997 2.63332C8.50542 2.63332 8.26664 2.39454 8.26664 2.09998C8.26664 1.80543 8.50542 1.56665 8.79997 1.56665C9.09452 1.56665 9.3333 1.80543 9.3333 2.09998ZM3.46661 3.69998C3.76116 3.69998 3.99994 3.4612 3.99994 3.16665C3.99994 2.8721 3.76116 2.63332 3.46661 2.63332C3.17205 2.63332 2.93327 2.8721 2.93327 3.16665C2.93327 3.4612 3.17205 3.69998 3.46661 3.69998ZM6.1333 3.16665C6.1333 3.4612 5.89452 3.69998 5.59997 3.69998C5.30542 3.69998 5.06664 3.4612 5.06664 3.16665C5.06664 2.8721 5.30542 2.63332 5.59997 2.63332C5.89452 2.63332 6.1333 2.8721 6.1333 3.16665ZM7.73334 3.69998C8.02789 3.69998 8.26667 3.4612 8.26667 3.16665C8.26667 2.8721 8.02789 2.63332 7.73334 2.63332C7.43879 2.63332 7.2 2.8721 7.2 3.16665C7.2 3.4612 7.43879 3.69998 7.73334 3.69998ZM9.3333 4.23332C9.3333 4.52787 9.09452 4.76665 8.79997 4.76665C8.50542 4.76665 8.26664 4.52787 8.26664 4.23332C8.26664 3.93877 8.50542 3.69998 8.79997 3.69998C9.09452 3.69998 9.3333 3.93877 9.3333 4.23332ZM6.66661 4.76665C6.96116 4.76665 7.19994 4.52787 7.19994 4.23332C7.19994 3.93877 6.96116 3.69998 6.66661 3.69998C6.37205 3.69998 6.13327 3.93877 6.13327 4.23332C6.13327 4.52787 6.37205 4.76665 6.66661 4.76665ZM5.06667 4.23332C5.06667 4.52787 4.82789 4.76665 4.53334 4.76665C4.23879 4.76665 4 4.52787 4 4.23332C4 3.93877 4.23879 3.69998 4.53334 3.69998C4.82789 3.69998 5.06667 3.93877 5.06667 4.23332ZM2.39997 4.76665C2.69452 4.76665 2.93331 4.52787 2.93331 4.23332C2.93331 3.93877 2.69452 3.69998 2.39997 3.69998C2.10542 3.69998 1.86664 3.93877 1.86664 4.23332C1.86664 4.52787 2.10542 4.76665 2.39997 4.76665ZM3.99994 5.29998C3.99994 5.59454 3.76116 5.83332 3.46661 5.83332C3.17205 5.83332 2.93327 5.59454 2.93327 5.29998C2.93327 5.00543 3.17205 4.76665 3.46661 4.76665C3.76116 4.76665 3.99994 5.00543 3.99994 5.29998ZM5.59997 5.83332C5.89452 5.83332 6.1333 5.59454 6.1333 5.29998C6.1333 5.00543 5.89452 4.76665 5.59997 4.76665C5.30542 4.76665 5.06664 5.00543 5.06664 5.29998C5.06664 5.59454 5.30542 5.83332 5.59997 5.83332ZM8.26667 5.29998C8.26667 5.59454 8.02789 5.83332 7.73334 5.83332C7.43879 5.83332 7.2 5.59454 7.2 5.29998C7.2 5.00543 7.43879 4.76665 7.73334 4.76665C8.02789 4.76665 8.26667 5.00543 8.26667 5.29998ZM8.79997 6.89998C9.09452 6.89998 9.3333 6.6612 9.3333 6.36665C9.3333 6.0721 9.09452 5.83332 8.79997 5.83332C8.50542 5.83332 8.26664 6.0721 8.26664 6.36665C8.26664 6.6612 8.50542 6.89998 8.79997 6.89998ZM7.19994 6.36665C7.19994 6.6612 6.96116 6.89998 6.66661 6.89998C6.37205 6.89998 6.13327 6.6612 6.13327 6.36665C6.13327 6.0721 6.37205 5.83332 6.66661 5.83332C6.96116 5.83332 7.19994 6.0721 7.19994 6.36665ZM4.53334 6.89998C4.82789 6.89998 5.06667 6.6612 5.06667 6.36665C5.06667 6.0721 4.82789 5.83332 4.53334 5.83332C4.23879 5.83332 4 6.0721 4 6.36665C4 6.6612 4.23879 6.89998 4.53334 6.89998ZM2.93331 6.36665C2.93331 6.6612 2.69452 6.89998 2.39997 6.89998C2.10542 6.89998 1.86664 6.6612 1.86664 6.36665C1.86664 6.0721 2.10542 5.83332 2.39997 5.83332C2.69452 5.83332 2.93331 6.0721 2.93331 6.36665Z" fill="url(#paint0_linear)"/>
</g>
</g>
</g>
<defs>
<filter id="filter0_d" x="1.86664" y="1.56665" width="7.46667" height="6.33333" filterUnits="userSpaceOnUse" color-interpolation-filters="sRGB">
<feFlood flood-opacity="0" result="BackgroundImageFix"/>
<feColorMatrix in="SourceAlpha" type="matrix" values="0 0 0 0 0 0 0 0 0 0 0 0 0 0 0 0 0 0 127 0" result="hardAlpha"/>
<feOffset dy="1"/>
<feColorMatrix type="matrix" values="0 0 0 0 0 0 0 0 0 0 0 0 0 0 0 0 0 0 0.06 0"/>
<feBlend mode="normal" in2="BackgroundImageFix" result="effect1_dropShadow"/>
<feBlend mode="normal" in="SourceGraphic" in2="effect1_dropShadow" result="shape"/>
</filter>
<linearGradient id="paint0_linear" x1="1.86664" y1="1.56665" x2="1.86664" y2="6.89998" gradientUnits="userSpaceOnUse">
<stop stop-color="white"/>
<stop offset="1" stop-color="#F0F0F0"/>
</linearGradient>
<clipPath id="clip0">
<rect x="0.799988" y="0.5" width="22.4" height="16" rx="3" fill="white"/>
</clipPath>
</defs>
</svg>
